<svg width="96" height="64" viewBox="0 0 96 64" fill="none" xmlns="http://www.w3.org/2000/svg">
<path d="M66.3174 39.1921C65.9902 39.9335 65.8926 40.756 66.0372 41.5535C66.1818 42.351 66.562 43.0868 67.1287 43.6662L67.2762 43.8137C67.7333 44.2704 68.096 44.8126 68.3434 45.4095C68.5908 46.0064 68.7182 46.6461 68.7182 47.2923C68.7182 47.9384 68.5908 48.5782 68.3434 49.1751C68.096 49.7719 67.7333 50.3142 67.2762 50.7708C66.8196 51.2279 66.2773 51.5906 65.6804 51.838C65.0836 52.0854 64.4438 52.2128 63.7976 52.2128C63.1515 52.2128 62.5117 52.0854 61.9149 51.838C61.318 51.5906 60.7757 51.2279 60.3191 50.7708L60.1716 50.6233C59.5922 50.0566 58.8564 49.6764 58.0589 49.5318C57.2614 49.3872 56.4389 49.4848 55.6974 49.8121C54.9703 50.1237 54.3502 50.6411 53.9134 51.3007C53.4767 51.9602 53.2423 52.7331 53.2391 53.5241V53.9421C53.2391 55.246 52.7211 56.4966 51.799 57.4187C50.877 58.3407 49.6264 58.8587 48.3224 58.8587C47.0185 58.8587 45.7679 58.3407 44.8458 57.4187C43.9238 56.4966 43.4058 55.246 43.4058 53.9421V53.7208C43.3867 52.9071 43.1234 52.118 42.6499 51.456C42.1764 50.7939 41.5147 50.2897 40.7508 50.0087C40.0093 49.6815 39.1868 49.5839 38.3893 49.7285C37.5919 49.8731 36.856 50.2532 36.2766 50.82L36.1291 50.9675C35.6725 51.4246 35.1302 51.7873 34.5334 52.0347C33.9365 52.2821 33.2967 52.4095 32.6506 52.4095C32.0044 52.4095 31.3646 52.2821 30.7678 52.0347C30.1709 51.7873 29.6286 51.4246 29.172 50.9675C28.7149 50.5109 28.3522 49.9686 28.1048 49.3717C27.8574 48.7749 27.73 48.1351 27.73 47.4889C27.73 46.8428 27.8574 46.203 28.1048 45.6061C28.3522 45.0093 28.7149 44.467 29.172 44.0104L29.3195 43.8629C29.8863 43.2835 30.2664 42.5476 30.411 41.7502C30.5556 40.9527 30.458 40.1302 30.1308 39.3887C29.8191 38.6616 29.3017 38.0415 28.6422 37.6047C27.9826 37.1679 27.2097 36.9335 26.4187 36.9304H26.0008C24.6968 36.9304 23.4462 36.4124 22.5242 35.4903C21.6021 34.5683 21.0841 33.3177 21.0841 32.0137C21.0841 30.7097 21.6021 29.4592 22.5242 28.5371C23.4462 27.6151 24.6968 27.0971 26.0008 27.0971H26.222C27.0357 27.078 27.8249 26.8146 28.4869 26.3411C29.1489 25.8677 29.6532 25.2059 29.9341 24.4421C30.2613 23.7006 30.359 22.8781 30.2144 22.0806C30.0698 21.2831 29.6896 20.5473 29.1229 19.9679L28.9754 19.8204C28.5182 19.3638 28.1556 18.8215 27.9081 18.2246C27.6607 17.6278 27.5334 16.988 27.5334 16.3418C27.5334 15.6957 27.6607 15.0559 27.9081 14.4591C28.1556 13.8622 28.5182 13.3199 28.9754 12.8633C29.432 12.4062 29.9742 12.0435 30.5711 11.7961C31.168 11.5487 31.8078 11.4213 32.4539 11.4213C33.1 11.4213 33.7398 11.5487 34.3367 11.7961C34.9336 12.0435 35.4758 12.4062 35.9324 12.8633L36.0799 13.0108C36.6593 13.5775 37.3952 13.9577 38.1927 14.1023C38.9901 14.2469 39.8126 14.1493 40.5541 13.8221H40.7508C41.4779 13.5104 42.098 12.993 42.5348 12.3335C42.9716 11.6739 43.2059 10.901 43.2091 10.11V9.69206C43.2091 8.38808 43.7271 7.1375 44.6492 6.21545C45.5712 5.2934 46.8218 4.77539 48.1258 4.77539C49.4298 4.77539 50.6803 5.2934 51.6024 6.21545C52.5244 7.1375 53.0424 8.38808 53.0424 9.69206V9.91331C53.0456 10.7044 53.28 11.4772 53.7168 12.1368C54.1536 12.7963 54.7737 13.3138 55.5008 13.6254C56.2422 13.9526 57.0647 14.0502 57.8622 13.9057C58.6597 13.7611 59.3956 13.3809 59.9749 12.8141L60.1224 12.6666C60.5791 12.2095 61.1213 11.8469 61.7182 11.5994C62.3151 11.352 62.9549 11.2246 63.601 11.2246C64.2471 11.2246 64.8869 11.352 65.4838 11.5994C66.0806 11.8469 66.6229 12.2095 67.0795 12.6666C67.5367 13.1233 67.8993 13.6655 68.1467 14.2624C68.3942 14.8593 68.5215 15.4991 68.5215 16.1452C68.5215 16.7913 68.3942 17.4311 68.1467 18.028C67.8993 18.6248 67.5367 19.1671 67.0795 19.6237L66.932 19.7712C66.3653 20.3506 65.9851 21.0865 65.8405 21.8839C65.6959 22.6814 65.7935 23.5039 66.1208 24.2454V24.4421C66.4324 25.1692 66.9498 25.7893 67.6094 26.2261C68.2689 26.6628 69.0418 26.8972 69.8329 26.9004H70.2508C71.5548 26.9004 72.8053 27.4184 73.7274 28.3405C74.6494 29.2625 75.1674 30.5131 75.1674 31.8171C75.1674 33.121 74.6494 34.3716 73.7274 35.2937C72.8053 36.2157 71.5548 36.7337 70.2508 36.7337H70.0295C69.2385 36.7369 68.4656 36.9713 67.806 37.4081C67.1465 37.8449 66.6291 38.465 66.3174 39.1921Z" fill="#4A4891"/>
<path d="M48.1257 39.1924C52.1988 39.1924 55.5007 35.8905 55.5007 31.8174C55.5007 27.7443 52.1988 24.4424 48.1257 24.4424C44.0526 24.4424 40.7507 27.7443 40.7507 31.8174C40.7507 35.8905 44.0526 39.1924 48.1257 39.1924Z" fill="#1C1B1B"/>
<mask id="path-3-outside-1_109_43" maskUnits="userSpaceOnUse" x="0.651136" y="2.217" width="90.7249" height="52.9079" fill="black">
<rect fill="white" x="0.651136" y="2.217" width="90.7249" height="52.9079"/>
<path d="M19.9292 49.2864L19.164 47.352C18.9641 47.7954 18.741 48.2192 18.4946 48.6235C18.2448 49.018 17.9487 49.3899 17.6063 49.7392C17.2639 50.0884 16.8651 50.402 16.4099 50.6799C15.968 50.9643 15.4565 51.2065 14.8754 51.4066C14.1071 51.6711 13.3935 51.7902 12.7344 51.7637C12.0753 51.7373 11.4792 51.59 10.9462 51.3218C10.4132 51.0537 9.94493 50.6696 9.5414 50.1695C9.14772 49.6661 8.83218 49.0697 8.59479 48.3802C8.35061 47.6711 8.27283 46.9653 8.36143 46.2627C8.45988 45.5568 8.73982 44.882 9.20125 44.2384C9.67253 43.5914 10.3238 42.987 11.155 42.4254C11.996 41.8604 13.037 41.3643 14.278 40.9369L16.2429 40.2604L15.9326 39.3592C15.8003 38.9751 15.6275 38.649 15.414 38.381C15.1971 38.1031 14.9283 37.8982 14.6074 37.7663C14.2965 37.631 13.9286 37.5704 13.5037 37.5845C13.0789 37.5986 12.5858 37.7023 12.0244 37.8956C11.138 38.2008 10.297 38.606 9.50152 39.1113C8.71247 39.6033 7.97687 40.1706 7.29472 40.8131L6.30275 37.9322C6.92339 37.399 7.66933 36.8778 8.54056 36.3685C9.42165 35.8558 10.3694 35.4248 11.3839 35.0755C12.4968 34.6922 13.4895 34.4716 14.3619 34.4136C15.2309 34.3457 15.9944 34.4354 16.6524 34.6825C17.3202 34.9263 17.8875 35.3259 18.3541 35.8813C18.8174 36.4269 19.1949 37.1232 19.4865 37.9702L23.0169 48.2232L19.9292 49.2864ZM17.128 42.831L14.9268 43.589C14.3161 43.7992 13.8194 44.0364 13.4366 44.3004C13.0537 44.5644 12.765 44.8456 12.5703 45.144C12.3756 45.4424 12.2617 45.7515 12.2286 46.0714C12.202 46.378 12.2412 46.684 12.3463 46.9893C12.5566 47.6 12.9147 48 13.4206 48.1893C13.923 48.3689 14.5141 48.3416 15.1937 48.1076C15.696 47.9347 16.1552 47.5727 16.5715 47.0218C16.9877 46.4708 17.4038 45.7436 17.8199 44.8402L17.128 42.831ZM37.981 34.3783C38.4557 35.7572 38.6691 37.0168 38.6211 38.157C38.5829 39.2939 38.3294 40.3176 37.8607 41.2281C37.3985 42.1254 36.7506 42.8994 35.917 43.55C35.08 44.1907 34.105 44.7027 32.9921 45.0859C31.8988 45.4623 30.8506 45.7296 29.8474 45.8878C28.8575 46.0523 27.8866 46.1443 26.9348 46.1635L19.9656 25.9235L23.5704 24.6823L25.2593 29.5872L26.1289 32.5928C26.4299 31.707 26.8669 30.9285 27.4401 30.2575C28.0231 29.583 28.8218 29.0711 29.8363 28.7218C30.7227 28.4166 31.5717 28.3225 32.3832 28.4397C33.1947 28.5569 33.9456 28.8657 34.6357 29.3662C35.3323 29.8535 35.9648 30.5226 36.5332 31.3735C37.0982 32.2145 37.5808 33.2161 37.981 34.3783ZM34.2498 35.8283C33.9649 35.001 33.6633 34.3171 33.345 33.7767C33.0268 33.2363 32.6899 32.818 32.3345 32.5217C31.989 32.2221 31.6248 32.0445 31.2422 31.9889C30.866 31.9202 30.471 31.957 30.0573 32.0995C29.4467 32.3097 28.9455 32.7577 28.5536 33.4435C28.1716 34.1259 27.8162 34.9974 27.4874 36.0581L29.746 42.6176C30.0689 42.6276 30.4491 42.5959 30.8865 42.5224C31.3338 42.4455 31.7741 42.3324 32.2074 42.1832C32.7787 41.9865 33.2551 41.6903 33.6366 41.2945C34.028 40.8953 34.3115 40.4231 34.4873 39.8778C34.673 39.3292 34.7476 38.7141 34.7113 38.0325C34.6715 37.3411 34.5177 36.6064 34.2498 35.8283ZM54.6818 28.793C55.0888 29.9749 55.2944 31.116 55.2987 32.2162C55.2995 33.3065 55.1052 34.3099 54.7156 35.2262C54.3261 36.1426 53.7394 36.9505 52.9557 37.65C52.172 38.3495 51.1941 38.9011 50.0221 39.3046C48.9091 39.6878 47.8584 39.8679 46.8699 39.8447C45.8814 39.8215 44.9716 39.5949 44.1406 39.165C43.3061 38.7252 42.5602 38.0787 41.9028 37.2254C41.242 36.3622 40.6895 35.2855 40.2452 33.9953C39.8349 32.8035 39.6293 31.6625 39.6284 30.5721C39.6374 29.4783 39.8383 28.4782 40.2313 27.5717C40.6341 26.6618 41.2291 25.8621 42.0162 25.1724C42.7999 24.4729 43.7679 23.9247 44.9202 23.528C46.043 23.1413 47.1004 22.9646 48.0923 22.9976C49.0808 23.0208 49.9922 23.2523 50.8267 23.6921C51.6612 24.1318 52.4022 24.7801 53.0497 25.6368C53.7037 26.4802 54.2477 27.5323 54.6818 28.793ZM50.9598 30.1737C50.424 28.6176 49.7266 27.5522 48.8678 26.9776C48.0154 26.3897 47.0179 26.2925 45.8754 26.6859C45.2451 26.903 44.7507 27.2109 44.3923 27.6097C44.0338 28.0086 43.7864 28.4739 43.65 29.0056C43.5102 29.5274 43.4697 30.0977 43.5285 30.7165C43.5972 31.3318 43.7434 31.9645 43.9672 32.6145C44.5065 34.1805 45.2286 35.2539 46.1336 35.8347C47.0353 36.4055 48.0328 36.5028 49.126 36.1263C49.7268 35.9195 50.2081 35.6215 50.5699 35.2325C50.9284 34.8337 51.1726 34.375 51.3025 33.8566C51.4291 33.3282 51.4612 32.7498 51.399 32.1212C51.3368 31.4926 51.1904 30.8435 50.9598 30.1737ZM58.8308 19.1017L62.1984 28.8819C62.4799 29.6994 62.8462 30.2673 63.2974 30.5857C63.7451 30.8943 64.2793 30.9417 64.8997 30.728C65.5005 30.5212 65.9919 30.0765 66.3739 29.3942C66.7624 28.6986 67.121 27.8204 67.4499 26.7597L64.1789 17.2602L67.7837 16.019L72.9521 31.0291L69.8348 32.1025L68.9831 29.9169C68.8002 30.4096 68.6005 30.8694 68.384 31.2965C68.1675 31.7236 67.9062 32.1165 67.6001 32.4753C67.3004 32.8209 66.9444 33.1308 66.5321 33.405C66.1329 33.6856 65.6625 33.9192 65.1208 34.1057C64.3526 34.3702 63.6355 34.4794 62.9697 34.4333C62.3102 34.3739 61.7088 34.1789 61.1652 33.8482C60.6217 33.5176 60.1413 33.0661 59.7239 32.4937C59.3129 31.9081 58.9701 31.2164 58.6954 30.4186L55.226 20.343L58.8308 19.1017ZM89.3887 25.2043C88.7895 25.5758 88.1753 25.9196 87.5459 26.2354C86.9165 26.5513 86.3064 26.8109 85.7154 27.0144C84.7305 27.3536 83.8429 27.5435 83.0527 27.5842C82.2724 27.6216 81.5729 27.5099 80.9543 27.2492C80.3456 26.985 79.816 26.567 79.3657 25.9949C78.9218 25.4096 78.5438 24.6639 78.2318 23.7578L75.7087 16.43L71.6754 17.8188L70.7089 15.0118L74.7421 13.623L73.4195 9.78185L76.7823 7.54981L78.4356 12.3513L84.2712 10.3419L85.2377 13.1489L79.4021 15.1583L81.8337 22.2201C82.1287 23.077 82.5495 23.6592 83.0961 23.9668C83.6393 24.2645 84.3738 24.2539 85.2996 23.9352C85.8906 23.7317 86.4498 23.484 86.9773 23.1922C87.5048 22.9004 87.9779 22.6108 88.3967 22.3234L89.3887 25.2043Z"/>
</mask>
<path d="M19.9292 49.2864L19.164 47.352C18.9641 47.7954 18.741 48.2192 18.4946 48.6235C18.2448 49.018 17.9487 49.3899 17.6063 49.7392C17.2639 50.0884 16.8651 50.402 16.4099 50.6799C15.968 50.9643 15.4565 51.2065 14.8754 51.4066C14.1071 51.6711 13.3935 51.7902 12.7344 51.7637C12.0753 51.7373 11.4792 51.59 10.9462 51.3218C10.4132 51.0537 9.94493 50.6696 9.5414 50.1695C9.14772 49.6661 8.83218 49.0697 8.59479 48.3802C8.35061 47.6711 8.27283 46.9653 8.36143 46.2627C8.45988 45.5568 8.73982 44.882 9.20125 44.2384C9.67253 43.5914 10.3238 42.987 11.155 42.4254C11.996 41.8604 13.037 41.3643 14.278 40.9369L16.2429 40.2604L15.9326 39.3592C15.8003 38.9751 15.6275 38.649 15.414 38.381C15.1971 38.1031 14.9283 37.8982 14.6074 37.7663C14.2965 37.631 13.9286 37.5704 13.5037 37.5845C13.0789 37.5986 12.5858 37.7023 12.0244 37.8956C11.138 38.2008 10.297 38.606 9.50152 39.1113C8.71247 39.6033 7.97687 40.1706 7.29472 40.8131L6.30275 37.9322C6.92339 37.399 7.66933 36.8778 8.54056 36.3685C9.42165 35.8558 10.3694 35.4248 11.3839 35.0755C12.4968 34.6922 13.4895 34.4716 14.3619 34.4136C15.2309 34.3457 15.9944 34.4354 16.6524 34.6825C17.3202 34.9263 17.8875 35.3259 18.3541 35.8813C18.8174 36.4269 19.1949 37.1232 19.4865 37.9702L23.0169 48.2232L19.9292 49.2864ZM17.128 42.831L14.9268 43.589C14.3161 43.7992 13.8194 44.0364 13.4366 44.3004C13.0537 44.5644 12.765 44.8456 12.5703 45.144C12.3756 45.4424 12.2617 45.7515 12.2286 46.0714C12.202 46.378 12.2412 46.684 12.3463 46.9893C12.5566 47.6 12.9147 48 13.4206 48.1893C13.923 48.3689 14.5141 48.3416 15.1937 48.1076C15.696 47.9347 16.1552 47.5727 16.5715 47.0218C16.9877 46.4708 17.4038 45.7436 17.8199 44.8402L17.128 42.831ZM37.981 34.3783C38.4557 35.7572 38.6691 37.0168 38.6211 38.157C38.5829 39.2939 38.3294 40.3176 37.8607 41.2281C37.3985 42.1254 36.7506 42.8994 35.917 43.55C35.08 44.1907 34.105 44.7027 32.9921 45.0859C31.8988 45.4623 30.8506 45.7296 29.8474 45.8878C28.8575 46.0523 27.8866 46.1443 26.9348 46.1635L19.9656 25.9235L23.5704 24.6823L25.2593 29.5872L26.1289 32.5928C26.4299 31.707 26.8669 30.9285 27.4401 30.2575C28.0231 29.583 28.8218 29.0711 29.8363 28.7218C30.7227 28.4166 31.5717 28.3225 32.3832 28.4397C33.1947 28.5569 33.9456 28.8657 34.6357 29.3662C35.3323 29.8535 35.9648 30.5226 36.5332 31.3735C37.0982 32.2145 37.5808 33.2161 37.981 34.3783ZM34.2498 35.8283C33.9649 35.001 33.6633 34.3171 33.345 33.7767C33.0268 33.2363 32.6899 32.818 32.3345 32.5217C31.989 32.2221 31.6248 32.0445 31.2422 31.9889C30.866 31.9202 30.471 31.957 30.0573 32.0995C29.4467 32.3097 28.9455 32.7577 28.5536 33.4435C28.1716 34.1259 27.8162 34.9974 27.4874 36.0581L29.746 42.6176C30.0689 42.6276 30.4491 42.5959 30.8865 42.5224C31.3338 42.4455 31.7741 42.3324 32.2074 42.1832C32.7787 41.9865 33.2551 41.6903 33.6366 41.2945C34.028 40.8953 34.3115 40.4231 34.4873 39.8778C34.673 39.3292 34.7476 38.7141 34.7113 38.0325C34.6715 37.3411 34.5177 36.6064 34.2498 35.8283ZM54.6818 28.793C55.0888 29.9749 55.2944 31.116 55.2987 32.2162C55.2995 33.3065 55.1052 34.3099 54.7156 35.2262C54.3261 36.1426 53.7394 36.9505 52.9557 37.65C52.172 38.3495 51.1941 38.9011 50.0221 39.3046C48.9091 39.6878 47.8584 39.8679 46.8699 39.8447C45.8814 39.8215 44.9716 39.5949 44.1406 39.165C43.3061 38.7252 42.5602 38.0787 41.9028 37.2254C41.242 36.3622 40.6895 35.2855 40.2452 33.9953C39.8349 32.8035 39.6293 31.6625 39.6284 30.5721C39.6374 29.4783 39.8383 28.4782 40.2313 27.5717C40.6341 26.6618 41.2291 25.8621 42.0162 25.1724C42.7999 24.4729 43.7679 23.9247 44.9202 23.528C46.043 23.1413 47.1004 22.9646 48.0923 22.9976C49.0808 23.0208 49.9922 23.2523 50.8267 23.6921C51.6612 24.1318 52.4022 24.7801 53.0497 25.6368C53.7037 26.4802 54.2477 27.5323 54.6818 28.793ZM50.9598 30.1737C50.424 28.6176 49.7266 27.5522 48.8678 26.9776C48.0154 26.3897 47.0179 26.2925 45.8754 26.6859C45.2451 26.903 44.7507 27.2109 44.3923 27.6097C44.0338 28.0086 43.7864 28.4739 43.65 29.0056C43.5102 29.5274 43.4697 30.0977 43.5285 30.7165C43.5972 31.3318 43.7434 31.9645 43.9672 32.6145C44.5065 34.1805 45.2286 35.2539 46.1336 35.8347C47.0353 36.4055 48.0328 36.5028 49.126 36.1263C49.7268 35.9195 50.2081 35.6215 50.5699 35.2325C50.9284 34.8337 51.1726 34.375 51.3025 33.8566C51.4291 33.3282 51.4612 32.7498 51.399 32.1212C51.3368 31.4926 51.1904 30.8435 50.9598 30.1737ZM58.8308 19.1017L62.1984 28.8819C62.4799 29.6994 62.8462 30.2673 63.2974 30.5857C63.7451 30.8943 64.2793 30.9417 64.8997 30.728C65.5005 30.5212 65.9919 30.0765 66.3739 29.3942C66.7624 28.6986 67.121 27.8204 67.4499 26.7597L64.1789 17.2602L67.7837 16.019L72.9521 31.0291L69.8348 32.1025L68.9831 29.9169C68.8002 30.4096 68.6005 30.8694 68.384 31.2965C68.1675 31.7236 67.9062 32.1165 67.6001 32.4753C67.3004 32.8209 66.9444 33.1308 66.5321 33.405C66.1329 33.6856 65.6625 33.9192 65.1208 34.1057C64.3526 34.3702 63.6355 34.4794 62.9697 34.4333C62.3102 34.3739 61.7088 34.1789 61.1652 33.8482C60.6217 33.5176 60.1413 33.0661 59.7239 32.4937C59.3129 31.9081 58.9701 31.2164 58.6954 30.4186L55.226 20.343L58.8308 19.1017ZM89.3887 25.2043C88.7895 25.5758 88.1753 25.9196 87.5459 26.2354C86.9165 26.5513 86.3064 26.8109 85.7154 27.0144C84.7305 27.3536 83.8429 27.5435 83.0527 27.5842C82.2724 27.6216 81.5729 27.5099 80.9543 27.2492C80.3456 26.985 79.816 26.567 79.3657 25.9949C78.9218 25.4096 78.5438 24.6639 78.2318 23.7578L75.7087 16.43L71.6754 17.8188L70.7089 15.0118L74.7421 13.623L73.4195 9.78185L76.7823 7.54981L78.4356 12.3513L84.2712 10.3419L85.2377 13.1489L79.4021 15.1583L81.8337 22.2201C82.1287 23.077 82.5495 23.6592 83.0961 23.9668C83.6393 24.2645 84.3738 24.2539 85.2996 23.9352C85.8906 23.7317 86.4498 23.484 86.9773 23.1922C87.5048 22.9004 87.9779 22.6108 88.3967 22.3234L89.3887 25.2043Z" fill="#C72A80"/>
<path d="M19.9292 49.2864L18.9993 49.6542L19.3509 50.5431L20.2548 50.2319L19.9292 49.2864ZM19.164 47.352L20.0939 46.9841L19.224 44.7853L18.2523 46.941L19.164 47.352ZM18.4946 48.6235L19.3395 49.1585L19.3441 49.1512L19.3486 49.1439L18.4946 48.6235ZM16.4099 50.6799L15.8888 49.8264L15.8787 49.8326L15.8688 49.839L16.4099 50.6799ZM9.5414 50.1695L8.75367 50.7855L8.75839 50.7916L8.7632 50.7975L9.5414 50.1695ZM8.36143 46.2627L7.37093 46.1246L7.36929 46.1376L8.36143 46.2627ZM9.20125 44.2384L8.39292 43.6496L8.38853 43.6557L9.20125 44.2384ZM11.155 42.4254L10.5973 41.5953L10.5951 41.5968L11.155 42.4254ZM16.2429 40.2604L16.5685 41.2059L17.514 40.8803L17.1884 39.9348L16.2429 40.2604ZM15.414 38.381L14.6256 38.9963L14.6318 39.004L15.414 38.381ZM14.6074 37.7663L14.2085 38.6833L14.2178 38.6874L14.2272 38.6912L14.6074 37.7663ZM9.50152 39.1113L10.0307 39.9599L10.0377 39.9554L9.50152 39.1113ZM7.29472 40.8131L6.3492 41.1387L6.85328 42.6026L7.98036 41.541L7.29472 40.8131ZM6.30275 37.9322L5.65111 37.1737L5.13625 37.616L5.35724 38.2578L6.30275 37.9322ZM8.54056 36.3685L8.03762 35.5042L8.03589 35.5052L8.54056 36.3685ZM14.3619 34.4136L14.4283 35.4115L14.4398 35.4106L14.3619 34.4136ZM16.6524 34.6825L16.3007 35.6187L16.3095 35.6219L16.6524 34.6825ZM18.3541 35.8813L17.5885 36.5246L17.5919 36.5286L18.3541 35.8813ZM23.0169 48.2232L23.3425 49.1687L24.288 48.8431L23.9624 47.8976L23.0169 48.2232ZM17.128 42.831L18.0736 42.5054L17.748 41.5599L16.8025 41.8855L17.128 42.831ZM12.2286 46.0714L11.2339 45.9685L11.233 45.9767L11.2323 45.9849L12.2286 46.0714ZM13.4206 48.1893L13.07 49.1259L13.077 49.1285L13.0841 49.1311L13.4206 48.1893ZM17.8199 44.8402L18.7282 45.2585L18.896 44.8941L18.7654 44.5147L17.8199 44.8402ZM20.8591 48.9185L20.0939 46.9841L18.2341 47.7198L18.9993 49.6542L20.8591 48.9185ZM18.2523 46.941C18.0689 47.3478 17.865 47.7351 17.6407 48.1032L19.3486 49.1439C19.617 48.7034 19.8593 48.2429 20.0756 47.7629L18.2523 46.941ZM17.6497 48.0886C17.4394 48.4208 17.1877 48.7377 16.8923 49.0391L18.3203 50.4393C18.7098 50.0421 19.0503 49.6152 19.3395 49.1585L17.6497 48.0886ZM16.8923 49.0391C16.6125 49.3244 16.2798 49.5877 15.8888 49.8264L16.931 51.5334C17.4503 51.2164 17.9152 50.8524 18.3203 50.4393L16.8923 49.0391ZM15.8688 49.839C15.5045 50.0734 15.0676 50.2828 14.5498 50.4611L15.2009 52.3521C15.8454 52.1302 16.4315 51.8552 16.951 51.5209L15.8688 49.839ZM14.5498 50.4611C13.8727 50.6942 13.2843 50.785 12.7745 50.7645L12.6943 52.7629C13.5026 52.7954 14.3416 52.648 15.2009 52.3521L14.5498 50.4611ZM12.7745 50.7645C12.2427 50.7432 11.7884 50.6261 11.3956 50.4285L10.4968 52.2151C11.17 52.5538 11.9079 52.7314 12.6943 52.7629L12.7745 50.7645ZM11.3956 50.4285C10.9994 50.2292 10.6407 49.9394 10.3196 49.5415L8.7632 50.7975C9.24919 51.3998 9.82697 51.8782 10.4968 52.2151L11.3956 50.4285ZM10.3291 49.5535C10.0127 49.1488 9.7466 48.6538 9.54031 48.0547L7.64927 48.7058C7.91777 49.4856 8.28276 50.1834 8.75367 50.7855L10.3291 49.5535ZM9.54031 48.0547C9.34293 47.4814 9.28524 46.9296 9.35357 46.3878L7.36929 46.1376C7.26041 47.0009 7.3583 47.8608 7.64927 48.7058L9.54031 48.0547ZM9.35185 46.4008C9.42554 45.8725 9.63624 45.3479 10.014 44.821L8.38853 43.6557C7.84341 44.4161 7.49423 45.2411 7.37102 46.1246L9.35185 46.4008ZM10.0096 44.8271C10.3977 44.2942 10.9564 43.7665 11.7148 43.254L10.5951 41.5968C9.69114 42.2076 8.94732 42.8885 8.39294 43.6496L10.0096 44.8271ZM11.7126 43.2555C12.464 42.7507 13.4219 42.2894 14.6036 41.8825L13.9524 39.9914C12.6522 40.4391 11.5279 40.9702 10.5973 41.5954L11.7126 43.2555ZM14.6036 41.8825L16.5685 41.2059L15.9173 39.3149L13.9524 39.9914L14.6036 41.8825ZM17.1884 39.9348L16.8781 39.0336L14.9871 39.6847L15.2974 40.5859L17.1884 39.9348ZM16.8781 39.0336C16.7155 38.5613 16.4925 38.1299 16.1962 37.758L14.6318 39.004C14.7625 39.1681 14.8852 39.3889 14.9871 39.6847L16.8781 39.0336ZM16.2023 37.7657C15.8804 37.3533 15.4718 37.0405 14.9877 36.8414L14.2272 38.6912C14.3848 38.756 14.5138 38.8529 14.6257 38.9962L16.2023 37.7657ZM15.0064 36.8493C14.5293 36.6418 14.0072 36.5673 13.4706 36.585L13.5368 38.5839C13.8499 38.5736 14.0636 38.6203 14.2085 38.6833L15.0064 36.8493ZM13.4706 36.585C12.9154 36.6034 12.3201 36.7361 11.6988 36.95L12.35 38.8411C12.8515 38.6684 13.2424 38.5937 13.5368 38.5839L13.4706 36.585ZM11.6988 36.95C10.7381 37.2809 9.82652 37.7202 8.96537 38.2672L10.0377 39.9554C10.7675 39.4918 11.5379 39.1207 12.35 38.8411L11.6988 36.95ZM8.97239 38.2628C8.12688 38.79 7.33892 39.3977 6.60908 40.0852L7.98036 41.541C8.61482 40.9435 9.29806 40.4167 10.0306 39.9598L8.97239 38.2628ZM8.24024 40.4875L7.24827 37.6067L5.35724 38.2578L6.3492 41.1387L8.24024 40.4875ZM6.9544 38.6907C7.5202 38.2047 8.21454 37.7174 9.04524 37.2318L8.03589 35.5052C7.12412 36.0382 6.32659 36.5934 5.65111 37.1737L6.9544 38.6907ZM9.04351 37.2328C9.86539 36.7545 10.7534 36.3502 11.7095 36.021L11.0583 34.1299C9.98544 34.4994 8.9779 34.957 8.03762 35.5042L9.04351 37.2328ZM11.7095 36.021C12.7656 35.6573 13.6687 35.4619 14.4283 35.4114L14.2955 33.4158C13.3103 33.4813 12.2281 33.7272 11.0583 34.1299L11.7095 36.021ZM14.4398 35.4106C15.197 35.3514 15.8085 35.4338 16.3007 35.6187L17.004 33.7464C16.1802 33.437 15.2648 33.34 14.284 33.4166L14.4398 35.4106ZM16.3095 35.6219C16.8094 35.8044 17.232 36.1003 17.5885 36.5246L19.1197 35.238C18.5429 34.5515 17.831 34.0482 16.9953 33.7432L16.3095 35.6219ZM17.5919 36.5286C17.9571 36.9587 18.2801 37.5379 18.541 38.2958L20.432 37.6446C20.1097 36.7084 19.6777 35.8951 19.1164 35.234L17.5919 36.5286ZM18.541 38.2958L22.0714 48.5487L23.9624 47.8976L20.432 37.6446L18.541 38.2958ZM22.6913 47.2777L19.6036 48.3408L20.2548 50.2319L23.3425 49.1687L22.6913 47.2777ZM16.8025 41.8855L14.6012 42.6434L15.2523 44.5345L17.4536 43.7765L16.8025 41.8855ZM14.6012 42.6434C13.9353 42.8727 13.3491 43.1459 12.8688 43.4772L14.0043 45.1236C14.2896 44.9268 14.6969 44.7257 15.2523 44.5345L14.6012 42.6434ZM12.8688 43.4772C12.41 43.7936 12.0166 44.1625 11.7328 44.5975L13.4077 45.6905C13.5133 45.5287 13.6974 45.3352 14.0043 45.1236L12.8688 43.4772ZM11.7328 44.5975C11.4607 45.0146 11.285 45.4739 11.2339 45.9685L13.2233 46.1743C13.2383 46.0292 13.2904 45.8702 13.4077 45.6905L11.7328 44.5975ZM11.2323 45.9849C11.193 46.4377 11.2524 46.8839 11.4008 47.3149L13.2919 46.6638C13.23 46.4841 13.2109 46.3183 13.2248 46.1579L11.2323 45.9849ZM11.4008 47.3149C11.6872 48.1467 12.2292 48.8111 13.07 49.1259L13.7711 47.2528C13.6002 47.1888 13.426 47.0532 13.2919 46.6638L11.4008 47.3149ZM13.0841 49.1311C13.8643 49.4098 14.6993 49.3355 15.5192 49.0531L14.8681 47.1621C14.3289 47.3478 13.9818 47.328 13.757 47.2476L13.0841 49.1311ZM15.5192 49.0531C16.2585 48.7986 16.8688 48.2871 17.3694 47.6246L15.7736 46.419C15.4417 46.8583 15.1334 47.0707 14.8681 47.1621L15.5192 49.0531ZM17.3694 47.6246C17.8433 46.9973 18.294 46.2013 18.7282 45.2585L16.9116 44.4219C16.5137 45.286 16.1321 45.9444 15.7736 46.419L17.3694 47.6246ZM18.7654 44.5147L18.0736 42.5054L16.1825 43.1566L16.8744 45.1658L18.7654 44.5147ZM38.6211 38.157L37.6219 38.1149L37.6216 38.1235L38.6211 38.157ZM37.8607 41.2281L38.7497 41.6861L38.7499 41.6858L37.8607 41.2281ZM35.917 43.55L36.5249 44.344L36.5323 44.3383L35.917 43.55ZM29.8474 45.8878L29.6917 44.8999L29.6834 44.9013L29.8474 45.8878ZM26.9348 46.1635L25.9893 46.4891L26.2265 47.1781L26.955 47.1633L26.9348 46.1635ZM19.9656 25.9235L19.64 24.978L18.6945 25.3036L19.0201 26.2491L19.9656 25.9235ZM23.5704 24.6823L24.5159 24.3567L24.1903 23.4112L23.2448 23.7368L23.5704 24.6823ZM25.2593 29.5872L26.2199 29.3092L26.2129 29.2852L26.2048 29.2616L25.2593 29.5872ZM26.1289 32.5928L25.1683 32.8707L26.0525 35.9266L27.0758 32.9145L26.1289 32.5928ZM27.4401 30.2575L26.6835 29.6035L26.6797 29.608L27.4401 30.2575ZM34.6357 29.3662L34.0486 30.1758L34.0555 30.1808L34.0625 30.1857L34.6357 29.3662ZM36.5332 31.3735L35.7016 31.9289L35.7031 31.9311L36.5332 31.3735ZM32.3345 32.5217L31.6794 33.2772L31.6867 33.2836L31.6942 33.2898L32.3345 32.5217ZM31.2422 31.9889L31.0624 32.9727L31.0804 32.976L31.0986 32.9786L31.2422 31.9889ZM28.5536 33.4435L27.6853 32.9474L27.681 32.955L28.5536 33.4435ZM27.4874 36.0581L26.5322 35.762L26.4354 36.0744L26.5419 36.3836L27.4874 36.0581ZM29.746 42.6176L28.8005 42.9432L29.0252 43.5958L29.7151 43.6171L29.746 42.6176ZM30.8865 42.5224L31.0522 43.5085L31.0559 43.5079L30.8865 42.5224ZM33.6366 41.2945L32.9225 40.5944L32.9166 40.6005L33.6366 41.2945ZM34.4873 39.8778L33.5401 39.5573L33.5378 39.5641L33.5356 39.571L34.4873 39.8778ZM34.7113 38.0325L35.7099 37.9792L35.7096 37.9751L34.7113 38.0325ZM37.0354 34.7039C37.4804 35.996 37.6635 37.1288 37.622 38.1149L39.6202 38.1991C39.6747 36.9047 39.4311 35.5184 38.9265 34.0527L37.0354 34.7039ZM37.6216 38.1235C37.5878 39.1291 37.3655 40.0054 36.9716 40.7705L38.7499 41.6858C39.2934 40.6299 39.5779 39.4588 39.6205 38.1906L37.6216 38.1235ZM36.9718 40.7702C36.579 41.5327 36.0269 42.1957 35.3018 42.7616L36.5323 44.3383C37.4744 43.603 38.2181 42.7181 38.7497 41.6861L36.9718 40.7702ZM35.3091 42.7559C34.5668 43.3242 33.6896 43.7881 32.6665 44.1404L33.3177 46.0314C34.5205 45.6172 35.5932 45.0572 36.5249 44.344L35.3091 42.7559ZM32.6665 44.1404C31.6211 44.5003 30.6299 44.7521 29.6917 44.9L30.0032 46.8756C31.0714 46.7072 32.1766 46.4243 33.3177 46.0314L32.6665 44.1404ZM29.6834 44.9013C28.7385 45.0584 27.8157 45.1455 26.9146 45.1637L26.955 47.1633C27.9576 47.143 28.9765 47.0463 30.0115 46.8742L29.6834 44.9013ZM27.8803 45.838L20.9111 25.598L19.0201 26.2491L25.9893 46.4891L27.8803 45.838ZM20.2912 26.8691L23.896 25.6278L23.2448 23.7368L19.64 24.978L20.2912 26.8691ZM22.6249 25.0079L24.3138 29.9128L26.2048 29.2616L24.5159 24.3567L22.6249 25.0079ZM24.2987 29.8651L25.1683 32.8707L27.0895 32.3149L26.2199 29.3092L24.2987 29.8651ZM27.0758 32.9145C27.3384 32.1414 27.7145 31.4758 28.2005 30.9069L26.6797 29.608C26.0193 30.3812 25.5213 31.2725 25.1821 32.2711L27.0758 32.9145ZM28.1966 30.9114C28.6428 30.3952 29.2803 29.9709 30.1618 29.6673L29.5107 27.7763C28.3633 28.1713 27.4034 28.7707 26.6835 29.6035L28.1966 30.9114ZM30.1618 29.6673C30.9195 29.4064 31.6075 29.3381 32.2403 29.4295L32.5261 27.45C31.5359 27.307 30.5258 27.4267 29.5107 27.7763L30.1618 29.6673ZM32.2403 29.4295C32.8849 29.5225 33.4843 29.7665 34.0486 30.1758L35.2228 28.5567C34.4068 27.9649 33.5046 27.5913 32.5261 27.45L32.2403 29.4295ZM34.0625 30.1857C34.6389 30.5889 35.1885 31.1608 35.7016 31.9289L37.3647 30.818C36.741 29.8843 36.0256 29.1181 35.2089 28.5468L34.0625 30.1857ZM35.7031 31.9311C36.2107 32.6867 36.6577 33.6069 37.0354 34.7039L38.9265 34.0527C38.5038 32.8253 37.9856 31.7422 37.3632 30.8158L35.7031 31.9311ZM35.1953 35.5028C34.8965 34.6349 34.5693 33.8849 34.2067 33.2692L32.4834 34.2842C32.7573 34.7493 33.0333 35.3671 33.3042 36.1539L35.1953 35.5028ZM34.2067 33.2692C33.8495 32.6627 33.4436 32.1444 32.9748 31.7536L31.6942 33.2898C31.9362 33.4916 32.204 33.8099 32.4834 34.2842L34.2067 33.2692ZM32.9897 31.7662C32.5264 31.3645 31.9902 31.087 31.3858 30.9993L31.0986 32.9786C31.2595 33.0019 31.4516 33.0797 31.6794 33.2772L32.9897 31.7662ZM31.422 31.0052C30.8538 30.9014 30.2841 30.9637 29.7318 31.1539L30.3829 33.045C30.6579 32.9503 30.8781 32.939 31.0624 32.9727L31.422 31.0052ZM29.7318 31.1539C28.8434 31.4598 28.1696 32.0999 27.6854 32.9474L29.4219 33.9396C29.7213 33.4155 30.05 33.1596 30.3829 33.045L29.7318 31.1539ZM27.681 32.955C27.254 33.718 26.8739 34.6599 26.5322 35.762L28.4425 36.3542C28.7585 35.3349 29.0893 34.5338 29.4262 33.932L27.681 32.955ZM26.5419 36.3836L28.8005 42.9432L30.6915 42.292L28.4329 35.7325L26.5419 36.3836ZM29.7151 43.6171C30.123 43.6298 30.572 43.5892 31.0522 43.5085L30.7208 41.5362C30.3262 41.6025 30.0149 41.6255 29.7769 41.6181L29.7151 43.6171ZM31.0559 43.5079C31.5568 43.4218 32.0493 43.2953 32.533 43.1287L31.8819 41.2377C31.4989 41.3696 31.1108 41.4691 30.7171 41.5368L31.0559 43.5079ZM32.533 43.1287C33.2387 42.8857 33.8547 42.5091 34.3565 41.9885L32.9166 40.6005C32.6554 40.8715 32.3187 41.0873 31.8819 41.2377L32.533 43.1287ZM34.3506 41.9946C34.8535 41.4818 35.2169 40.8739 35.4391 40.1847L33.5356 39.571C33.4062 39.9723 33.2025 40.3089 32.9225 40.5944L34.3506 41.9946ZM35.4346 40.1984C35.6675 39.5101 35.7518 38.7653 35.7098 37.9792L33.7127 38.0858C33.7435 38.6628 33.6785 39.1483 33.5401 39.5573L35.4346 40.1984ZM35.7096 37.9751C35.6637 37.1771 35.4876 36.3516 35.1953 35.5028L33.3042 36.1539C33.5478 36.8612 33.6793 37.5052 33.7129 38.0899L35.7096 37.9751ZM55.2987 32.2162L56.2987 32.2154L56.2986 32.2123L55.2987 32.2162ZM44.1406 39.165L43.6743 40.0497L43.6811 40.0532L44.1406 39.165ZM41.9028 37.2254L41.1087 37.8332L41.1106 37.8356L41.9028 37.2254ZM39.6284 30.5721L38.6284 30.5639L38.6284 30.5729L39.6284 30.5721ZM40.2313 27.5717L39.3169 27.1669L39.3138 27.174L40.2313 27.5717ZM42.0162 25.1724L42.6752 25.9246L42.682 25.9185L42.0162 25.1724ZM48.0923 22.9976L48.059 23.9971L48.0688 23.9973L48.0923 22.9976ZM53.0497 25.6368L52.2519 26.2398L52.2594 26.2495L53.0497 25.6368ZM48.8678 26.9776L48.3 27.8009L48.3117 27.8087L48.8678 26.9776ZM43.65 29.0056L44.616 29.2643L44.6186 29.2541L43.65 29.0056ZM43.5285 30.7165L42.533 30.8111L42.5338 30.8192L42.5347 30.8273L43.5285 30.7165ZM46.1336 35.8347L45.5936 36.6763L45.5987 36.6795L46.1336 35.8347ZM50.5699 35.2325L51.3021 35.9136L51.308 35.9073L51.3137 35.901L50.5699 35.2325ZM51.3025 33.8566L52.2725 34.0997L52.275 34.0895L51.3025 33.8566ZM53.7363 29.1186C54.1124 30.2108 54.2949 31.2431 54.2987 32.2201L56.2986 32.2123C56.2939 30.9888 56.0652 29.739 55.6273 28.4674L53.7363 29.1186ZM54.2987 32.217C54.2994 33.1855 54.1274 34.054 53.7953 34.835L55.6359 35.6175C56.083 34.5658 56.2996 33.4276 56.2987 32.2154L54.2987 32.217ZM53.7953 34.835C53.4666 35.6083 52.9698 36.297 52.2898 36.904L53.6216 38.3961C54.509 37.604 55.1856 36.6768 55.6359 35.6175L53.7953 34.835ZM52.2898 36.904C51.6213 37.5006 50.7652 37.9911 49.6965 38.3591L50.3476 40.2501C51.623 39.811 52.7227 39.1984 53.6216 38.3961L52.2898 36.904ZM49.6965 38.3591C48.6749 38.7109 47.743 38.8649 46.8934 38.8449L46.8465 40.8444C47.9738 40.8708 49.1433 40.6648 50.3476 40.2501L49.6965 38.3591ZM46.8934 38.8449C46.048 38.8251 45.2885 38.6329 44.6 38.2768L43.6811 40.0532C44.6548 40.5569 45.7149 40.8178 46.8465 40.8444L46.8934 38.8449ZM44.6068 38.2803C43.9163 37.9164 43.2771 37.3707 42.695 36.6151L41.1106 37.8356C41.8432 38.7866 42.6959 39.534 43.6743 40.0496L44.6068 38.2803ZM42.6968 36.6175C42.1156 35.8583 41.6086 34.8831 41.1908 33.6697L39.2997 34.3208C39.7704 35.6879 40.3684 36.8661 41.1087 37.8332L42.6968 36.6175ZM41.1908 33.6697C40.8109 32.5665 40.6292 31.5354 40.6284 30.5713L38.6284 30.5729C38.6294 31.7895 38.8589 33.0406 39.2997 34.3208L41.1908 33.6697ZM40.6284 30.5803C40.6364 29.6062 40.8146 28.7404 41.1488 27.9694L39.3138 27.174C38.8621 28.216 38.6384 29.3505 38.6284 30.5639L40.6284 30.5803ZM41.1457 27.9765C41.4866 27.2065 41.9917 26.5234 42.6752 25.9245L41.3571 24.4203C40.4665 25.2007 39.7816 26.1172 39.3169 27.1669L41.1457 27.9765ZM42.682 25.9185C43.3521 25.3204 44.1991 24.8339 45.2458 24.4735L44.5947 22.5824C43.3367 23.0156 42.2476 23.6254 41.3503 24.4264L42.682 25.9185ZM45.2458 24.4735C46.2754 24.119 47.2104 23.9688 48.059 23.9971L48.1256 21.9982C46.9904 21.9603 45.8107 22.1637 44.5947 22.5824L45.2458 24.4735ZM48.0688 23.9973C48.9105 24.0171 49.6693 24.2125 50.3605 24.5767L51.2929 22.8074C50.3151 22.2921 49.251 22.0245 48.1157 21.9979L48.0688 23.9973ZM50.3605 24.5767C51.0482 24.9392 51.6807 25.4839 52.252 26.2398L53.8475 25.0338C53.1237 24.0763 52.2741 23.3245 51.2929 22.8074L50.3605 24.5767ZM52.2594 26.2495C52.8319 26.9879 53.3294 27.9367 53.7363 29.1186L55.6273 28.4674C55.1661 27.1279 54.5754 25.9726 53.84 25.024L52.2594 26.2495ZM51.9053 29.8482C51.3376 28.1992 50.5437 26.8957 49.4238 26.1464L48.3117 27.8087C48.9095 28.2087 49.5104 29.0359 50.0143 30.4993L51.9053 29.8482ZM49.4355 26.1544C48.2757 25.3545 46.9356 25.2632 45.5498 25.7404L46.201 27.6314C47.1002 27.3218 47.7551 27.425 48.3001 27.8008L49.4355 26.1544ZM45.5498 25.7404C44.7974 25.9995 44.1449 26.3889 43.6485 26.9413L45.136 28.2782C45.3564 28.0329 45.6928 27.8064 46.201 27.6314L45.5498 25.7404ZM43.6485 26.9413C43.1797 27.4629 42.8568 28.0732 42.6814 28.7571L44.6186 29.2541C44.716 28.8746 44.8879 28.5543 45.136 28.2782L43.6485 26.9413ZM42.6841 28.7468C42.5092 29.3997 42.4646 30.0913 42.533 30.8111L44.524 30.6218C44.4748 30.1041 44.5112 29.6552 44.6159 29.2643L42.6841 28.7468ZM42.5347 30.8273C42.6123 31.5233 42.7765 32.228 43.0217 32.9401L44.9128 32.289C44.7103 31.7009 44.582 31.1403 44.5223 30.6056L42.5347 30.8273ZM43.0217 32.9401C43.5967 34.6101 44.421 35.9238 45.5936 36.6763L46.6737 34.993C46.0362 34.584 45.4162 33.751 44.9128 32.289L43.0217 32.9401ZM45.5987 36.6795C46.7806 37.4279 48.0985 37.5377 49.4516 37.0718L48.8004 35.1808C47.967 35.4678 47.29 35.3832 46.6686 34.9898L45.5987 36.6795ZM49.4516 37.0718C50.1773 36.822 50.8086 36.4442 51.3021 35.9136L49.8377 34.5515C49.6076 34.7988 49.2763 35.0169 48.8004 35.1808L49.4516 37.0718ZM51.3137 35.901C51.7807 35.3813 52.1028 34.7768 52.2725 34.0997L50.3325 33.6135C50.2423 33.9733 50.076 34.2861 49.8262 34.5641L51.3137 35.901ZM52.275 34.0895C52.4314 33.4367 52.4656 32.7446 52.3942 32.0227L50.4039 32.2197C50.4569 32.755 50.4268 33.2198 50.33 33.6236L52.275 34.0895ZM52.3942 32.0227C52.3235 31.3081 52.1582 30.5827 51.9053 29.8482L50.0143 30.4993C50.2226 31.1043 50.3502 31.6772 50.4039 32.2197L52.3942 32.0227ZM58.8308 19.1017L59.7763 18.7762L59.4508 17.8306L58.5053 18.1562L58.8308 19.1017ZM63.2974 30.5857L62.7207 31.4028L62.73 31.4092L63.2974 30.5857ZM66.3739 29.3942L67.2465 29.8826L67.247 29.8817L66.3739 29.3942ZM67.4499 26.7597L68.405 27.0559L68.5019 26.7434L68.3954 26.4342L67.4499 26.7597ZM64.1789 17.2602L63.8533 16.3147L62.9078 16.6403L63.2334 17.5858L64.1789 17.2602ZM67.7837 16.019L68.7292 15.6934L68.4036 14.7479L67.4581 15.0735L67.7837 16.019ZM72.9521 31.0291L73.2777 31.9746L74.2232 31.6491L73.8976 30.7035L72.9521 31.0291ZM69.8348 32.1025L68.9031 32.4656L69.2519 33.3608L70.1604 33.048L69.8348 32.1025ZM68.9831 29.9169L69.9149 29.5538L68.9605 27.1048L68.0457 29.5689L68.9831 29.9169ZM68.384 31.2965L67.4921 30.8444L68.384 31.2965ZM67.6001 32.4753L68.3556 33.1305L68.3608 33.1244L67.6001 32.4753ZM66.5321 33.405L65.9784 32.5722L65.9675 32.5794L65.9569 32.5869L66.5321 33.405ZM62.9697 34.4333L62.88 35.4293L62.8902 35.4302L62.9005 35.4309L62.9697 34.4333ZM59.7239 32.4937L58.9053 33.0682L58.9105 33.0756L58.9159 33.083L59.7239 32.4937ZM55.226 20.343L54.9005 19.3974L53.9549 19.723L54.2805 20.6685L55.226 20.343ZM57.8853 19.4273L61.2529 29.2075L63.1439 28.5564L59.7763 18.7762L57.8853 19.4273ZM61.2529 29.2075C61.5668 30.119 62.0258 30.9123 62.7208 31.4028L63.874 29.7687C63.6667 29.6224 63.393 29.2798 63.1439 28.5564L61.2529 29.2075ZM62.73 31.4092C63.4945 31.936 64.3745 31.9665 65.2253 31.6736L64.5742 29.7825C64.184 29.9169 63.9957 29.8525 63.8648 29.7623L62.73 31.4092ZM65.2253 31.6736C66.1088 31.3693 66.7734 30.7278 67.2465 29.8826L65.5013 28.9057C65.2105 29.4253 64.8922 29.673 64.5742 29.7825L65.2253 31.6736ZM67.247 29.8817C67.6797 29.1068 68.0629 28.1592 68.405 27.0559L66.4947 26.4636C66.1791 27.4817 65.845 28.2903 65.5008 28.9066L67.247 29.8817ZM68.3954 26.4342L65.1244 16.9347L63.2334 17.5858L66.5043 27.0853L68.3954 26.4342ZM64.5045 18.2057L68.1093 16.9645L67.4581 15.0735L63.8533 16.3147L64.5045 18.2057ZM66.8382 16.3446L72.0066 31.3547L73.8976 30.7035L68.7292 15.6934L66.8382 16.3446ZM72.6265 30.0836L69.5093 31.1569L70.1604 33.048L73.2777 31.9746L72.6265 30.0836ZM70.7666 31.7394L69.9149 29.5538L68.0514 30.28L68.9031 32.4656L70.7666 31.7394ZM68.0457 29.5689C67.8747 30.0294 67.6899 30.4542 67.4921 30.8444L69.276 31.7487C69.5112 31.2847 69.7258 30.7898 69.9206 30.265L68.0457 29.5689ZM67.4921 30.8444C67.3108 31.2019 67.0933 31.5286 66.8394 31.8263L68.3608 33.1244C68.7191 32.7045 69.0242 32.2453 69.276 31.7487L67.4921 30.8444ZM66.8446 31.8202C66.6086 32.0924 66.3219 32.3438 65.9784 32.5722L67.0858 34.2377C67.5669 33.9177 67.9923 33.5494 68.3556 33.1305L66.8446 31.8202ZM65.9569 32.5869C65.6466 32.8051 65.2632 32.9991 64.7953 33.1602L65.4464 35.0512C66.0619 34.8393 66.6193 34.5661 67.1073 34.223L65.9569 32.5869ZM64.7953 33.1602C64.1269 33.3903 63.5452 33.4708 63.0388 33.4357L62.9005 35.4309C63.7258 35.4881 64.5783 35.3501 65.4464 35.0512L64.7953 33.1602ZM63.0593 33.4373C62.5458 33.3911 62.0925 33.2418 61.685 32.9939L60.6455 34.7026C61.325 35.116 62.0746 35.3567 62.88 35.4293L63.0593 33.4373ZM61.685 32.9939C61.2662 32.7391 60.8804 32.3825 60.5318 31.9045L58.9159 33.083C59.4022 33.7497 59.9773 34.296 60.6455 34.7026L61.685 32.9939ZM60.5424 31.9193C60.1938 31.4226 59.8904 30.8178 59.6409 30.0931L57.7498 30.7442C58.0497 31.6151 58.432 32.3937 58.9053 33.0682L60.5424 31.9193ZM59.6409 30.0931L56.1715 20.0174L54.2805 20.6685L57.7498 30.7442L59.6409 30.0931ZM55.5516 21.2885L59.1564 20.0472L58.5053 18.1562L54.9005 19.3974L55.5516 21.2885ZM89.3887 25.2043L89.9157 26.0541L90.5941 25.6334L90.3342 24.8787L89.3887 25.2043ZM83.0527 27.5842L83.1005 28.5831L83.1042 28.5829L83.0527 27.5842ZM80.9543 27.2492L80.5563 28.1666L80.5659 28.1706L80.9543 27.2492ZM79.3657 25.9949L78.5689 26.5992L78.5744 26.6064L78.5799 26.6135L79.3657 25.9949ZM75.7087 16.43L76.6542 16.1045L76.3286 15.1589L75.3831 15.4845L75.7087 16.43ZM71.6754 17.8188L70.7299 18.1443L71.0555 19.0899L72.001 18.7643L71.6754 17.8188ZM70.7089 15.0118L70.3833 14.0663L69.4378 14.3918L69.7634 15.3373L70.7089 15.0118ZM74.7421 13.623L75.0677 14.5685L76.0132 14.243L75.6876 13.2975L74.7421 13.623ZM73.4195 9.78185L72.8665 8.94868L72.2222 9.3763L72.474 10.1074L73.4195 9.78185ZM76.7823 7.54981L77.7278 7.22424L77.3068 6.00145L76.2293 6.71664L76.7823 7.54981ZM78.4356 12.3513L77.49 12.6768L77.8156 13.6224L78.7611 13.2968L78.4356 12.3513ZM84.2712 10.3419L85.2167 10.0163L84.8911 9.07082L83.9456 9.39639L84.2712 10.3419ZM85.2377 13.1489L85.5633 14.0944L86.5088 13.7689L86.1832 12.8233L85.2377 13.1489ZM79.4021 15.1583L79.0765 14.2128L78.131 14.5383L78.4566 15.4838L79.4021 15.1583ZM83.0961 23.9668L82.6057 24.8383L82.6155 24.8437L83.0961 23.9668ZM88.3967 22.3234L89.3423 21.9978L88.9144 20.7553L87.8309 21.4989L88.3967 22.3234ZM88.8617 24.3544C88.288 24.7102 87.6999 25.0393 87.0973 25.3417L87.9944 27.1292C88.6506 26.7998 89.2911 26.4415 89.9157 26.0541L88.8617 24.3544ZM87.0973 25.3417C86.5029 25.64 85.9338 25.8816 85.3898 26.0689L86.041 27.9599C86.6789 27.7403 87.3302 27.4625 87.9944 27.1292L87.0973 25.3417ZM85.3898 26.0689C84.4672 26.3866 83.6739 26.5509 83.0012 26.5856L83.1042 28.5829C84.0119 28.5361 84.9938 28.3205 86.041 27.9599L85.3898 26.0689ZM83.0049 26.5854C82.3496 26.6167 81.8027 26.5215 81.3427 26.3277L80.5659 28.1706C81.3431 28.4982 82.1952 28.6264 83.1005 28.5831L83.0049 26.5854ZM81.3523 26.3318C80.91 26.1399 80.5094 25.8311 80.1514 25.3763L78.5799 26.6135C79.1226 27.3028 79.7811 27.8302 80.5563 28.1665L81.3523 26.3318ZM80.1624 25.3906C79.7987 24.911 79.4647 24.2669 79.1773 23.4322L77.2863 24.0834C77.6229 25.0609 78.0449 25.9082 78.5689 26.5992L80.1624 25.3906ZM79.1773 23.4322L76.6542 16.1045L74.7631 16.7556L77.2863 24.0834L79.1773 23.4322ZM75.3831 15.4845L71.3499 16.8733L72.001 18.7643L76.0342 17.3755L75.3831 15.4845ZM72.6209 17.4932L71.6544 14.6862L69.7634 15.3373L70.7299 18.1443L72.6209 17.4932ZM71.0345 15.9573L75.0677 14.5685L74.4166 12.6775L70.3833 14.0663L71.0345 15.9573ZM75.6876 13.2975L74.365 9.45628L72.474 10.1074L73.7966 13.9486L75.6876 13.2975ZM73.9725 10.615L77.3353 8.38298L76.2293 6.71664L72.8665 8.94868L73.9725 10.615ZM75.8368 7.87538L77.49 12.6768L79.3811 12.0257L77.7278 7.22424L75.8368 7.87538ZM78.7611 13.2968L84.5967 11.2874L83.9456 9.39639L78.11 11.4058L78.7611 13.2968ZM83.3257 10.6675L84.2922 13.4745L86.1832 12.8233L85.2167 10.0163L83.3257 10.6675ZM84.9121 12.2034L79.0765 14.2128L79.7277 16.1038L85.5633 14.0944L84.9121 12.2034ZM78.4566 15.4838L80.8882 22.5457L82.7792 21.8946L80.3476 14.8327L78.4566 15.4838ZM80.8882 22.5457C81.228 23.5326 81.7677 24.3667 82.6057 24.8383L83.5865 23.0953C83.3314 22.9517 83.0295 22.6214 82.7792 21.8946L80.8882 22.5457ZM82.6155 24.8437C83.5182 25.3384 84.5849 25.2389 85.6252 24.8807L84.974 22.9896C84.1627 23.269 83.7604 23.1905 83.5767 23.0898L82.6155 24.8437ZM85.6252 24.8807C86.2689 24.659 86.8813 24.3881 87.4613 24.0673L86.4932 22.3172C86.0182 22.58 85.5122 22.8043 84.974 22.9896L85.6252 24.8807ZM87.4613 24.0673C88.0119 23.7627 88.513 23.4565 88.9626 23.1479L87.8309 21.4989C87.4428 21.7652 86.9977 22.0382 86.4932 22.3172L87.4613 24.0673ZM87.4512 22.649L88.4432 25.5298L90.3342 24.8787L89.3423 21.9978L87.4512 22.649Z" fill="black" mask="url(#path-3-outside-1_109_43)"/>
</svg>
