<svg width="146" height="81" viewBox="0 0 146 81" fill="none" xmlns="http://www.w3.org/2000/svg">
<path d="M90.8738 45.819C90.5466 46.5605 90.449 47.383 90.5936 48.1805C90.7382 48.9779 91.1183 49.7138 91.6851 50.2932L91.8326 50.4407C92.2897 50.8973 92.6524 51.4396 92.8998 52.0364C93.1472 52.6333 93.2746 53.2731 93.2746 53.9192C93.2746 54.5653 93.1472 55.2051 92.8998 55.802C92.6524 56.3989 92.2897 56.9411 91.8326 57.3978C91.376 57.8549 90.8337 58.2175 90.2368 58.465C89.64 58.7124 89.0002 58.8398 88.354 58.8398C87.7079 58.8398 87.0681 58.7124 86.4713 58.465C85.8744 58.2175 85.3321 57.8549 84.8755 57.3978L84.728 57.2503C84.1486 56.6835 83.4128 56.3033 82.6153 56.1588C81.8178 56.0142 80.9953 56.1118 80.2538 56.439C79.5267 56.7506 78.9066 57.2681 78.4698 57.9276C78.0331 58.5872 77.7987 59.36 77.7955 60.1511V60.569C77.7955 61.873 77.2775 63.1236 76.3554 64.0456C75.4334 64.9677 74.1828 65.4857 72.8788 65.4857C71.5749 65.4857 70.3243 64.9677 69.4022 64.0456C68.4802 63.1236 67.9622 61.873 67.9622 60.569V60.3478C67.9431 59.5341 67.6798 58.7449 67.2063 58.0829C66.7328 57.4209 66.0711 56.9166 65.3072 56.6357C64.5657 56.3084 63.7432 56.2108 62.9457 56.3554C62.1483 56.5 61.4124 56.8802 60.833 57.4469L60.6855 57.5944C60.2289 58.0516 59.6866 58.4142 59.0898 58.6616C58.4929 58.9091 57.8531 59.0364 57.207 59.0364C56.5608 59.0364 55.921 58.9091 55.3242 58.6616C54.7273 58.4142 54.185 58.0516 53.7284 57.5944C53.2713 57.1378 52.9086 56.5956 52.6612 55.9987C52.4138 55.4018 52.2864 54.762 52.2864 54.1159C52.2864 53.4698 52.4138 52.83 52.6612 52.2331C52.9086 51.6362 53.2713 51.094 53.7284 50.6373L53.8759 50.4898C54.4427 49.9105 54.8228 49.1746 54.9674 48.3771C55.112 47.5797 55.0144 46.7572 54.6872 46.0157C54.3755 45.2886 53.8581 44.6685 53.1986 44.2317C52.539 43.7949 51.7661 43.5605 50.9751 43.5573H50.5572C49.2532 43.5573 48.0026 43.0393 47.0806 42.1173C46.1585 41.1952 45.6405 39.9447 45.6405 38.6407C45.6405 37.3367 46.1585 36.0861 47.0806 35.1641C48.0026 34.242 49.2532 33.724 50.5572 33.724H50.7784C51.5921 33.705 52.3813 33.4416 53.0433 32.9681C53.7053 32.4946 54.2096 31.8329 54.4905 31.069C54.8177 30.3275 54.9154 29.505 54.7708 28.7076C54.6262 27.9101 54.246 27.1742 53.6793 26.5948L53.5318 26.4473C53.0746 25.9907 52.712 25.4485 52.4645 24.8516C52.2171 24.2547 52.0898 23.6149 52.0898 22.9688C52.0898 22.3227 52.2171 21.6829 52.4645 21.086C52.712 20.4891 53.0746 19.9469 53.5318 19.4903C53.9884 19.0331 54.5306 18.6705 55.1275 18.4231C55.7244 18.1756 56.3642 18.0483 57.0103 18.0483C57.6564 18.0483 58.2962 18.1756 58.8931 18.4231C59.49 18.6705 60.0322 19.0331 60.4888 19.4903L60.6363 19.6378C61.2157 20.2045 61.9516 20.5847 62.7491 20.7293C63.5465 20.8739 64.369 20.7763 65.1105 20.449H65.3072C66.0343 20.1374 66.6544 19.62 67.0912 18.9604C67.528 18.3009 67.7623 17.528 67.7655 16.7369V16.319C67.7655 15.015 68.2835 13.7645 69.2056 12.8424C70.1276 11.9203 71.3782 11.4023 72.6822 11.4023C73.9862 11.4023 75.2367 11.9203 76.1588 12.8424C77.0808 13.7645 77.5988 15.015 77.5988 16.319V16.5403C77.602 17.3313 77.8364 18.1042 78.2732 18.7637C78.71 19.4233 79.3301 19.9407 80.0572 20.2523C80.7986 20.5796 81.6211 20.6772 82.4186 20.5326C83.2161 20.388 83.952 20.0078 84.5313 19.4411L84.6788 19.2936C85.1355 18.8365 85.6777 18.4738 86.2746 18.2264C86.8715 17.979 87.5112 17.8516 88.1574 17.8516C88.8035 17.8516 89.4433 17.979 90.0402 18.2264C90.637 18.4738 91.1793 18.8365 91.6359 19.2936C92.0931 19.7502 92.4557 20.2925 92.7031 20.8893C92.9506 21.4862 93.0779 22.126 93.0779 22.7721C93.0779 23.4183 92.9506 24.0581 92.7031 24.6549C92.4557 25.2518 92.0931 25.7941 91.6359 26.2507L91.4884 26.3982C90.9217 26.9776 90.5415 27.7134 90.3969 28.5109C90.2523 29.3084 90.3499 30.1309 90.6772 30.8723V31.069C90.9888 31.7961 91.5062 32.4162 92.1658 32.853C92.8253 33.2898 93.5982 33.5242 94.3893 33.5273H94.8072C96.1111 33.5273 97.3617 34.0454 98.2838 34.9674C99.2058 35.8895 99.7238 37.14 99.7238 38.444C99.7238 39.748 99.2058 40.9986 98.2838 41.9206C97.3617 42.8427 96.1111 43.3607 94.8072 43.3607H94.5859C93.7949 43.3638 93.022 43.5982 92.3624 44.035C91.7029 44.4718 91.1855 45.0919 90.8738 45.819Z" fill="#4A4891"/>
<path d="M72.6821 45.8193C76.7552 45.8193 80.0571 42.5174 80.0571 38.4443C80.0571 34.3712 76.7552 31.0693 72.6821 31.0693C68.609 31.0693 65.3071 34.3712 65.3071 38.4443C65.3071 42.5174 68.609 45.8193 72.6821 45.8193Z" fill="#1C1B1B"/>
<mask id="path-3-outside-1_109_42" maskUnits="userSpaceOnUse" x="1.92222" y="3.16229" width="139.566" height="68.8919" fill="black">
<rect fill="white" x="1.92222" y="3.16229" width="139.566" height="68.8919"/>
<path d="M22.4639 65.024C21.8531 65.5538 21.1923 66.0182 20.4814 66.4172C19.7705 66.8162 19.0014 67.1582 18.174 67.443C16.9823 67.8534 15.8577 68.0588 14.8003 68.0594C13.7428 68.0599 12.774 67.8537 11.8936 67.4407C11.0133 67.0278 10.2331 66.4096 9.55292 65.5861C8.88263 64.7593 8.33383 63.7254 7.90652 62.4844C7.49278 61.2828 7.30517 60.1301 7.3437 59.0261C7.39207 57.9188 7.64228 56.9017 8.09433 55.9749C8.54638 55.048 9.19058 54.2313 10.0269 53.5247C10.8731 52.8147 11.8921 52.2545 13.0838 51.8442C14.0589 51.5084 14.895 51.2811 15.5922 51.1622C16.2959 51.0301 16.9408 50.9513 17.5269 50.9257L18.7325 54.4271C18.0167 54.332 17.2705 54.3246 16.4939 54.4047C15.7271 54.4814 15.0236 54.63 14.3834 54.8505C13.7137 55.0811 13.1519 55.4012 12.698 55.8109C12.2442 56.2205 11.9045 56.69 11.6792 57.2193C11.4538 57.7486 11.3427 58.3377 11.3458 58.9866C11.3553 59.6223 11.4788 60.2849 11.7162 60.9743C11.9638 61.6933 12.2893 62.3028 12.6928 62.8029C13.0964 63.3029 13.5548 63.6904 14.0681 63.9653C14.5879 64.227 15.151 64.3747 15.7575 64.4082C16.3605 64.4319 16.9871 64.3318 17.6371 64.108C17.9523 63.9995 18.2755 63.8662 18.6066 63.7081C18.9442 63.5368 19.2718 63.3524 19.5894 63.1549C19.9135 62.9441 20.2243 62.7269 20.5218 62.5033C20.8293 62.2763 21.1087 62.0479 21.3601 61.8181L22.4639 65.024ZM38.0466 51.7758C38.4536 52.9577 38.6592 54.0988 38.6634 55.199C38.6643 56.2894 38.47 57.2927 38.0804 58.2091C37.6908 59.1254 37.1042 59.9333 36.3205 60.6329C35.5368 61.3324 34.5589 61.8839 33.3869 62.2875C32.2739 62.6707 31.2232 62.8507 30.2347 62.8275C29.2462 62.8043 28.3364 62.5778 27.5053 62.1478C26.6709 61.708 25.9249 61.0615 25.2676 60.2082C24.6068 59.345 24.0543 58.2684 23.61 56.9781C23.1997 55.7864 22.9941 54.6453 22.9932 53.5549C23.0022 52.4612 23.2031 51.4611 23.5961 50.5546C23.9989 49.6447 24.5938 48.8449 25.3809 48.1553C26.1646 47.4557 27.1327 46.9076 28.285 46.5108C29.4078 46.1242 30.4652 45.9474 31.4571 45.9805C32.4455 46.0036 33.357 46.2351 34.1915 46.6749C35.026 47.1147 35.767 47.7629 36.4145 48.6196C37.0685 49.4631 37.6125 50.5152 38.0466 51.7758ZM34.3246 53.1566C33.7888 51.6004 33.0914 50.535 32.2326 49.9604C31.3801 49.3726 30.3827 49.2754 29.2402 49.6688C28.6098 49.8858 28.1155 50.1937 27.757 50.5926C27.3986 50.9914 27.1512 51.4567 27.0148 51.9884C26.875 52.5103 26.8345 53.0806 26.8933 53.6993C26.962 54.3146 27.1082 54.9473 27.332 55.5974C27.8712 57.1634 28.5934 58.2368 29.4984 58.8175C30.4001 59.3884 31.3975 59.4856 32.4908 59.1092C33.0916 58.9023 33.5729 58.6044 33.9347 58.2154C34.2931 57.8165 34.5373 57.3579 34.6673 56.8394C34.7938 56.3111 34.826 55.7326 34.7638 55.1041C34.7016 54.4755 34.5552 53.8263 34.3246 53.1566ZM52.7416 55.243L49.374 45.4628C48.8077 43.818 47.9139 43.2059 46.6926 43.6264C46.0819 43.8366 45.5807 44.2847 45.1888 44.9704C44.8069 45.6528 44.4514 46.5243 44.1226 47.585L47.3935 57.0845L43.7888 58.3257L38.6204 43.3156L41.7376 42.2423L42.5893 44.4278C42.7624 43.9386 42.9572 43.4804 43.1737 43.0533C43.4 42.6228 43.6679 42.2331 43.9774 41.8842C44.2836 41.5254 44.6379 41.2106 45.0404 40.9398C45.4429 40.669 45.9199 40.4386 46.4715 40.2487C47.2397 39.9842 47.9535 39.8816 48.613 39.941C49.269 39.9905 49.8688 40.1806 50.4123 40.5113C50.9524 40.8321 51.4279 41.2853 51.8389 41.8709C52.2563 42.4432 52.6024 43.1283 52.8771 43.9261L56.3464 54.0018L52.7416 55.243ZM72.7535 48.1871C72.1543 48.5587 71.54 48.9024 70.9107 49.2183C70.2813 49.5341 69.6711 49.7938 69.0802 49.9973C68.0953 50.3364 67.2077 50.5263 66.4175 50.5671C65.6371 50.6044 64.9377 50.4927 64.3191 50.232C63.7104 49.9679 63.1808 49.5498 62.7304 48.9778C62.2865 48.3925 61.9086 47.6468 61.5966 46.7406L59.0734 39.4129L55.0402 40.8016L54.0737 37.9946L58.1069 36.6059L56.7843 32.7647L60.1471 30.5327L61.8003 35.3341L67.636 33.3248L68.6025 36.1318L62.7669 38.1411L65.1985 45.203C65.4935 46.0598 65.9143 46.6421 66.4609 46.9496C67.0041 47.2473 67.7386 47.2368 68.6644 46.918C69.2553 46.7145 69.8146 46.4669 70.3421 46.1751C70.8695 45.8833 71.3427 45.5937 71.7615 45.3062L72.7535 48.1871ZM86.4701 43.6294L85.7048 41.695C85.505 42.1384 85.2819 42.5623 85.0355 42.9666C84.7857 43.361 84.4896 43.7329 84.1472 44.0822C83.8047 44.4315 83.4059 44.745 82.9508 45.0229C82.5089 45.3073 81.9973 45.5495 81.4162 45.7496C80.648 46.0142 79.9343 46.1332 79.2752 46.1068C78.6161 46.0803 78.0201 45.933 77.4871 45.6648C76.9541 45.3967 76.4858 45.0126 76.0823 44.5126C75.6886 44.0091 75.3731 43.4127 75.1357 42.7233C74.8915 42.0141 74.8137 41.3083 74.9023 40.6057C75.0008 39.8998 75.2807 39.225 75.7421 38.5814C76.2134 37.9344 76.8646 37.3301 77.6958 36.7684C78.5369 36.2034 79.5779 35.7073 80.8189 35.28L82.7838 34.6034L82.4735 33.7022C82.3412 33.3181 82.1683 32.992 81.9549 32.724C81.738 32.4461 81.4691 32.2412 81.1483 32.1093C80.8373 31.9741 80.4694 31.9134 80.0446 31.9275C79.6198 31.9416 79.1267 32.0453 78.5653 32.2386C77.6789 32.5438 76.8379 32.9491 76.0424 33.4543C75.2533 33.9464 74.5177 34.5136 73.8356 35.1561L72.8436 32.2753C73.4643 31.7421 74.2102 31.2208 75.0814 30.7115C75.9625 30.1988 76.9103 29.7678 77.9248 29.4185C79.0377 29.0353 80.0304 28.8146 80.9028 28.7566C81.7718 28.6888 82.5353 28.7784 83.1932 29.0256C83.8611 29.2693 84.4283 29.6689 84.895 30.2243C85.3583 30.7699 85.7357 31.4662 86.0274 32.3132L89.5578 42.5662L86.4701 43.6294ZM83.6689 37.174L81.4676 37.932C80.857 38.1422 80.3602 38.3794 79.9774 38.6434C79.5946 38.9074 79.3058 39.1886 79.1111 39.487C78.9164 39.7854 78.8025 40.0946 78.7694 40.4144C78.7428 40.721 78.7821 41.027 78.8872 41.3323C79.0975 41.943 79.4555 42.343 79.9614 42.5324C80.4639 42.7119 81.055 42.6846 81.7345 42.4506C82.2369 42.2777 82.6961 41.9157 83.1123 41.3648C83.5286 40.8139 83.9447 40.0867 84.3607 39.1833L83.6689 37.174ZM105.64 36.3841C105.029 36.9139 104.368 37.3784 103.657 37.7774C102.947 38.1764 102.177 38.5183 101.35 38.8032C100.158 39.2136 99.0338 39.419 97.9764 39.4196C96.9189 39.4201 95.95 39.2139 95.0697 38.8009C94.1894 38.3879 93.4091 37.7697 92.729 36.9463C92.0587 36.1195 91.5099 35.0856 91.0826 33.8446C90.6689 32.643 90.4813 31.4902 90.5198 30.3863C90.5682 29.279 90.8184 28.2619 91.2704 27.335C91.7225 26.4082 92.3667 25.5915 93.203 24.8849C94.0492 24.1749 95.0682 23.6147 96.2599 23.2043C97.235 22.8686 98.0711 22.6413 98.7683 22.5224C99.472 22.3903 100.117 22.3114 100.703 22.2859L101.909 25.7873C101.193 25.6922 100.447 25.6847 99.67 25.7649C98.9032 25.8416 98.1997 25.9902 97.5595 26.2106C96.8897 26.4413 96.3279 26.7614 95.8741 27.1711C95.4202 27.5807 95.0806 28.0502 94.8552 28.5795C94.6299 29.1088 94.5187 29.6979 94.5218 30.3468C94.5314 30.9825 94.6549 31.6451 94.8923 32.3345C95.1399 33.0535 95.4654 33.663 95.8689 34.163C96.2725 34.6631 96.7309 35.0506 97.2442 35.3255C97.764 35.5872 98.3271 35.7348 98.9335 35.7684C99.5366 35.7921 100.163 35.692 100.813 35.4682C101.128 35.3597 101.452 35.2264 101.783 35.0683C102.12 34.8969 102.448 34.7125 102.766 34.515C103.09 34.3043 103.4 34.0871 103.698 33.8635C104.005 33.6364 104.285 33.408 104.536 33.1782L105.64 36.3841ZM122.659 31.0032C122.06 31.3748 121.446 31.7185 120.816 32.0344C120.187 32.3502 119.577 32.6099 118.986 32.8134C118.001 33.1525 117.113 33.3424 116.323 33.3832C115.543 33.4205 114.843 33.3088 114.225 33.0481C113.616 32.784 113.086 32.3659 112.636 31.7939C112.192 31.2086 111.814 30.4629 111.502 29.5568L108.979 22.229L104.946 23.6177L103.979 20.8107L108.013 19.422L106.69 15.5808L110.053 13.3488L111.706 18.1502L117.542 16.1409L118.508 18.9479L112.673 20.9572L115.104 28.0191C115.399 28.8759 115.82 29.4582 116.367 29.7657C116.91 30.0634 117.644 30.0529 118.57 29.7341C119.161 29.5306 119.72 29.283 120.248 28.9912C120.775 28.6994 121.248 28.4098 121.667 28.1224L122.659 31.0032ZM137.824 21.0057C138.119 21.8625 138.18 22.6624 138.006 23.4053C137.839 24.135 137.506 24.8004 137.008 25.4016C136.516 25.9895 135.9 26.5045 135.16 26.9467C134.433 27.3953 133.656 27.762 132.829 28.0469C131.726 28.4267 130.712 28.715 129.789 28.9119C128.868 29.1187 127.98 29.2592 127.124 29.3335L126.005 26.0833C127.063 26.1486 128.081 26.1122 129.058 25.9741C130.041 25.8228 130.942 25.6063 131.759 25.3249C132.705 24.9993 133.358 24.6091 133.719 24.1542C134.087 23.6861 134.188 23.2107 134.022 22.7281C133.944 22.5016 133.823 22.3117 133.66 22.1585C133.497 22.0053 133.249 21.8924 132.916 21.82C132.589 21.7342 132.148 21.6875 131.595 21.6798C131.038 21.6622 130.322 21.6775 129.446 21.7257C128.636 21.7732 127.906 21.7656 127.257 21.7028C126.614 21.6268 126.049 21.4743 125.562 21.2452C125.076 21.0161 124.659 20.7023 124.313 20.3038C123.973 19.8921 123.694 19.3711 123.477 18.7407C123.267 18.1301 123.206 17.5064 123.296 16.8698C123.385 16.2331 123.631 15.6196 124.033 15.0293C124.443 14.4257 125.015 13.865 125.751 13.3471C126.487 12.8293 127.402 12.3821 128.495 12.0057C129.441 11.6801 130.295 11.4411 131.058 11.2886C131.82 11.1361 132.503 11.0224 133.105 10.9472L134.117 13.8872C133.165 13.9065 132.292 13.9925 131.496 14.1453C130.707 14.2849 129.943 14.4818 129.204 14.7362C128.465 14.9905 127.915 15.3286 127.554 15.7506C127.202 16.1691 127.108 16.6148 127.27 17.0875C127.348 17.3141 127.462 17.5007 127.612 17.6475C127.762 17.7942 127.993 17.9072 128.307 17.9865C128.631 18.0624 129.056 18.1142 129.584 18.1419C130.117 18.1564 130.806 18.1397 131.648 18.0919C132.6 18.0397 133.42 18.0547 134.11 18.1368C134.796 18.2091 135.377 18.3615 135.854 18.594C136.34 18.8231 136.74 19.137 137.054 19.5358C137.367 19.9346 137.624 20.4246 137.824 21.0057Z"/>
</mask>
<path d="M22.4639 65.024C21.8531 65.5538 21.1923 66.0182 20.4814 66.4172C19.7705 66.8162 19.0014 67.1582 18.174 67.443C16.9823 67.8534 15.8577 68.0588 14.8003 68.0594C13.7428 68.0599 12.774 67.8537 11.8936 67.4407C11.0133 67.0278 10.2331 66.4096 9.55292 65.5861C8.88263 64.7593 8.33383 63.7254 7.90652 62.4844C7.49278 61.2828 7.30517 60.1301 7.3437 59.0261C7.39207 57.9188 7.64228 56.9017 8.09433 55.9749C8.54638 55.048 9.19058 54.2313 10.0269 53.5247C10.8731 52.8147 11.8921 52.2545 13.0838 51.8442C14.0589 51.5084 14.895 51.2811 15.5922 51.1622C16.2959 51.0301 16.9408 50.9513 17.5269 50.9257L18.7325 54.4271C18.0167 54.332 17.2705 54.3246 16.4939 54.4047C15.7271 54.4814 15.0236 54.63 14.3834 54.8505C13.7137 55.0811 13.1519 55.4012 12.698 55.8109C12.2442 56.2205 11.9045 56.69 11.6792 57.2193C11.4538 57.7486 11.3427 58.3377 11.3458 58.9866C11.3553 59.6223 11.4788 60.2849 11.7162 60.9743C11.9638 61.6933 12.2893 62.3028 12.6928 62.8029C13.0964 63.3029 13.5548 63.6904 14.0681 63.9653C14.5879 64.227 15.151 64.3747 15.7575 64.4082C16.3605 64.4319 16.9871 64.3318 17.6371 64.108C17.9523 63.9995 18.2755 63.8662 18.6066 63.7081C18.9442 63.5368 19.2718 63.3524 19.5894 63.1549C19.9135 62.9441 20.2243 62.7269 20.5218 62.5033C20.8293 62.2763 21.1087 62.0479 21.3601 61.8181L22.4639 65.024ZM38.0466 51.7758C38.4536 52.9577 38.6592 54.0988 38.6634 55.199C38.6643 56.2894 38.47 57.2927 38.0804 58.2091C37.6908 59.1254 37.1042 59.9333 36.3205 60.6329C35.5368 61.3324 34.5589 61.8839 33.3869 62.2875C32.2739 62.6707 31.2232 62.8507 30.2347 62.8275C29.2462 62.8043 28.3364 62.5778 27.5053 62.1478C26.6709 61.708 25.9249 61.0615 25.2676 60.2082C24.6068 59.345 24.0543 58.2684 23.61 56.9781C23.1997 55.7864 22.9941 54.6453 22.9932 53.5549C23.0022 52.4612 23.2031 51.4611 23.5961 50.5546C23.9989 49.6447 24.5938 48.8449 25.3809 48.1553C26.1646 47.4557 27.1327 46.9076 28.285 46.5108C29.4078 46.1242 30.4652 45.9474 31.4571 45.9805C32.4455 46.0036 33.357 46.2351 34.1915 46.6749C35.026 47.1147 35.767 47.7629 36.4145 48.6196C37.0685 49.4631 37.6125 50.5152 38.0466 51.7758ZM34.3246 53.1566C33.7888 51.6004 33.0914 50.535 32.2326 49.9604C31.3801 49.3726 30.3827 49.2754 29.2402 49.6688C28.6098 49.8858 28.1155 50.1937 27.757 50.5926C27.3986 50.9914 27.1512 51.4567 27.0148 51.9884C26.875 52.5103 26.8345 53.0806 26.8933 53.6993C26.962 54.3146 27.1082 54.9473 27.332 55.5974C27.8712 57.1634 28.5934 58.2368 29.4984 58.8175C30.4001 59.3884 31.3975 59.4856 32.4908 59.1092C33.0916 58.9023 33.5729 58.6044 33.9347 58.2154C34.2931 57.8165 34.5373 57.3579 34.6673 56.8394C34.7938 56.3111 34.826 55.7326 34.7638 55.1041C34.7016 54.4755 34.5552 53.8263 34.3246 53.1566ZM52.7416 55.243L49.374 45.4628C48.8077 43.818 47.9139 43.2059 46.6926 43.6264C46.0819 43.8366 45.5807 44.2847 45.1888 44.9704C44.8069 45.6528 44.4514 46.5243 44.1226 47.585L47.3935 57.0845L43.7888 58.3257L38.6204 43.3156L41.7376 42.2423L42.5893 44.4278C42.7624 43.9386 42.9572 43.4804 43.1737 43.0533C43.4 42.6228 43.6679 42.2331 43.9774 41.8842C44.2836 41.5254 44.6379 41.2106 45.0404 40.9398C45.4429 40.669 45.9199 40.4386 46.4715 40.2487C47.2397 39.9842 47.9535 39.8816 48.613 39.941C49.269 39.9905 49.8688 40.1806 50.4123 40.5113C50.9524 40.8321 51.4279 41.2853 51.8389 41.8709C52.2563 42.4432 52.6024 43.1283 52.8771 43.9261L56.3464 54.0018L52.7416 55.243ZM72.7535 48.1871C72.1543 48.5587 71.54 48.9024 70.9107 49.2183C70.2813 49.5341 69.6711 49.7938 69.0802 49.9973C68.0953 50.3364 67.2077 50.5263 66.4175 50.5671C65.6371 50.6044 64.9377 50.4927 64.3191 50.232C63.7104 49.9679 63.1808 49.5498 62.7304 48.9778C62.2865 48.3925 61.9086 47.6468 61.5966 46.7406L59.0734 39.4129L55.0402 40.8016L54.0737 37.9946L58.1069 36.6059L56.7843 32.7647L60.1471 30.5327L61.8003 35.3341L67.636 33.3248L68.6025 36.1318L62.7669 38.1411L65.1985 45.203C65.4935 46.0598 65.9143 46.6421 66.4609 46.9496C67.0041 47.2473 67.7386 47.2368 68.6644 46.918C69.2553 46.7145 69.8146 46.4669 70.3421 46.1751C70.8695 45.8833 71.3427 45.5937 71.7615 45.3062L72.7535 48.1871ZM86.4701 43.6294L85.7048 41.695C85.505 42.1384 85.2819 42.5623 85.0355 42.9666C84.7857 43.361 84.4896 43.7329 84.1472 44.0822C83.8047 44.4315 83.4059 44.745 82.9508 45.0229C82.5089 45.3073 81.9973 45.5495 81.4162 45.7496C80.648 46.0142 79.9343 46.1332 79.2752 46.1068C78.6161 46.0803 78.0201 45.933 77.4871 45.6648C76.9541 45.3967 76.4858 45.0126 76.0823 44.5126C75.6886 44.0091 75.3731 43.4127 75.1357 42.7233C74.8915 42.0141 74.8137 41.3083 74.9023 40.6057C75.0008 39.8998 75.2807 39.225 75.7421 38.5814C76.2134 37.9344 76.8646 37.3301 77.6958 36.7684C78.5369 36.2034 79.5779 35.7073 80.8189 35.28L82.7838 34.6034L82.4735 33.7022C82.3412 33.3181 82.1683 32.992 81.9549 32.724C81.738 32.4461 81.4691 32.2412 81.1483 32.1093C80.8373 31.9741 80.4694 31.9134 80.0446 31.9275C79.6198 31.9416 79.1267 32.0453 78.5653 32.2386C77.6789 32.5438 76.8379 32.9491 76.0424 33.4543C75.2533 33.9464 74.5177 34.5136 73.8356 35.1561L72.8436 32.2753C73.4643 31.7421 74.2102 31.2208 75.0814 30.7115C75.9625 30.1988 76.9103 29.7678 77.9248 29.4185C79.0377 29.0353 80.0304 28.8146 80.9028 28.7566C81.7718 28.6888 82.5353 28.7784 83.1932 29.0256C83.8611 29.2693 84.4283 29.6689 84.895 30.2243C85.3583 30.7699 85.7357 31.4662 86.0274 32.3132L89.5578 42.5662L86.4701 43.6294ZM83.6689 37.174L81.4676 37.932C80.857 38.1422 80.3602 38.3794 79.9774 38.6434C79.5946 38.9074 79.3058 39.1886 79.1111 39.487C78.9164 39.7854 78.8025 40.0946 78.7694 40.4144C78.7428 40.721 78.7821 41.027 78.8872 41.3323C79.0975 41.943 79.4555 42.343 79.9614 42.5324C80.4639 42.7119 81.055 42.6846 81.7345 42.4506C82.2369 42.2777 82.6961 41.9157 83.1123 41.3648C83.5286 40.8139 83.9447 40.0867 84.3607 39.1833L83.6689 37.174ZM105.64 36.3841C105.029 36.9139 104.368 37.3784 103.657 37.7774C102.947 38.1764 102.177 38.5183 101.35 38.8032C100.158 39.2136 99.0338 39.419 97.9764 39.4196C96.9189 39.4201 95.95 39.2139 95.0697 38.8009C94.1894 38.3879 93.4091 37.7697 92.729 36.9463C92.0587 36.1195 91.5099 35.0856 91.0826 33.8446C90.6689 32.643 90.4813 31.4902 90.5198 30.3863C90.5682 29.279 90.8184 28.2619 91.2704 27.335C91.7225 26.4082 92.3667 25.5915 93.203 24.8849C94.0492 24.1749 95.0682 23.6147 96.2599 23.2043C97.235 22.8686 98.0711 22.6413 98.7683 22.5224C99.472 22.3903 100.117 22.3114 100.703 22.2859L101.909 25.7873C101.193 25.6922 100.447 25.6847 99.67 25.7649C98.9032 25.8416 98.1997 25.9902 97.5595 26.2106C96.8897 26.4413 96.3279 26.7614 95.8741 27.1711C95.4202 27.5807 95.0806 28.0502 94.8552 28.5795C94.6299 29.1088 94.5187 29.6979 94.5218 30.3468C94.5314 30.9825 94.6549 31.6451 94.8923 32.3345C95.1399 33.0535 95.4654 33.663 95.8689 34.163C96.2725 34.6631 96.7309 35.0506 97.2442 35.3255C97.764 35.5872 98.3271 35.7348 98.9335 35.7684C99.5366 35.7921 100.163 35.692 100.813 35.4682C101.128 35.3597 101.452 35.2264 101.783 35.0683C102.12 34.8969 102.448 34.7125 102.766 34.515C103.09 34.3043 103.4 34.0871 103.698 33.8635C104.005 33.6364 104.285 33.408 104.536 33.1782L105.64 36.3841ZM122.659 31.0032C122.06 31.3748 121.446 31.7185 120.816 32.0344C120.187 32.3502 119.577 32.6099 118.986 32.8134C118.001 33.1525 117.113 33.3424 116.323 33.3832C115.543 33.4205 114.843 33.3088 114.225 33.0481C113.616 32.784 113.086 32.3659 112.636 31.7939C112.192 31.2086 111.814 30.4629 111.502 29.5568L108.979 22.229L104.946 23.6177L103.979 20.8107L108.013 19.422L106.69 15.5808L110.053 13.3488L111.706 18.1502L117.542 16.1409L118.508 18.9479L112.673 20.9572L115.104 28.0191C115.399 28.8759 115.82 29.4582 116.367 29.7657C116.91 30.0634 117.644 30.0529 118.57 29.7341C119.161 29.5306 119.72 29.283 120.248 28.9912C120.775 28.6994 121.248 28.4098 121.667 28.1224L122.659 31.0032ZM137.824 21.0057C138.119 21.8625 138.18 22.6624 138.006 23.4053C137.839 24.135 137.506 24.8004 137.008 25.4016C136.516 25.9895 135.9 26.5045 135.16 26.9467C134.433 27.3953 133.656 27.762 132.829 28.0469C131.726 28.4267 130.712 28.715 129.789 28.9119C128.868 29.1187 127.98 29.2592 127.124 29.3335L126.005 26.0833C127.063 26.1486 128.081 26.1122 129.058 25.9741C130.041 25.8228 130.942 25.6063 131.759 25.3249C132.705 24.9993 133.358 24.6091 133.719 24.1542C134.087 23.6861 134.188 23.2107 134.022 22.7281C133.944 22.5016 133.823 22.3117 133.66 22.1585C133.497 22.0053 133.249 21.8924 132.916 21.82C132.589 21.7342 132.148 21.6875 131.595 21.6798C131.038 21.6622 130.322 21.6775 129.446 21.7257C128.636 21.7732 127.906 21.7656 127.257 21.7028C126.614 21.6268 126.049 21.4743 125.562 21.2452C125.076 21.0161 124.659 20.7023 124.313 20.3038C123.973 19.8921 123.694 19.3711 123.477 18.7407C123.267 18.1301 123.206 17.5064 123.296 16.8698C123.385 16.2331 123.631 15.6196 124.033 15.0293C124.443 14.4257 125.015 13.865 125.751 13.3471C126.487 12.8293 127.402 12.3821 128.495 12.0057C129.441 11.6801 130.295 11.4411 131.058 11.2886C131.82 11.1361 132.503 11.0224 133.105 10.9472L134.117 13.8872C133.165 13.9065 132.292 13.9925 131.496 14.1453C130.707 14.2849 129.943 14.4818 129.204 14.7362C128.465 14.9905 127.915 15.3286 127.554 15.7506C127.202 16.1691 127.108 16.6148 127.27 17.0875C127.348 17.3141 127.462 17.5007 127.612 17.6475C127.762 17.7942 127.993 17.9072 128.307 17.9865C128.631 18.0624 129.056 18.1142 129.584 18.1419C130.117 18.1564 130.806 18.1397 131.648 18.0919C132.6 18.0397 133.42 18.0547 134.11 18.1368C134.796 18.2091 135.377 18.3615 135.854 18.594C136.34 18.8231 136.74 19.137 137.054 19.5358C137.367 19.9346 137.624 20.4246 137.824 21.0057Z" fill="#C72A80"/>
<path d="M22.4639 65.024L23.1192 65.7794L23.6293 65.3369L23.4094 64.6984L22.4639 65.024ZM9.55292 65.5861L8.77608 66.2159L8.78192 66.223L9.55292 65.5861ZM7.3437 59.0261L6.34461 58.9825L6.34431 58.9912L7.3437 59.0261ZM8.09433 55.9749L7.19554 55.5365L8.09433 55.9749ZM10.0269 53.5247L9.38415 52.7586L9.38154 52.7608L10.0269 53.5247ZM15.5922 51.1622L15.7603 52.148L15.7686 52.1466L15.7768 52.145L15.5922 51.1622ZM17.5269 50.9257L18.4724 50.6002L18.2293 49.8942L17.4833 49.9267L17.5269 50.9257ZM18.7325 54.4271L18.6009 55.4184L20.2048 55.6314L19.678 54.1015L18.7325 54.4271ZM16.4939 54.4047L16.5935 55.3997L16.5965 55.3994L16.4939 54.4047ZM11.3458 58.9866L10.3457 58.9914L10.3459 59.0017L11.3458 58.9866ZM14.0681 63.9653L13.5959 64.8468L13.6071 64.8528L13.6184 64.8585L14.0681 63.9653ZM15.7575 64.4082L15.7022 65.4067L15.7102 65.4071L15.7182 65.4074L15.7575 64.4082ZM18.6066 63.7081L19.0374 64.6105L19.0484 64.6053L19.0592 64.5998L18.6066 63.7081ZM19.5894 63.1549L20.1175 64.0041L20.1261 63.9987L20.1346 63.9932L19.5894 63.1549ZM20.5218 62.5033L19.9277 61.6989L19.921 61.7039L20.5218 62.5033ZM21.3601 61.8181L22.3056 61.4925L21.8097 60.0523L20.6854 61.08L21.3601 61.8181ZM21.8087 64.2686C21.2495 64.7536 20.6443 65.179 19.9919 65.5452L20.9708 67.2892C21.7403 66.8573 22.4568 66.3539 23.1192 65.7794L21.8087 64.2686ZM19.9919 65.5452C19.337 65.9128 18.6232 66.2308 17.8485 66.4975L18.4996 68.3886C19.3795 68.0856 20.204 67.7197 20.9708 67.2892L19.9919 65.5452ZM17.8485 66.4975C16.7418 66.8786 15.7277 67.0589 14.7997 67.0594L14.8008 69.0594C15.9877 69.0588 17.2228 68.8282 18.4996 68.3886L17.8485 66.4975ZM14.7997 67.0594C13.8762 67.0599 13.0543 66.8807 12.3183 66.5354L11.4689 68.3461C12.4936 68.8268 13.6094 69.06 14.8008 69.0594L14.7997 67.0594ZM12.3183 66.5354C11.5846 66.1912 10.9193 65.6701 10.3239 64.9493L8.78192 66.223C9.54685 67.1491 10.442 67.8643 11.4689 68.3461L12.3183 66.5354ZM10.3297 64.9564C9.74791 64.2387 9.24986 63.3142 8.85204 62.1588L6.96101 62.81C7.4178 64.1366 8.01736 65.2799 8.77611 66.2159L10.3297 64.9564ZM8.85204 62.1588C8.47226 61.0559 8.30943 60.0255 8.34309 59.061L6.34431 58.9912C6.30092 60.2346 6.5133 61.5098 6.96101 62.81L8.85204 62.1588ZM8.34275 59.0698C8.38559 58.0891 8.60562 57.2078 8.99313 56.4132L7.19554 55.5365C6.67895 56.5957 6.39856 57.7485 6.34465 58.9825L8.34275 59.0698ZM8.99313 56.4132C9.38052 55.619 9.93546 54.9111 10.6723 54.2886L9.38154 52.7608C8.44569 53.5515 7.71223 54.4771 7.19554 55.5365L8.99313 56.4132ZM10.6697 54.2908C11.4098 53.6698 12.3173 53.1657 13.4094 52.7897L12.7583 50.8986C11.4669 51.3433 10.3365 51.9596 9.38415 52.7586L10.6697 54.2908ZM13.4094 52.7897C14.3542 52.4644 15.1348 52.2547 15.7603 52.148L15.4241 50.1764C14.6553 50.3075 13.7636 50.5525 12.7583 50.8986L13.4094 52.7897ZM15.7768 52.145C16.4436 52.0198 17.0406 51.9479 17.5704 51.9248L17.4833 49.9267C16.8409 49.9547 16.1482 50.0404 15.4077 50.1794L15.7768 52.145ZM16.5814 51.2513L17.787 54.7527L19.678 54.1015L18.4724 50.6002L16.5814 51.2513ZM18.8642 53.4358C18.0647 53.3296 17.2396 53.3225 16.3912 53.41L16.5965 55.3994C17.3015 55.3267 17.9688 55.3344 18.6009 55.4184L18.8642 53.4358ZM16.3943 53.4097C15.5609 53.4931 14.7804 53.6561 14.0578 53.9049L14.709 55.796C15.2668 55.6039 15.8933 55.4698 16.5935 55.3997L16.3943 53.4097ZM14.0578 53.9049C13.2807 54.1725 12.5964 54.5555 12.028 55.0686L13.368 56.5532C13.7073 56.2469 14.1466 55.9896 14.709 55.796L14.0578 53.9049ZM12.028 55.0686C11.4732 55.5693 11.0449 56.1563 10.7591 56.8275L12.5992 57.6111C12.7642 57.2237 13.0151 56.8718 13.368 56.5532L12.028 55.0686ZM10.7591 56.8275C10.4739 57.4973 10.3421 58.2237 10.3458 58.9914L12.3458 58.9819C12.3432 58.4518 12.4337 57.9999 12.5992 57.6111L10.7591 56.8275ZM10.3459 59.0017C10.3572 59.7573 10.5038 60.5249 10.7707 61.2999L12.6617 60.6488C12.4538 60.0449 12.3534 59.4873 12.3456 58.9716L10.3459 59.0017ZM10.7707 61.2999C11.0493 62.109 11.4262 62.8256 11.9146 63.4309L13.471 62.1749C13.1524 61.78 12.8783 61.2777 12.6617 60.6488L10.7707 61.2999ZM11.9146 63.4309C12.3935 64.0242 12.953 64.5025 13.5959 64.8468L14.5403 63.0838C14.1566 62.8783 13.7993 62.5816 13.471 62.1749L11.9146 63.4309ZM13.6184 64.8585C14.2664 65.1848 14.9646 65.3659 15.7022 65.4067L15.8127 63.4097C15.3374 63.3834 14.9094 63.2693 14.5178 63.0722L13.6184 64.8585ZM15.7182 65.4074C16.4612 65.4366 17.2116 65.3122 17.9627 65.0535L17.3116 63.1625C16.7626 63.3515 16.2599 63.4272 15.7967 63.409L15.7182 65.4074ZM17.9627 65.0535C18.3171 64.9315 18.6754 64.7834 19.0374 64.6105L18.1758 62.8057C17.8755 62.949 17.5875 63.0675 17.3116 63.1625L17.9627 65.0535ZM19.0592 64.5998C19.4222 64.4156 19.7751 64.217 20.1175 64.0041L19.0614 62.3057C18.7686 62.4877 18.4662 62.6579 18.1541 62.8164L19.0592 64.5998ZM20.1346 63.9932C20.4769 63.7706 20.8063 63.5404 21.1227 63.3027L19.921 61.7039C19.6422 61.9134 19.35 62.1177 19.0443 62.3165L20.1346 63.9932ZM21.1159 63.3077C21.448 63.0624 21.7548 62.8121 22.0347 62.5562L20.6854 61.08C20.4626 61.2836 20.2105 61.4901 19.9278 61.6989L21.1159 63.3077ZM20.4145 62.1436L21.5184 65.3495L23.4094 64.6984L22.3056 61.4925L20.4145 62.1436ZM38.6634 55.199L39.6634 55.1982L39.6634 55.1952L38.6634 55.199ZM27.5053 62.1478L27.0391 63.0325L27.0459 63.036L27.5053 62.1478ZM25.2676 60.2082L24.4735 60.8161L24.4754 60.8185L25.2676 60.2082ZM22.9932 53.5549L21.9932 53.5467L21.9932 53.5557L22.9932 53.5549ZM23.5961 50.5546L22.6817 50.1497L22.6786 50.1568L23.5961 50.5546ZM25.3809 48.1553L26.04 48.9074L26.0468 48.9013L25.3809 48.1553ZM31.4571 45.9805L31.4238 46.9799L31.4336 46.9802L31.4571 45.9805ZM36.4145 48.6196L35.6167 49.2227L35.6242 49.2324L36.4145 48.6196ZM32.2326 49.9604L31.6648 50.7837L31.6765 50.7916L32.2326 49.9604ZM27.0148 51.9884L27.9808 52.2472L27.9834 52.2369L27.0148 51.9884ZM26.8933 53.6993L25.8978 53.7939L25.8986 53.8021L25.8995 53.8102L26.8933 53.6993ZM29.4984 58.8175L28.9584 59.6592L28.9635 59.6624L29.4984 58.8175ZM33.9347 58.2154L34.6669 58.8965L34.6728 58.8902L34.6785 58.8838L33.9347 58.2154ZM34.6673 56.8394L35.6373 57.0826L35.6398 57.0724L34.6673 56.8394ZM37.1011 52.1014C37.4772 53.1937 37.6597 54.226 37.6634 55.2029L39.6634 55.1952C39.6587 53.9717 39.4299 52.7218 38.9921 51.4503L37.1011 52.1014ZM37.6634 55.1998C37.6642 56.1684 37.4921 57.0368 37.1601 57.8178L39.0007 58.6003C39.4478 57.5487 39.6644 56.4104 39.6634 55.1982L37.6634 55.1998ZM37.1601 57.8178C36.8313 58.5912 36.3346 59.2799 35.6546 59.8868L36.9864 61.3789C37.8738 60.5868 38.5503 59.6597 39.0007 58.6003L37.1601 57.8178ZM35.6546 59.8868C34.9861 60.4835 34.13 60.974 33.0613 61.342L33.7124 63.233C34.9878 62.7938 36.0875 62.1813 36.9864 61.3789L35.6546 59.8868ZM33.0613 61.342C32.0397 61.6937 31.1078 61.8477 30.2582 61.8278L30.2112 63.8272C31.3386 63.8537 32.5081 63.6477 33.7124 63.233L33.0613 61.342ZM30.2582 61.8278C29.4128 61.808 28.6533 61.6158 27.9648 61.2596L27.0459 63.036C28.0196 63.5397 29.0797 63.8007 30.2112 63.8272L30.2582 61.8278ZM27.9716 61.2632C27.2811 60.8993 26.6419 60.3535 26.0597 59.5979L24.4754 60.8185C25.208 61.7695 26.0607 62.5168 27.0391 63.0325L27.9716 61.2632ZM26.0616 59.6003C25.4804 58.8411 24.9733 57.8659 24.5555 56.6525L22.6645 57.3037C23.1352 58.6708 23.7332 59.849 24.4735 60.8161L26.0616 59.6003ZM24.5555 56.6525C24.1757 55.5493 23.994 54.5183 23.9932 53.5541L21.9932 53.5557C21.9942 54.7724 22.2237 56.0234 22.6645 57.3037L24.5555 56.6525ZM23.9932 53.5631C24.0012 52.589 24.1794 51.7232 24.5136 50.9523L22.6786 50.1568C22.2269 51.1989 22.0032 52.3333 21.9932 53.5467L23.9932 53.5631ZM24.5105 50.9594C24.8514 50.1893 25.3564 49.5063 26.04 48.9074L24.7219 47.4031C23.8312 48.1835 23.1464 49.1001 22.6817 50.1498L24.5105 50.9594ZM26.0468 48.9013C26.7169 48.3032 27.5639 47.8167 28.6106 47.4563L27.9595 45.5653C26.7014 45.9985 25.6124 46.6083 24.715 47.4092L26.0468 48.9013ZM28.6106 47.4563C29.6402 47.1018 30.5752 46.9516 31.4238 46.9799L31.4903 44.981C30.3552 44.9432 29.1755 45.1466 27.9595 45.5653L28.6106 47.4563ZM31.4336 46.9802C32.2752 46.9999 33.0341 47.1953 33.7253 47.5596L34.6577 45.7903C33.6799 45.2749 32.6158 45.0074 31.4805 44.9807L31.4336 46.9802ZM33.7253 47.5596C34.413 47.922 35.0454 48.4668 35.6167 49.2226L37.2123 48.0167C36.4885 47.0591 35.6389 46.3074 34.6577 45.7903L33.7253 47.5596ZM35.6242 49.2324C36.1967 49.9708 36.6941 50.9196 37.1011 52.1014L38.9921 51.4503C38.5309 50.1107 37.9402 48.9554 37.2048 48.0069L35.6242 49.2324ZM35.2701 52.831C34.7023 51.1821 33.9085 49.8785 32.7886 49.1293L31.6765 50.7916C32.2743 51.1915 32.8752 52.0188 33.3791 53.4822L35.2701 52.831ZM32.8003 49.1372C31.6404 48.3374 30.3004 48.2461 28.9146 48.7232L29.5658 50.6143C30.465 50.3046 31.1199 50.4078 31.6648 50.7837L32.8003 49.1372ZM28.9146 48.7232C28.1622 48.9823 27.5097 49.3717 27.0133 49.9242L28.5008 51.261C28.7212 51.0158 29.0575 50.7893 29.5658 50.6143L28.9146 48.7232ZM27.0133 49.9242C26.5445 50.4457 26.2216 51.056 26.0461 51.7399L27.9834 52.2369C28.0808 51.8574 28.2527 51.5371 28.5008 51.261L27.0133 49.9242ZM26.0488 51.7297C25.8739 52.3825 25.8294 53.0742 25.8978 53.7939L27.8888 53.6047C27.8396 53.087 27.876 52.638 27.9807 52.2472L26.0488 51.7297ZM25.8995 53.8102C25.9771 54.5062 26.1413 55.2109 26.3865 55.9229L28.2775 55.2718C28.0751 54.6838 27.9468 54.1231 27.8871 53.5884L25.8995 53.8102ZM26.3865 55.9229C26.9615 57.5929 27.7857 58.9067 28.9584 59.6591L30.0385 57.9759C29.401 57.5668 28.781 56.7339 28.2775 55.2718L26.3865 55.9229ZM28.9635 59.6624C30.1454 60.4107 31.4633 60.5206 32.8164 60.0547L32.1652 58.1637C31.3317 58.4506 30.6548 58.3661 30.0334 57.9726L28.9635 59.6624ZM32.8164 60.0547C33.5421 59.8048 34.1734 59.4271 34.6669 58.8965L33.2025 57.5343C32.9724 57.7817 32.6411 57.9998 32.1652 58.1637L32.8164 60.0547ZM34.6785 58.8838C35.1455 58.3642 35.4676 57.7596 35.6373 57.0825L33.6973 56.5963C33.6071 56.9562 33.4408 57.2689 33.1909 57.547L34.6785 58.8838ZM35.6398 57.0724C35.7961 56.4196 35.8304 55.7275 35.759 55.0056L33.7687 55.2025C33.8216 55.7378 33.7915 56.2026 33.6948 56.6065L35.6398 57.0724ZM35.759 55.0056C35.6882 54.291 35.523 53.5655 35.2701 52.831L33.3791 53.4822C33.5874 54.0871 33.715 54.66 33.7687 55.2025L35.759 55.0056ZM52.7416 55.243L51.7961 55.5686L52.1217 56.5141L53.0672 56.1885L52.7416 55.243ZM45.1888 44.9704L44.3206 44.4743L44.3163 44.482L45.1888 44.9704ZM44.1226 47.585L43.1675 47.2889L43.0706 47.6013L43.1771 47.9106L44.1226 47.585ZM47.3935 57.0845L47.7191 58.03L48.6646 57.7045L48.3391 56.7589L47.3935 57.0845ZM43.7888 58.3257L42.8432 58.6513L43.1688 59.5968L44.1143 59.2713L43.7888 58.3257ZM38.6204 43.3156L38.2948 42.3701L37.3493 42.6957L37.6748 43.6412L38.6204 43.3156ZM41.7376 42.2423L42.6694 41.8792L42.3205 40.9839L41.412 41.2967L41.7376 42.2423ZM42.5893 44.4278L41.6576 44.7909L42.6347 47.2983L43.5321 44.7613L42.5893 44.4278ZM43.1737 43.0533L42.2885 42.5879L42.2851 42.5945L42.2817 42.6012L43.1737 43.0533ZM43.9774 41.8842L44.7256 42.5477L44.7319 42.5405L44.7382 42.5332L43.9774 41.8842ZM48.613 39.941L48.5233 40.937L48.5305 40.9376L48.5377 40.9382L48.613 39.941ZM50.4123 40.5113L49.8925 41.3656L49.9016 41.371L50.4123 40.5113ZM51.8389 41.8709L51.0204 42.4453L51.0256 42.4528L51.0309 42.4601L51.8389 41.8709ZM56.3464 54.0018L56.672 54.9473L57.6175 54.6217L57.2919 53.6762L56.3464 54.0018ZM53.6872 54.9174L50.3196 45.1372L48.4285 45.7884L51.7961 55.5686L53.6872 54.9174ZM50.3196 45.1372C50.0056 44.2254 49.5465 43.4262 48.844 42.945C48.0841 42.4246 47.2119 42.3899 46.367 42.6809L47.0181 44.5719C47.3945 44.4423 47.5799 44.5034 47.7139 44.5951C47.9051 44.7261 48.1761 45.0554 48.4285 45.7884L50.3196 45.1372ZM46.367 42.6809C45.4786 42.9867 44.8048 43.6269 44.3206 44.4743L46.0571 45.4665C46.3566 44.9424 46.6852 44.6865 47.0181 44.5719L46.367 42.6809ZM44.3163 44.482C43.8892 45.2449 43.5091 46.1868 43.1675 47.2889L45.0777 47.8811C45.3938 46.8618 45.7245 46.0607 46.0614 45.4589L44.3163 44.482ZM43.1771 47.9106L46.448 57.4101L48.3391 56.7589L45.0681 47.2594L43.1771 47.9106ZM47.068 56.139L43.4632 57.3802L44.1143 59.2713L47.7191 58.03L47.068 56.139ZM44.7343 58.0002L39.5659 42.9901L37.6748 43.6412L42.8432 58.6513L44.7343 58.0002ZM38.9459 44.2611L42.0632 43.1878L41.412 41.2967L38.2948 42.3701L38.9459 44.2611ZM40.8059 42.6054L41.6576 44.7909L43.5211 44.0647L42.6694 41.8792L40.8059 42.6054ZM43.5321 44.7613C43.6919 44.3093 43.8701 43.8911 44.0656 43.5054L42.2817 42.6012C42.0442 43.0697 41.8328 43.5678 41.6466 44.0943L43.5321 44.7613ZM44.0588 43.5187C44.2492 43.1565 44.4718 42.8339 44.7256 42.5477L43.2293 41.2206C42.8641 41.6324 42.5508 42.0891 42.2885 42.5879L44.0588 43.5187ZM44.7382 42.5332C44.9836 42.2455 45.2693 41.991 45.5986 41.7695L44.4822 40.1101C44.0064 40.4301 43.5835 40.8052 43.2167 41.2351L44.7382 42.5332ZM45.5986 41.7695C45.9161 41.5559 46.3117 41.3613 46.7971 41.1942L46.1459 39.3032C45.5281 39.5159 44.9697 39.7821 44.4822 40.1101L45.5986 41.7695ZM46.7971 41.1942C47.4615 40.9654 48.0324 40.8928 48.5233 40.937L48.7027 38.945C47.8747 38.8705 47.0179 39.0029 46.1459 39.3032L46.7971 41.1942ZM48.5377 40.9382C49.0419 40.9762 49.4885 41.1198 49.8926 41.3656L50.932 39.6569C50.249 39.2414 49.4961 39.0048 48.6883 38.9438L48.5377 40.9382ZM49.9016 41.371C50.3043 41.6102 50.6794 41.9595 51.0204 42.4453L52.6575 41.2964C52.1765 40.6111 51.6005 40.0539 50.9229 39.6515L49.9016 41.371ZM51.0309 42.4601C51.3797 42.9383 51.6833 43.5307 51.9316 44.2517L53.8226 43.6005C53.5215 42.7259 53.133 41.9482 52.6469 41.2816L51.0309 42.4601ZM51.9316 44.2517L55.4009 54.3273L57.2919 53.6762L53.8226 43.6005L51.9316 44.2517ZM56.0209 53.0563L52.4161 54.2975L53.0672 56.1885L56.672 54.9473L56.0209 53.0563ZM72.7535 48.1871L73.2805 49.037L73.9589 48.6163L73.699 47.8616L72.7535 48.1871ZM66.4175 50.5671L66.4653 51.5659L66.469 51.5658L66.4175 50.5671ZM64.3191 50.232L63.921 51.1494L63.9307 51.1535L64.3191 50.232ZM62.7304 48.9778L61.9337 49.582L61.9391 49.5892L61.9447 49.5963L62.7304 48.9778ZM59.0734 39.4129L60.019 39.0873L59.6934 38.1418L58.7479 38.4674L59.0734 39.4129ZM55.0402 40.8016L54.0947 41.1272L54.4203 42.0727L55.3658 41.7471L55.0402 40.8016ZM54.0737 37.9946L53.7481 37.0491L52.8026 37.3747L53.1282 38.3202L54.0737 37.9946ZM58.1069 36.6059L58.4325 37.5514L59.378 37.2258L59.0524 36.2803L58.1069 36.6059ZM56.7843 32.7647L56.2313 31.9315L55.587 32.3591L55.8388 33.0903L56.7843 32.7647ZM60.1471 30.5327L61.0926 30.2071L60.6715 28.9843L59.594 29.6995L60.1471 30.5327ZM61.8003 35.3341L60.8548 35.6597L61.1804 36.6052L62.1259 36.2796L61.8003 35.3341ZM67.636 33.3248L68.5815 32.9992L68.2559 32.0537L67.3104 32.3792L67.636 33.3248ZM68.6025 36.1318L68.9281 37.0773L69.8736 36.7517L69.548 35.8062L68.6025 36.1318ZM62.7669 38.1411L62.4413 37.1956L61.4958 37.5212L61.8214 38.4667L62.7669 38.1411ZM66.4609 46.9496L65.9705 47.8212L65.9803 47.8265L66.4609 46.9496ZM71.7615 45.3062L72.707 44.9807L72.2792 43.7381L71.1957 44.4817L71.7615 45.3062ZM72.2265 47.3373C71.6527 47.693 71.0647 48.0221 70.4621 48.3245L71.3592 50.112C72.0154 49.7827 72.6559 49.4243 73.2805 49.037L72.2265 47.3373ZM70.4621 48.3245C69.8676 48.6229 69.2986 48.8645 68.7546 49.0518L69.4058 50.9428C70.0437 50.7231 70.695 50.4454 71.3592 50.112L70.4621 48.3245ZM68.7546 49.0518C67.8319 49.3695 67.0387 49.5337 66.366 49.5684L66.469 51.5658C67.3767 51.519 68.3586 51.3034 69.4058 50.9428L68.7546 49.0518ZM66.3697 49.5682C65.7143 49.5996 65.1674 49.5044 64.7075 49.3105L63.9307 51.1535C64.7079 51.4811 65.56 51.6093 66.4653 51.5659L66.3697 49.5682ZM64.7171 49.3146C64.2748 49.1227 63.8742 48.814 63.5162 48.3592L61.9447 49.5963C62.4874 50.2856 63.1459 50.8131 63.9211 51.1494L64.7171 49.3146ZM63.5272 48.3735C63.1635 47.8939 62.8295 47.2498 62.5421 46.4151L60.6511 47.0662C60.9877 48.0438 61.4096 48.8911 61.9337 49.582L63.5272 48.3735ZM62.5421 46.4151L60.019 39.0873L58.1279 39.7384L60.6511 47.0662L62.5421 46.4151ZM58.7479 38.4674L54.7146 39.8561L55.3658 41.7471L59.399 40.3584L58.7479 38.4674ZM55.9857 40.4761L55.0192 37.6691L53.1282 38.3202L54.0947 41.1272L55.9857 40.4761ZM54.3992 38.9401L58.4325 37.5514L57.7813 35.6604L53.7481 37.0491L54.3992 38.9401ZM59.0524 36.2803L57.7298 32.4391L55.8388 33.0903L57.1614 36.9314L59.0524 36.2803ZM57.3373 33.5979L60.7001 31.3658L59.594 29.6995L56.2313 31.9315L57.3373 33.5979ZM59.2015 30.8582L60.8548 35.6597L62.7459 35.0086L61.0926 30.2071L59.2015 30.8582ZM62.1259 36.2796L67.9615 34.2703L67.3104 32.3792L61.4748 34.3886L62.1259 36.2796ZM66.6904 33.6503L67.657 36.4573L69.548 35.8062L68.5815 32.9992L66.6904 33.6503ZM68.2769 35.1862L62.4413 37.1956L63.0924 39.0866L68.9281 37.0773L68.2769 35.1862ZM61.8214 38.4667L64.2529 45.5285L66.144 44.8774L63.7124 37.8156L61.8214 38.4667ZM64.2529 45.5285C64.5927 46.5154 65.1325 47.3496 65.9705 47.8211L66.9513 46.0781C66.6962 45.9346 66.3943 45.6043 66.144 44.8774L64.2529 45.5285ZM65.9803 47.8265C66.883 48.3213 67.9496 48.2217 68.99 47.8635L68.3388 45.9725C67.5275 46.2518 67.1252 46.1734 66.9415 46.0727L65.9803 47.8265ZM68.99 47.8635C69.6337 47.6419 70.2461 47.371 70.8261 47.0501L69.858 45.3001C69.383 45.5628 68.877 45.7872 68.3388 45.9725L68.99 47.8635ZM70.8261 47.0501C71.3766 46.7456 71.8778 46.4393 72.3274 46.1308L71.1957 44.4817C70.8076 44.7481 70.3624 45.021 69.858 45.3001L70.8261 47.0501ZM70.816 45.6318L71.808 48.5127L73.699 47.8616L72.707 44.9807L70.816 45.6318ZM86.4701 43.6294L85.5402 43.9972L85.8918 44.8861L86.7956 44.5749L86.4701 43.6294ZM85.7048 41.695L86.6347 41.3271L85.7649 39.1283L84.7932 41.2841L85.7048 41.695ZM85.0355 42.9666L85.8804 43.5015L85.885 43.4943L85.8894 43.4869L85.0355 42.9666ZM82.9508 45.0229L82.4297 44.1695L82.4196 44.1756L82.4096 44.182L82.9508 45.0229ZM76.0823 44.5126L75.2945 45.1286L75.2993 45.1346L75.3041 45.1406L76.0823 44.5126ZM74.9023 40.6057L73.9118 40.4676L73.9102 40.4806L74.9023 40.6057ZM75.7421 38.5814L74.9338 37.9926L74.9294 37.9988L75.7421 38.5814ZM77.6958 36.7684L77.1382 35.9384L77.136 35.9399L77.6958 36.7684ZM82.7838 34.6034L83.1093 35.5489L84.0549 35.2233L83.7293 34.2778L82.7838 34.6034ZM81.9549 32.724L81.1665 33.3393L81.1727 33.347L81.9549 32.724ZM81.1483 32.1093L80.7494 33.0263L80.7587 33.0304L80.7681 33.0342L81.1483 32.1093ZM76.0424 33.4543L76.5715 34.3029L76.5785 34.2984L76.0424 33.4543ZM73.8356 35.1561L72.8901 35.4817L73.3941 36.9456L74.5212 35.8841L73.8356 35.1561ZM72.8436 32.2753L72.192 31.5167L71.6771 31.959L71.8981 32.6008L72.8436 32.2753ZM75.0814 30.7115L74.5785 29.8472L74.5768 29.8482L75.0814 30.7115ZM80.9028 28.7566L80.9691 29.7545L80.9806 29.7536L80.9028 28.7566ZM83.1932 29.0256L82.8416 29.9617L82.8503 29.9649L83.1932 29.0256ZM84.895 30.2243L84.1294 30.8676L84.1327 30.8716L84.895 30.2243ZM89.5578 42.5662L89.8833 43.5117L90.8288 43.1861L90.5033 42.2406L89.5578 42.5662ZM83.6689 37.174L84.6144 36.8485L84.2889 35.9029L83.3433 36.2285L83.6689 37.174ZM78.7694 40.4144L77.7748 40.3115L77.7739 40.3197L77.7732 40.3279L78.7694 40.4144ZM79.9614 42.5324L79.6108 43.4689L79.6179 43.4715L79.625 43.4741L79.9614 42.5324ZM84.3607 39.1833L85.2691 39.6015L85.4369 39.2371L85.3063 38.8577L84.3607 39.1833ZM87.3999 43.2615L86.6347 41.3271L84.775 42.0628L85.5402 43.9972L87.3999 43.2615ZM84.7932 41.2841C84.6098 41.6908 84.4059 42.0781 84.1815 42.4462L85.8894 43.4869C86.1579 43.0464 86.4001 42.5859 86.6165 42.1059L84.7932 41.2841ZM84.1906 42.4316C83.9803 42.7638 83.7286 43.0807 83.4331 43.3821L84.8612 44.7823C85.2506 44.3851 85.5912 43.9583 85.8804 43.5015L84.1906 42.4316ZM83.4331 43.3821C83.1534 43.6674 82.8207 43.9307 82.4297 44.1695L83.4719 45.8764C83.9911 45.5594 84.4561 45.1955 84.8612 44.7823L83.4331 43.3821ZM82.4096 44.182C82.0454 44.4164 81.6084 44.6258 81.0907 44.8041L81.7418 46.6951C82.3863 46.4732 82.9724 46.1982 83.4919 45.8639L82.4096 44.182ZM81.0907 44.8041C80.4136 45.0372 79.8252 45.128 79.3153 45.1076L79.2352 47.1059C80.0435 47.1384 80.8824 46.9911 81.7418 46.6951L81.0907 44.8041ZM79.3153 45.1076C78.7835 45.0862 78.3293 44.9691 77.9365 44.7715L77.0376 46.5582C77.7109 46.8969 78.4488 47.0744 79.2352 47.1059L79.3153 45.1076ZM77.9365 44.7715C77.5403 44.5722 77.1815 44.2824 76.8605 43.8845L75.3041 45.1406C75.7901 45.7428 76.3678 46.2212 77.0376 46.5582L77.9365 44.7715ZM76.87 43.8965C76.5536 43.4919 76.2875 42.9968 76.0812 42.3977L74.1901 43.0488C74.4586 43.8286 74.8236 44.5264 75.2945 45.1286L76.87 43.8965ZM76.0812 42.3977C75.8838 41.8245 75.8261 41.2726 75.8944 40.7309L73.9102 40.4806C73.8013 41.3439 73.8992 42.2038 74.1901 43.0488L76.0812 42.3977ZM75.8927 40.7439C75.9664 40.2155 76.1771 39.6909 76.5548 39.1641L74.9294 37.9988C74.3843 38.7591 74.0351 39.5841 73.9119 40.4676L75.8927 40.7439ZM76.5504 39.1702C76.9386 38.6372 77.4973 38.1095 78.2557 37.597L77.136 35.9399C76.232 36.5507 75.4882 37.2316 74.9338 37.9926L76.5504 39.1702ZM78.2535 37.5985C79.0049 37.0937 79.9627 36.6324 81.1444 36.2255L80.4933 34.3344C79.193 34.7822 78.0688 35.3132 77.1382 35.9384L78.2535 37.5985ZM81.1444 36.2255L83.1093 35.5489L82.4582 33.6579L80.4933 34.3344L81.1444 36.2255ZM83.7293 34.2778L83.419 33.3766L81.5279 34.0278L81.8383 34.929L83.7293 34.2778ZM83.419 33.3766C83.2563 32.9043 83.0333 32.4729 82.7371 32.101L81.1727 33.347C81.3033 33.5111 81.4261 33.7319 81.5279 34.0278L83.419 33.3766ZM82.7432 32.1087C82.4213 31.6963 82.0127 31.3835 81.5285 31.1845L80.7681 33.0342C80.9256 33.099 81.0547 33.196 81.1665 33.3392L82.7432 32.1087ZM81.5472 31.1924C81.0702 30.9848 80.5481 30.9103 80.0115 30.9281L80.0777 32.927C80.3907 32.9166 80.6045 32.9633 80.7494 33.0263L81.5472 31.1924ZM80.0115 30.9281C79.4563 30.9465 78.861 31.0791 78.2397 31.2931L78.8909 33.1841C79.3924 33.0114 79.7833 32.9367 80.0777 32.927L80.0115 30.9281ZM78.2397 31.2931C77.279 31.6239 76.3674 32.0632 75.5062 32.6102L76.5785 34.2984C77.3084 33.8349 78.0787 33.4637 78.8909 33.1841L78.2397 31.2931ZM75.5133 32.6058C74.6678 33.133 73.8798 33.7408 73.15 34.4282L74.5212 35.8841C75.1557 35.2865 75.8389 34.7597 76.5715 34.3029L75.5133 32.6058ZM74.7811 34.8306L73.7891 31.9497L71.8981 32.6008L72.8901 35.4817L74.7811 34.8306ZM73.4953 33.0338C74.0611 32.5477 74.7554 32.0604 75.5861 31.5748L74.5768 29.8482C73.665 30.3812 72.8675 30.9364 72.192 31.5167L73.4953 33.0338ZM75.5844 31.5758C76.4063 31.0976 77.2943 30.6932 78.2503 30.364L77.5992 28.473C76.5263 28.8424 75.5188 29.3 74.5785 29.8472L75.5844 31.5758ZM78.2503 30.364C79.3064 30.0003 80.2095 29.8049 80.9691 29.7544L80.8364 27.7588C79.8512 27.8243 78.769 28.0702 77.5992 28.473L78.2503 30.364ZM80.9806 29.7536C81.7379 29.6944 82.3494 29.7768 82.8416 29.9617L83.5449 28.0894C82.7211 27.78 81.8056 27.6831 80.8249 27.7597L80.9806 29.7536ZM82.8503 29.9649C83.3503 30.1474 83.7729 30.4433 84.1294 30.8676L85.6606 29.5811C85.0838 28.8945 84.3718 28.3912 83.5361 28.0862L82.8503 29.9649ZM84.1327 30.8716C84.498 31.3017 84.8209 31.881 85.0819 32.6388L86.9729 31.9877C86.6505 31.0514 86.2185 30.2381 85.6572 29.5771L84.1327 30.8716ZM85.0819 32.6388L88.6122 42.8918L90.5033 42.2406L86.9729 31.9877L85.0819 32.6388ZM89.2322 41.6207L86.1445 42.6839L86.7956 44.5749L89.8833 43.5117L89.2322 41.6207ZM83.3433 36.2285L81.1421 36.9865L81.7932 38.8775L83.9945 38.1195L83.3433 36.2285ZM81.1421 36.9865C80.4762 37.2158 79.89 37.489 79.4097 37.8202L80.5452 39.4666C80.8305 39.2698 81.2378 39.0687 81.7932 38.8775L81.1421 36.9865ZM79.4097 37.8202C78.9509 38.1366 78.5575 38.5056 78.2737 38.9406L79.9486 40.0335C80.0542 39.8717 80.2383 39.6782 80.5452 39.4666L79.4097 37.8202ZM78.2737 38.9406C78.0015 39.3576 77.8259 39.8169 77.7748 40.3115L79.7641 40.5173C79.7791 40.3722 79.8313 40.2133 79.9486 40.0335L78.2737 38.9406ZM77.7732 40.3279C77.7339 40.7808 77.7933 41.2269 77.9417 41.6579L79.8327 41.0068C79.7709 40.8271 79.7518 40.6613 79.7657 40.5009L77.7732 40.3279ZM77.9417 41.6579C78.2281 42.4897 78.7701 43.1542 79.6108 43.4689L80.312 41.5958C80.141 41.5318 79.9668 41.3963 79.8327 41.0068L77.9417 41.6579ZM79.625 43.4741C80.4051 43.7528 81.2401 43.6785 82.0601 43.3962L81.409 41.5051C80.8698 41.6908 80.5227 41.671 80.2979 41.5907L79.625 43.4741ZM82.0601 43.3962C82.7994 43.1416 83.4097 42.6301 83.9102 41.9676L82.3144 40.762C81.9825 41.2013 81.6743 41.4138 81.409 41.5051L82.0601 43.3962ZM83.9102 41.9676C84.3841 41.3403 84.8349 40.5443 85.2691 39.6015L83.4524 38.765C83.0545 39.629 82.673 40.2874 82.3144 40.762L83.9102 41.9676ZM85.3063 38.8577L84.6144 36.8485L82.7234 37.4996L83.4152 39.5088L85.3063 38.8577ZM105.64 36.3841L106.295 37.1396L106.805 36.6971L106.586 36.0586L105.64 36.3841ZM92.729 36.9463L91.9522 37.5761L91.958 37.5831L92.729 36.9463ZM90.5198 30.3863L89.5207 30.3426L89.5204 30.3514L90.5198 30.3863ZM91.2704 27.335L90.3716 26.8967L91.2704 27.335ZM93.203 24.8849L92.5602 24.1188L92.5576 24.121L93.203 24.8849ZM98.7683 22.5224L98.9364 23.5082L98.9446 23.5068L98.9529 23.5052L98.7683 22.5224ZM100.703 22.2859L101.648 21.9603L101.405 21.2543L100.659 21.2868L100.703 22.2859ZM101.909 25.7873L101.777 26.7786L103.381 26.9916L102.854 25.4617L101.909 25.7873ZM99.67 25.7649L99.7695 26.7599L99.7726 26.7596L99.67 25.7649ZM94.5218 30.3468L93.5218 30.3516L93.522 30.3619L94.5218 30.3468ZM97.2442 35.3255L96.772 36.207L96.7832 36.213L96.7945 36.2187L97.2442 35.3255ZM98.9335 35.7684L98.8783 36.7669L98.8863 36.7673L98.8943 36.7676L98.9335 35.7684ZM101.783 35.0683L102.214 35.9707L102.224 35.9655L102.235 35.96L101.783 35.0683ZM102.766 34.515L103.294 35.3642L103.302 35.3589L103.311 35.3534L102.766 34.515ZM103.698 33.8635L103.104 33.059L103.097 33.0641L103.698 33.8635ZM104.536 33.1782L105.482 32.8527L104.986 31.4125L103.861 32.4401L104.536 33.1782ZM104.985 35.6287C104.426 36.1138 103.82 36.5392 103.168 36.9054L104.147 38.6494C104.916 38.2175 105.633 37.7141 106.295 37.1396L104.985 35.6287ZM103.168 36.9054C102.513 37.273 101.799 37.5909 101.025 37.8577L101.676 39.7487C102.556 39.4457 103.38 39.0798 104.147 38.6494L103.168 36.9054ZM101.025 37.8577C99.9179 38.2388 98.9037 38.4191 97.9758 38.4196L97.9769 40.4196C99.1638 40.419 100.399 40.1884 101.676 39.7487L101.025 37.8577ZM97.9758 38.4196C97.0523 38.42 96.2304 38.2408 95.4944 37.8956L94.645 39.7063C95.6697 40.187 96.7855 40.4202 97.9769 40.4196L97.9758 38.4196ZM95.4944 37.8956C94.7607 37.5514 94.0954 37.0303 93.5 36.3095L91.958 37.5831C92.7229 38.5092 93.6181 39.2245 94.645 39.7063L95.4944 37.8956ZM93.5058 36.3166C92.924 35.5989 92.4259 34.6744 92.0281 33.519L90.1371 34.1702C90.5939 35.4968 91.1934 36.6401 91.9522 37.5761L93.5058 36.3166ZM92.0281 33.519C91.6483 32.4161 91.4855 31.3857 91.5192 30.4212L89.5204 30.3514C89.477 31.5947 89.6894 32.8699 90.1371 34.1702L92.0281 33.519ZM91.5188 30.4299C91.5617 29.4493 91.7817 28.5679 92.1692 27.7734L90.3716 26.8967C89.855 27.9558 89.5746 29.1087 89.5207 30.3426L91.5188 30.4299ZM92.1692 27.7734C92.5566 26.9791 93.1115 26.2713 93.8484 25.6487L92.5576 24.121C91.6218 24.9117 90.8883 25.8373 90.3716 26.8967L92.1692 27.7734ZM93.8458 25.6509C94.5859 25.03 95.4934 24.5259 96.5855 24.1498L95.9344 22.2588C94.6429 22.7035 93.5125 23.3198 92.5602 24.1188L93.8458 25.6509ZM96.5855 24.1498C97.5303 23.8245 98.3109 23.6148 98.9364 23.5082L98.6002 21.5366C97.8314 21.6677 96.9397 21.9126 95.9344 22.2588L96.5855 24.1498ZM98.9529 23.5052C99.6197 23.38 100.217 23.308 100.747 23.2849L100.659 21.2868C100.017 21.3148 99.3243 21.4005 98.5838 21.5396L98.9529 23.5052ZM99.7575 22.6115L100.963 26.1128L102.854 25.4617L101.648 21.9603L99.7575 22.6115ZM102.04 24.796C101.241 24.6898 100.416 24.6826 99.5673 24.7702L99.7726 26.7596C100.478 26.6869 101.145 26.6946 101.777 26.7786L102.04 24.796ZM99.5704 24.7698C98.737 24.8533 97.9565 25.0163 97.2339 25.2651L97.8851 27.1562C98.4428 26.9641 99.0694 26.83 99.7695 26.7599L99.5704 24.7698ZM97.2339 25.2651C96.4568 25.5327 95.7725 25.9157 95.204 26.4287L96.5441 27.9134C96.8834 27.6071 97.3227 27.3498 97.8851 27.1562L97.2339 25.2651ZM95.204 26.4287C94.6493 26.9295 94.221 27.5165 93.9352 28.1877L95.7753 28.9713C95.9403 28.5839 96.1912 28.232 96.5441 27.9134L95.204 26.4287ZM93.9352 28.1877C93.65 28.8575 93.5182 29.5839 93.5219 30.3516L95.5218 30.342C95.5193 29.8119 95.6097 29.3601 95.7753 28.9713L93.9352 28.1877ZM93.522 30.3619C93.5333 31.1175 93.6799 31.8851 93.9468 32.6601L95.8378 32.0089C95.6299 31.4051 95.5295 30.8475 95.5217 30.3318L93.522 30.3619ZM93.9468 32.6601C94.2254 33.4692 94.6023 34.1858 95.0907 34.7911L96.6471 33.535C96.3285 33.1402 96.0543 32.6378 95.8378 32.0089L93.9468 32.6601ZM95.0907 34.7911C95.5696 35.3844 96.1291 35.8627 96.772 36.207L97.7164 34.444C97.3327 34.2385 96.9754 33.9418 96.6471 33.535L95.0907 34.7911ZM96.7945 36.2187C97.4425 36.5449 98.1406 36.7261 98.8783 36.7669L98.9888 34.7699C98.5135 34.7436 98.0855 34.6295 97.6939 34.4323L96.7945 36.2187ZM98.8943 36.7676C99.6372 36.7968 100.388 36.6723 101.139 36.4137L100.488 34.5227C99.9387 34.7117 99.436 34.7874 98.9728 34.7692L98.8943 36.7676ZM101.139 36.4137C101.493 36.2917 101.852 36.1435 102.214 35.9707L101.352 34.1658C101.052 34.3092 100.764 34.4277 100.488 34.5227L101.139 36.4137ZM102.235 35.96C102.598 35.7758 102.951 35.5772 103.294 35.3642L102.237 33.6658C101.945 33.8479 101.642 34.0181 101.33 34.1765L102.235 35.96ZM103.311 35.3534C103.653 35.1308 103.982 34.9006 104.299 34.6629L103.097 33.0641C102.818 33.2736 102.526 33.4779 102.22 33.6767L103.311 35.3534ZM104.292 34.6679C104.624 34.4226 104.931 34.1723 105.211 33.9164L103.861 32.4401C103.639 32.6438 103.387 32.8503 103.104 33.0591L104.292 34.6679ZM103.591 33.5038L104.694 36.7097L106.586 36.0586L105.482 32.8527L103.591 33.5038ZM122.659 31.0032L123.186 31.8531L123.865 31.4324L123.605 30.6777L122.659 31.0032ZM116.323 33.3832L116.371 34.382L116.375 34.3819L116.323 33.3832ZM114.225 33.0481L113.827 33.9655L113.836 33.9696L114.225 33.0481ZM112.636 31.7939L111.839 32.3982L111.845 32.4053L111.85 32.4124L112.636 31.7939ZM108.979 22.229L109.925 21.9034L109.599 20.9579L108.654 21.2835L108.979 22.229ZM104.946 23.6177L104 23.9433L104.326 24.8888L105.271 24.5633L104.946 23.6177ZM103.979 20.8107L103.654 19.8652L102.708 20.1908L103.034 21.1363L103.979 20.8107ZM108.013 19.422L108.338 20.3675L109.284 20.0419L108.958 19.0964L108.013 19.422ZM106.69 15.5808L106.137 14.7476L105.493 15.1753L105.744 15.9064L106.69 15.5808ZM110.053 13.3488L110.998 13.0232L110.577 11.8004L109.5 12.5156L110.053 13.3488ZM111.706 18.1502L110.76 18.4758L111.086 19.4213L112.032 19.0957L111.706 18.1502ZM117.542 16.1409L118.487 15.8153L118.162 14.8698L117.216 15.1953L117.542 16.1409ZM118.508 18.9479L118.834 19.8934L119.779 19.5678L119.454 18.6223L118.508 18.9479ZM112.673 20.9572L112.347 20.0117L111.401 20.3373L111.727 21.2828L112.673 20.9572ZM116.367 29.7657L115.876 30.6373L115.886 30.6426L116.367 29.7657ZM121.667 28.1224L122.613 27.7968L122.185 26.5542L121.101 27.2978L121.667 28.1224ZM122.132 30.1534C121.558 30.5092 120.97 30.8382 120.368 31.1406L121.265 32.9281C121.921 32.5988 122.562 32.2404 123.186 31.8531L122.132 30.1534ZM120.368 31.1406C119.773 31.439 119.204 31.6806 118.66 31.8679L119.311 33.7589C119.949 33.5392 120.601 33.2615 121.265 32.9281L120.368 31.1406ZM118.66 31.8679C117.738 32.1856 116.944 32.3498 116.272 32.3845L116.375 34.3819C117.282 34.3351 118.264 34.1195 119.311 33.7589L118.66 31.8679ZM116.275 32.3843C115.62 32.4157 115.073 32.3205 114.613 32.1266L113.836 33.9696C114.614 34.2972 115.466 34.4254 116.371 34.382L116.275 32.3843ZM114.623 32.1307C114.18 31.9388 113.78 31.6301 113.422 31.1753L111.85 32.4124C112.393 33.1017 113.052 33.6292 113.827 33.9655L114.623 32.1307ZM113.433 31.1896C113.069 30.71 112.735 30.0659 112.448 29.2312L110.557 29.8823C110.893 30.8599 111.315 31.7072 111.839 32.3982L113.433 31.1896ZM112.448 29.2312L109.925 21.9034L108.034 22.5546L110.557 29.8823L112.448 29.2312ZM108.654 21.2835L104.62 22.6722L105.271 24.5633L109.305 23.1745L108.654 21.2835ZM105.891 23.2922L104.925 20.4852L103.034 21.1363L104 23.9433L105.891 23.2922ZM104.305 21.7562L108.338 20.3675L107.687 18.4765L103.654 19.8652L104.305 21.7562ZM108.958 19.0964L107.635 15.2552L105.744 15.9064L107.067 19.7475L108.958 19.0964ZM107.243 16.414L110.606 14.1819L109.5 12.5156L106.137 14.7476L107.243 16.414ZM109.107 13.6743L110.76 18.4758L112.652 17.8247L110.998 13.0232L109.107 13.6743ZM112.032 19.0957L117.867 17.0864L117.216 15.1953L111.38 17.2047L112.032 19.0957ZM116.596 16.4664L117.563 19.2734L119.454 18.6223L118.487 15.8153L116.596 16.4664ZM118.183 18.0023L112.347 20.0117L112.998 21.9028L118.834 19.8934L118.183 18.0023ZM111.727 21.2828L114.159 28.3446L116.05 27.6935L113.618 20.6317L111.727 21.2828ZM114.159 28.3446C114.498 29.3315 115.038 30.1657 115.876 30.6372L116.857 28.8942C116.602 28.7507 116.3 28.4204 116.05 27.6935L114.159 28.3446ZM115.886 30.6426C116.789 31.1374 117.855 31.0378 118.896 30.6796L118.244 28.7886C117.433 29.068 117.031 28.9895 116.847 28.8888L115.886 30.6426ZM118.896 30.6796C119.539 30.458 120.152 30.1871 120.732 29.8662L119.764 28.1162C119.289 28.3789 118.783 28.6033 118.244 28.7886L118.896 30.6796ZM120.732 29.8662C121.282 29.5617 121.783 29.2554 122.233 28.9469L121.101 27.2978C120.713 27.5642 120.268 27.8371 119.764 28.1162L120.732 29.8662ZM120.722 28.4479L121.714 31.3288L123.605 30.6777L122.613 27.7968L120.722 28.4479ZM138.006 23.4053L137.032 23.1775L137.031 23.1817L138.006 23.4053ZM137.008 25.4016L137.775 26.0431L137.778 26.0396L137.008 25.4016ZM135.16 26.9467L134.647 26.0882L134.641 26.0919L134.635 26.0957L135.16 26.9467ZM129.789 28.9119L129.58 27.9338L129.569 27.9362L129.789 28.9119ZM127.124 29.3335L126.179 29.6591L126.433 30.3973L127.211 30.3298L127.124 29.3335ZM126.005 26.0833L126.067 25.0852L124.572 24.9929L125.06 26.4088L126.005 26.0833ZM129.058 25.9741L129.198 26.9643L129.21 26.9625L129.058 25.9741ZM133.719 24.1542L134.503 24.7761L134.506 24.7719L133.719 24.1542ZM132.916 21.82L132.662 22.7873L132.683 22.7926L132.703 22.7971L132.916 21.82ZM131.595 21.6798L131.563 22.6793L131.572 22.6796L131.581 22.6797L131.595 21.6798ZM129.446 21.7257L129.391 20.7272L129.387 20.7274L129.446 21.7257ZM127.257 21.7028L127.139 22.6959L127.15 22.6972L127.161 22.6982L127.257 21.7028ZM124.313 20.3038L123.542 20.9407L123.55 20.9505L123.558 20.96L124.313 20.3038ZM124.033 15.0293L124.86 15.5928L124.861 15.5904L124.033 15.0293ZM131.058 11.2886L131.254 12.2692L131.058 11.2886ZM133.105 10.9472L134.05 10.6217L133.786 9.85449L132.981 9.95493L133.105 10.9472ZM134.117 13.8872L134.137 14.887L135.51 14.8592L135.063 13.5616L134.117 13.8872ZM131.496 14.1453L131.67 15.13L131.677 15.1288L131.685 15.1274L131.496 14.1453ZM127.554 15.7506L126.794 15.0999L126.788 15.1073L127.554 15.7506ZM128.307 17.9865L128.062 18.956L128.071 18.9581L128.079 18.9601L128.307 17.9865ZM129.584 18.1419L129.531 19.1405L129.544 19.1412L129.556 19.1415L129.584 18.1419ZM131.648 18.0919L131.594 17.0934L131.592 17.0935L131.648 18.0919ZM134.11 18.1368L133.991 19.1299L134.005 19.1313L134.11 18.1368ZM135.854 18.594L135.415 19.4928L135.428 19.4987L135.854 18.594ZM136.879 21.3312C137.124 22.0438 137.156 22.65 137.032 23.1775L138.98 23.6332C139.204 22.6748 139.114 21.6812 138.77 20.6801L136.879 21.3312ZM137.031 23.1817C136.9 23.7526 136.641 24.2774 136.238 24.7636L137.778 26.0396C138.371 25.3235 138.777 24.5174 138.981 23.6289L137.031 23.1817ZM136.241 24.7601C135.829 25.2519 135.303 25.6965 134.647 26.0882L135.673 27.8052C136.498 27.3126 137.203 26.7271 137.775 26.0431L136.241 24.7601ZM134.635 26.0957C133.972 26.5045 133.262 26.8399 132.503 27.1013L133.154 28.9924C134.05 28.6841 134.894 28.286 135.685 27.7977L134.635 26.0957ZM132.503 27.1013C131.43 27.4709 130.456 27.7472 129.58 27.9339L129.997 29.89C130.968 29.6829 132.021 29.3825 133.154 28.9924L132.503 27.1013ZM129.569 27.9362C128.689 28.1341 127.845 28.2672 127.038 28.3373L127.211 30.3298C128.115 30.2512 129.048 30.1032 130.008 29.8876L129.569 27.9362ZM128.07 29.0079L126.951 25.7577L125.06 26.4088L126.179 29.6591L128.07 29.0079ZM125.944 27.0814C127.064 27.1506 128.149 27.1125 129.198 26.9643L128.918 24.984C128.012 25.112 127.063 25.1467 126.067 25.0852L125.944 27.0814ZM129.21 26.9625C130.244 26.8034 131.203 26.5739 132.085 26.2704L131.434 24.3793C130.68 24.6388 129.839 24.8422 128.906 24.9857L129.21 26.9625ZM132.085 26.2704C133.096 25.9223 133.965 25.4531 134.503 24.776L132.936 23.5324C132.751 23.7651 132.314 24.0763 131.434 24.3793L132.085 26.2704ZM134.506 24.7719C135.043 24.0885 135.264 23.2638 134.967 22.4026L133.076 23.0537C133.112 23.1577 133.131 23.2837 132.933 23.5366L134.506 24.7719ZM134.967 22.4026C134.84 22.0338 134.635 21.7023 134.345 21.43L132.975 22.887C133.011 22.9212 133.047 22.9694 133.076 23.0537L134.967 22.4026ZM134.345 21.43C133.998 21.1037 133.553 20.9351 133.128 20.8428L132.703 22.7971C132.817 22.8219 132.892 22.8485 132.938 22.8693C132.983 22.8899 132.989 22.8998 132.975 22.887L134.345 21.43ZM133.169 20.8527C132.73 20.7376 132.199 20.6881 131.609 20.6799L131.581 22.6797C132.098 22.6869 132.447 22.7309 132.662 22.7873L133.169 20.8527ZM131.626 20.6803C131.029 20.6615 130.281 20.6783 129.391 20.7272L129.501 22.7242C130.362 22.6768 131.047 22.663 131.563 22.6793L131.626 20.6803ZM129.387 20.7274C128.617 20.7726 127.94 20.7642 127.353 20.7075L127.161 22.6982C127.872 22.767 128.655 22.7738 129.505 22.724L129.387 20.7274ZM127.374 20.7097C126.817 20.6439 126.36 20.5154 125.988 20.3405L125.136 22.1499C125.738 22.4331 126.41 22.6098 127.139 22.6959L127.374 20.7097ZM125.988 20.3405C125.625 20.1694 125.321 19.9394 125.067 19.6476L123.558 20.96C123.997 21.4652 124.527 21.8628 125.136 22.1499L125.988 20.3405ZM125.084 19.667C124.836 19.3675 124.61 18.9592 124.423 18.4152L122.532 19.0663C122.778 19.7829 123.109 20.4167 123.542 20.9407L125.084 19.667ZM124.423 18.4152C124.263 17.9529 124.219 17.4884 124.286 17.0086L122.305 16.7309C122.194 17.5245 122.27 18.3073 122.532 19.0663L124.423 18.4152ZM124.286 17.0086C124.351 16.5405 124.534 16.0704 124.86 15.5928L123.207 14.4658C122.728 15.1688 122.418 15.9257 122.305 16.7309L124.286 17.0086ZM124.861 15.5904C125.189 15.1073 125.667 14.629 126.327 14.165L125.176 12.5292C124.363 13.101 123.696 13.7441 123.206 14.4682L124.861 15.5904ZM126.327 14.165C126.968 13.714 127.793 13.3053 128.821 12.9512L128.17 11.0602C127.011 11.459 126.007 11.9445 125.176 12.5292L126.327 14.165ZM128.821 12.9512C129.735 12.6363 130.545 12.4108 131.254 12.2692L130.862 10.308C130.045 10.4713 129.146 10.7239 128.17 11.0602L128.821 12.9512ZM131.254 12.2692C131.999 12.1203 132.656 12.0109 133.229 11.9395L132.981 9.95493C132.349 10.0338 131.642 10.152 130.862 10.308L131.254 12.2692ZM132.159 11.2728L133.172 14.2128L135.063 13.5616L134.05 10.6217L132.159 11.2728ZM134.097 12.8874C133.098 12.9076 132.167 12.9981 131.307 13.1632L131.685 15.1274C132.416 14.9869 133.233 14.9053 134.137 14.887L134.097 12.8874ZM131.322 13.1606C130.482 13.309 129.668 13.5189 128.878 13.7906L129.53 15.6817C130.218 15.4448 130.931 15.2607 131.67 15.13L131.322 13.1606ZM128.878 13.7906C128.036 14.0806 127.309 14.4988 126.794 15.0999L128.313 16.4012C128.521 16.1585 128.894 15.9004 129.53 15.6817L128.878 13.7906ZM126.788 15.1073C126.236 15.7645 126.036 16.5725 126.325 17.4131L128.216 16.762C128.18 16.6571 128.168 16.5737 128.319 16.3938L126.788 15.1073ZM126.325 17.4131C126.446 17.7653 126.636 18.0915 126.912 18.3615L128.312 16.9334C128.288 16.9099 128.251 16.8628 128.216 16.762L126.325 17.4131ZM126.912 18.3615C127.239 18.682 127.662 18.855 128.062 18.956L128.552 17.017C128.446 16.9901 128.377 16.9633 128.336 16.9435C128.296 16.9237 128.295 16.9166 128.312 16.9334L126.912 18.3615ZM128.079 18.9601C128.484 19.055 128.975 19.1113 129.531 19.1405L129.636 17.1433C129.138 17.1171 128.778 17.0697 128.535 17.0129L128.079 18.9601ZM129.556 19.1415C130.129 19.1571 130.848 19.1389 131.705 19.0903L131.592 17.0935C130.763 17.1406 130.105 17.1557 129.611 17.1423L129.556 19.1415ZM131.703 19.0904C132.617 19.0403 133.376 19.0565 133.991 19.1298L134.228 17.1438C133.465 17.0528 132.583 17.0391 131.594 17.0934L131.703 19.0904ZM134.005 19.1313C134.608 19.1949 135.069 19.3241 135.415 19.4928L136.292 17.6952C135.684 17.3988 134.983 17.2233 134.215 17.1423L134.005 19.1313ZM135.428 19.4987C135.782 19.6656 136.056 19.8847 136.268 20.1539L137.84 18.9177C137.424 18.3894 136.898 17.9805 136.28 17.6893L135.428 19.4987ZM136.268 20.1539C136.499 20.4485 136.708 20.8342 136.879 21.3312L138.77 20.6801C138.541 20.0149 138.235 19.4207 137.84 18.9177L136.268 20.1539Z" fill="black" mask="url(#path-3-outside-1_109_42)"/>
</svg>
