<svg width="80" height="60" viewBox="0 0 80 60" fill="none" xmlns="http://www.w3.org/2000/svg">
<path d="M57.7575 36.8747C57.4303 37.6161 57.3326 38.4387 57.4772 39.2361C57.6218 40.0336 58.002 40.7695 58.5688 41.3488L58.7163 41.4963C59.1734 41.953 59.536 42.4952 59.7835 43.0921C60.0309 43.689 60.1582 44.3288 60.1582 44.9749C60.1582 45.621 60.0309 46.2608 59.7835 46.8577C59.536 47.4545 59.1734 47.9968 58.7163 48.4534C58.2596 48.9106 57.7174 49.2732 57.1205 49.5206C56.5236 49.7681 55.8838 49.8954 55.2377 49.8954C54.5916 49.8954 53.9518 49.7681 53.3549 49.5206C52.758 49.2732 52.2158 48.9106 51.7592 48.4534L51.6117 48.3059C51.0323 47.7392 50.2964 47.359 49.4989 47.2144C48.7015 47.0698 47.879 47.1674 47.1375 47.4947C46.4104 47.8063 45.7903 48.3237 45.3535 48.9833C44.9167 49.6428 44.6823 50.4157 44.6792 51.2068V51.6247C44.6792 52.9287 44.1612 54.1792 43.2391 55.1013C42.3171 56.0233 41.0665 56.5413 39.7625 56.5413C38.4585 56.5413 37.2079 56.0233 36.2859 55.1013C35.3638 54.1792 34.8458 52.9287 34.8458 51.6247V51.4034C34.8268 50.5897 34.5634 49.8006 34.0899 49.1386C33.6164 48.4766 32.9547 47.9723 32.1908 47.6913C31.4494 47.3641 30.6269 47.2665 29.8294 47.4111C29.0319 47.5557 28.296 47.9359 27.7167 48.5026L27.5692 48.6501C27.1125 49.1072 26.5703 49.4699 25.9734 49.7173C25.3765 49.9647 24.7368 50.0921 24.0906 50.0921C23.4445 50.0921 22.8047 49.9647 22.2078 49.7173C21.611 49.4699 21.0687 49.1072 20.6121 48.6501C20.155 48.1935 19.7923 47.6512 19.5449 47.0543C19.2974 46.4575 19.1701 45.8177 19.1701 45.1716C19.1701 44.5254 19.2974 43.8856 19.5449 43.2888C19.7923 42.6919 20.155 42.1496 20.6121 41.693L20.7596 41.5455C21.3263 40.9661 21.7065 40.2303 21.8511 39.4328C21.9957 38.6353 21.8981 37.8128 21.5708 37.0713C21.2592 36.3442 20.7418 35.7241 20.0822 35.2873C19.4227 34.8506 18.6498 34.6162 17.8588 34.613H17.4408C16.1369 34.613 14.8863 34.095 13.9642 33.173C13.0422 32.2509 12.5242 31.0003 12.5242 29.6963C12.5242 28.3924 13.0422 27.1418 13.9642 26.2197C14.8863 25.2977 16.1369 24.7797 17.4408 24.7797H17.6621C18.4758 24.7606 19.2649 24.4973 19.9269 24.0238C20.589 23.5503 21.0932 22.8886 21.3742 22.1247C21.7014 21.3832 21.799 20.5607 21.6544 19.7632C21.5098 18.9658 21.1297 18.2299 20.5629 17.6505L20.4154 17.503C19.9583 17.0464 19.5956 16.5041 19.3482 15.9073C19.1008 15.3104 18.9734 14.6706 18.9734 14.0245C18.9734 13.3783 19.1008 12.7386 19.3482 12.1417C19.5956 11.5448 19.9583 11.0026 20.4154 10.5459C20.872 10.0888 21.4143 9.72614 22.0112 9.47871C22.608 9.23129 23.2478 9.10393 23.894 9.10393C24.5401 9.10393 25.1799 9.23129 25.7768 9.47871C26.3736 9.72614 26.9159 10.0888 27.3725 10.5459L27.52 10.6934C28.0994 11.2602 28.8353 11.6403 29.6327 11.7849C30.4302 11.9295 31.2527 11.8319 31.9942 11.5047H32.1908C32.9179 11.193 33.538 10.6756 33.9748 10.0161C34.4116 9.35652 34.646 8.58365 34.6492 7.79259V7.37467C34.6492 6.07069 35.1672 4.82012 36.0892 3.89807C37.0113 2.97601 38.2619 2.45801 39.5658 2.45801C40.8698 2.45801 42.1204 2.97601 43.0424 3.89807C43.9645 4.82012 44.4825 6.07069 44.4825 7.37467V7.59592C44.4857 8.38698 44.7201 9.15986 45.1568 9.8194C45.5936 10.4789 46.2137 10.9964 46.9408 11.308C47.6823 11.6352 48.5048 11.7329 49.3023 11.5883C50.0998 11.4437 50.8356 11.0635 51.415 10.4968L51.5625 10.3493C52.0191 9.89212 52.5614 9.52948 53.1583 9.28205C53.7551 9.03462 54.3949 8.90727 55.041 8.90727C55.6872 8.90727 56.327 9.03462 56.9238 9.28205C57.5207 9.52948 58.063 9.89212 58.5196 10.3493C58.9767 10.8059 59.3394 11.3481 59.5868 11.945C59.8342 12.5419 59.9616 13.1817 59.9616 13.8278C59.9616 14.4739 59.8342 15.1137 59.5868 15.7106C59.3394 16.3075 58.9767 16.8497 58.5196 17.3063L58.3721 17.4538C57.8053 18.0332 57.4252 18.7691 57.2806 19.5666C57.136 20.364 57.2336 21.1865 57.5608 21.928V22.1247C57.8725 22.8518 58.3899 23.4719 59.0494 23.9087C59.709 24.3455 60.4819 24.5799 61.2729 24.583H61.6908C62.9948 24.583 64.2454 25.101 65.1674 26.0231C66.0895 26.9451 66.6075 28.1957 66.6075 29.4997C66.6075 30.8037 66.0895 32.0542 65.1674 32.9763C64.2454 33.8983 62.9948 34.4163 61.6908 34.4163H61.4696C60.6785 34.4195 59.9057 34.6539 59.2461 35.0907C58.5866 35.5275 58.0691 36.1476 57.7575 36.8747Z" fill="#4A4891"/>
<path d="M39.5659 36.875C43.639 36.875 46.9409 33.5731 46.9409 29.5C46.9409 25.4269 43.639 22.125 39.5659 22.125C35.4928 22.125 32.1909 25.4269 32.1909 29.5C32.1909 33.5731 35.4928 36.875 39.5659 36.875Z" fill="#1C1B1B"/>
<mask id="path-3-outside-1_109_41" maskUnits="userSpaceOnUse" x="1.59665" y="3.91963" width="73.7056" height="47.0477" fill="black">
<rect fill="white" x="1.59665" y="3.91963" width="73.7056" height="47.0477"/>
<path d="M19.4712 45.612L16.1036 35.8318C15.5373 34.187 14.6434 33.5749 13.4221 33.9954C12.8115 34.2057 12.3102 34.6537 11.9184 35.3394C11.5364 36.0218 11.181 36.8933 10.8522 37.954L14.1231 47.4535L10.5183 48.6947L3.33039 27.8195L6.93518 26.5782L8.70545 31.7195L9.46418 34.4989C9.64402 34.0294 9.84235 33.5975 10.0592 33.2034C10.2726 32.7994 10.5276 32.4361 10.8242 32.1137C11.1208 31.7912 11.4639 31.5078 11.8535 31.2635C12.2397 31.0093 12.6889 30.7941 13.2011 30.6177C13.9693 30.3532 14.6831 30.2506 15.3425 30.31C15.9986 30.3595 16.5983 30.5496 17.1419 30.8803C17.682 31.2011 18.1575 31.6543 18.5685 32.2399C18.9859 32.8123 19.332 33.4973 19.6067 34.2951L23.076 44.3708L19.4712 45.612ZM38.0466 30.6889C38.4536 31.8708 38.6592 33.0119 38.6634 34.1121C38.6643 35.2025 38.47 36.2058 38.0804 37.1222C37.6908 38.0385 37.1042 38.8464 36.3205 39.5459C35.5368 40.2455 34.5589 40.797 33.3869 41.2006C32.2739 41.5838 31.2232 41.7638 30.2347 41.7406C29.2462 41.7174 28.3364 41.4908 27.5053 41.0609C26.6709 40.6211 25.9249 39.9746 25.2676 39.1213C24.6068 38.2581 24.0543 37.1814 23.61 35.8912C23.1997 34.6995 22.9941 33.5584 22.9932 32.468C23.0022 31.3743 23.2031 30.3741 23.5961 29.4677C23.9989 28.5578 24.5938 27.758 25.3809 27.0683C26.1646 26.3688 27.1327 25.8207 28.285 25.4239C29.4078 25.0373 30.4652 24.8605 31.4571 24.8935C32.4455 24.9167 33.357 25.1482 34.1915 25.588C35.026 26.0278 35.767 26.676 36.4145 27.5327C37.0685 28.3762 37.6125 29.4282 38.0466 30.6889ZM34.3246 32.0697C33.7888 30.5135 33.0914 29.4481 32.2326 28.8735C31.3801 28.2857 30.3827 28.1885 29.2402 28.5818C28.6098 28.7989 28.1155 29.1068 27.757 29.5057C27.3986 29.9045 27.1512 30.3698 27.0148 30.9015C26.875 31.4234 26.8345 31.9937 26.8933 32.6124C26.962 33.2277 27.1082 33.8604 27.332 34.5105C27.8712 36.0765 28.5934 37.1499 29.4984 37.7306C30.4001 38.3015 31.3975 38.3987 32.4908 38.0223C33.0916 37.8154 33.5729 37.5175 33.9347 37.1285C34.2931 36.7296 34.5373 36.271 34.6673 35.7525C34.7938 35.2242 34.826 34.6457 34.7638 34.0172C34.7016 33.3886 34.5552 32.7394 34.3246 32.0697ZM54.3815 33.5914L50.8613 23.368C50.7324 22.9938 50.6107 22.6721 50.496 22.4031C50.378 22.1243 50.2572 21.9015 50.1337 21.7347C50.0101 21.5679 49.874 21.4605 49.7253 21.4126C49.583 21.3514 49.4134 21.3547 49.2164 21.4225C48.9111 21.5277 48.6819 21.8379 48.5289 22.3533C48.3759 22.8688 48.2835 23.6883 48.2517 24.8119L51.6041 34.5478L48.5163 35.611L44.9961 25.3876C44.8673 25.0133 44.7455 24.6917 44.6309 24.4227C44.5128 24.1438 44.392 23.921 44.2685 23.7542C44.145 23.5874 44.0088 23.4801 43.8601 23.4321C43.708 23.3743 43.5335 23.3793 43.3365 23.4472C43.0804 23.5353 42.866 23.8405 42.6933 24.3627C42.5205 24.8849 42.4134 25.7095 42.3718 26.8365L45.7241 36.5724L42.6069 37.6458L37.4385 22.6357L40.1125 21.7149L40.9245 23.8811C40.9885 23.3633 41.0747 22.9095 41.1828 22.5197C41.291 22.1299 41.4343 21.7941 41.6127 21.5124C41.7877 21.2207 41.9978 20.9831 42.2431 20.7995C42.4982 20.6125 42.803 20.458 43.1576 20.3359C43.9947 20.0477 44.7063 20.0505 45.2923 20.3445C45.8847 20.6253 46.3444 21.1445 46.6715 21.9022C46.7552 21.3776 46.8561 20.9188 46.9741 20.5256C47.102 20.129 47.2551 19.7898 47.4335 19.5081C47.6184 19.2131 47.8384 18.9721 48.0935 18.7851C48.3584 18.5947 48.6682 18.4385 49.0227 18.3164C50.116 17.9399 51.0559 18.046 51.8424 18.6345C52.6256 19.2131 53.2749 20.251 53.7903 21.748L57.4988 32.5181L54.3815 33.5914ZM70.5177 18.3515C70.6025 18.5977 70.7029 18.9212 70.8188 19.3219C70.9446 19.7193 71.0521 20.0954 71.1413 20.4503L61.2724 23.8484C61.4996 24.5083 61.7982 25.0555 62.1682 25.49C62.548 25.9211 62.9794 26.2462 63.4625 26.4655C63.9521 26.6715 64.4835 26.7749 65.0567 26.7759C65.6397 26.7734 66.2464 26.6637 66.8768 26.4466C67.6056 26.1957 68.365 25.8736 69.1551 25.4804C69.9515 25.0739 70.7538 24.5883 71.5619 24.0236L72.5488 26.8898C72.202 27.1304 71.8173 27.373 71.3948 27.6176C70.9722 27.8623 70.5365 28.1005 70.0875 28.3322C69.6384 28.5639 69.1777 28.7776 68.7053 28.9734C68.2362 29.1789 67.7752 29.3597 67.3221 29.5157C66.1796 29.9091 65.0993 30.0993 64.0813 30.0863C63.0633 30.0733 62.1306 29.8601 61.2832 29.4468C60.4324 29.0237 59.6785 28.4019 59.0214 27.5815C58.3644 26.7612 57.8239 25.7354 57.4 24.5043C56.9794 23.283 56.7654 22.1173 56.7577 21.0072C56.7467 19.8873 56.9244 18.8676 57.2908 17.9482C57.6539 17.019 58.2027 16.2131 58.9372 15.5305C59.6781 14.8347 60.5853 14.302 61.6589 13.9324C62.7226 13.5661 63.7208 13.4097 64.6536 13.463C65.583 13.5066 66.4252 13.7289 67.1803 14.1299C67.9353 14.5309 68.5964 15.091 69.1635 15.8102C69.7306 16.5293 70.182 17.3764 70.5177 18.3515ZM66.6758 19.0959C66.4822 18.5016 66.232 18.0149 65.9252 17.6358C65.615 17.2468 65.2728 16.957 64.8987 16.7664C64.5344 16.5723 64.1463 16.4691 63.7344 16.4567C63.3324 16.4409 62.9245 16.5042 62.5108 16.6466C61.6047 16.9586 60.9662 17.52 60.5954 18.3307C60.2212 19.1316 60.1698 20.1023 60.4413 21.2427L66.6758 19.0959Z"/>
</mask>
<path d="M19.4712 45.612L16.1036 35.8318C15.5373 34.187 14.6434 33.5749 13.4221 33.9954C12.8115 34.2057 12.3102 34.6537 11.9184 35.3394C11.5364 36.0218 11.181 36.8933 10.8522 37.954L14.1231 47.4535L10.5183 48.6947L3.33039 27.8195L6.93518 26.5782L8.70545 31.7195L9.46418 34.4989C9.64402 34.0294 9.84235 33.5975 10.0592 33.2034C10.2726 32.7994 10.5276 32.4361 10.8242 32.1137C11.1208 31.7912 11.4639 31.5078 11.8535 31.2635C12.2397 31.0093 12.6889 30.7941 13.2011 30.6177C13.9693 30.3532 14.6831 30.2506 15.3425 30.31C15.9986 30.3595 16.5983 30.5496 17.1419 30.8803C17.682 31.2011 18.1575 31.6543 18.5685 32.2399C18.9859 32.8123 19.332 33.4973 19.6067 34.2951L23.076 44.3708L19.4712 45.612ZM38.0466 30.6889C38.4536 31.8708 38.6592 33.0119 38.6634 34.1121C38.6643 35.2025 38.47 36.2058 38.0804 37.1222C37.6908 38.0385 37.1042 38.8464 36.3205 39.5459C35.5368 40.2455 34.5589 40.797 33.3869 41.2006C32.2739 41.5838 31.2232 41.7638 30.2347 41.7406C29.2462 41.7174 28.3364 41.4908 27.5053 41.0609C26.6709 40.6211 25.9249 39.9746 25.2676 39.1213C24.6068 38.2581 24.0543 37.1814 23.61 35.8912C23.1997 34.6995 22.9941 33.5584 22.9932 32.468C23.0022 31.3743 23.2031 30.3741 23.5961 29.4677C23.9989 28.5578 24.5938 27.758 25.3809 27.0683C26.1646 26.3688 27.1327 25.8207 28.285 25.4239C29.4078 25.0373 30.4652 24.8605 31.4571 24.8935C32.4455 24.9167 33.357 25.1482 34.1915 25.588C35.026 26.0278 35.767 26.676 36.4145 27.5327C37.0685 28.3762 37.6125 29.4282 38.0466 30.6889ZM34.3246 32.0697C33.7888 30.5135 33.0914 29.4481 32.2326 28.8735C31.3801 28.2857 30.3827 28.1885 29.2402 28.5818C28.6098 28.7989 28.1155 29.1068 27.757 29.5057C27.3986 29.9045 27.1512 30.3698 27.0148 30.9015C26.875 31.4234 26.8345 31.9937 26.8933 32.6124C26.962 33.2277 27.1082 33.8604 27.332 34.5105C27.8712 36.0765 28.5934 37.1499 29.4984 37.7306C30.4001 38.3015 31.3975 38.3987 32.4908 38.0223C33.0916 37.8154 33.5729 37.5175 33.9347 37.1285C34.2931 36.7296 34.5373 36.271 34.6673 35.7525C34.7938 35.2242 34.826 34.6457 34.7638 34.0172C34.7016 33.3886 34.5552 32.7394 34.3246 32.0697ZM54.3815 33.5914L50.8613 23.368C50.7324 22.9938 50.6107 22.6721 50.496 22.4031C50.378 22.1243 50.2572 21.9015 50.1337 21.7347C50.0101 21.5679 49.874 21.4605 49.7253 21.4126C49.583 21.3514 49.4134 21.3547 49.2164 21.4225C48.9111 21.5277 48.6819 21.8379 48.5289 22.3533C48.3759 22.8688 48.2835 23.6883 48.2517 24.8119L51.6041 34.5478L48.5163 35.611L44.9961 25.3876C44.8673 25.0133 44.7455 24.6917 44.6309 24.4227C44.5128 24.1438 44.392 23.921 44.2685 23.7542C44.145 23.5874 44.0088 23.4801 43.8601 23.4321C43.708 23.3743 43.5335 23.3793 43.3365 23.4472C43.0804 23.5353 42.866 23.8405 42.6933 24.3627C42.5205 24.8849 42.4134 25.7095 42.3718 26.8365L45.7241 36.5724L42.6069 37.6458L37.4385 22.6357L40.1125 21.7149L40.9245 23.8811C40.9885 23.3633 41.0747 22.9095 41.1828 22.5197C41.291 22.1299 41.4343 21.7941 41.6127 21.5124C41.7877 21.2207 41.9978 20.9831 42.2431 20.7995C42.4982 20.6125 42.803 20.458 43.1576 20.3359C43.9947 20.0477 44.7063 20.0505 45.2923 20.3445C45.8847 20.6253 46.3444 21.1445 46.6715 21.9022C46.7552 21.3776 46.8561 20.9188 46.9741 20.5256C47.102 20.129 47.2551 19.7898 47.4335 19.5081C47.6184 19.2131 47.8384 18.9721 48.0935 18.7851C48.3584 18.5947 48.6682 18.4385 49.0227 18.3164C50.116 17.9399 51.0559 18.046 51.8424 18.6345C52.6256 19.2131 53.2749 20.251 53.7903 21.748L57.4988 32.5181L54.3815 33.5914ZM70.5177 18.3515C70.6025 18.5977 70.7029 18.9212 70.8188 19.3219C70.9446 19.7193 71.0521 20.0954 71.1413 20.4503L61.2724 23.8484C61.4996 24.5083 61.7982 25.0555 62.1682 25.49C62.548 25.9211 62.9794 26.2462 63.4625 26.4655C63.9521 26.6715 64.4835 26.7749 65.0567 26.7759C65.6397 26.7734 66.2464 26.6637 66.8768 26.4466C67.6056 26.1957 68.365 25.8736 69.1551 25.4804C69.9515 25.0739 70.7538 24.5883 71.5619 24.0236L72.5488 26.8898C72.202 27.1304 71.8173 27.373 71.3948 27.6176C70.9722 27.8623 70.5365 28.1005 70.0875 28.3322C69.6384 28.5639 69.1777 28.7776 68.7053 28.9734C68.2362 29.1789 67.7752 29.3597 67.3221 29.5157C66.1796 29.9091 65.0993 30.0993 64.0813 30.0863C63.0633 30.0733 62.1306 29.8601 61.2832 29.4468C60.4324 29.0237 59.6785 28.4019 59.0214 27.5815C58.3644 26.7612 57.8239 25.7354 57.4 24.5043C56.9794 23.283 56.7654 22.1173 56.7577 21.0072C56.7467 19.8873 56.9244 18.8676 57.2908 17.9482C57.6539 17.019 58.2027 16.2131 58.9372 15.5305C59.6781 14.8347 60.5853 14.302 61.6589 13.9324C62.7226 13.5661 63.7208 13.4097 64.6536 13.463C65.583 13.5066 66.4252 13.7289 67.1803 14.1299C67.9353 14.5309 68.5964 15.091 69.1635 15.8102C69.7306 16.5293 70.182 17.3764 70.5177 18.3515ZM66.6758 19.0959C66.4822 18.5016 66.232 18.0149 65.9252 17.6358C65.615 17.2468 65.2728 16.957 64.8987 16.7664C64.5344 16.5723 64.1463 16.4691 63.7344 16.4567C63.3324 16.4409 62.9245 16.5042 62.5108 16.6466C61.6047 16.9586 60.9662 17.52 60.5954 18.3307C60.2212 19.1316 60.1698 20.1023 60.4413 21.2427L66.6758 19.0959Z" fill="#C72A80"/>
<path d="M19.4712 45.612L18.5257 45.9376L18.8512 46.8831L19.7968 46.5575L19.4712 45.612ZM11.9184 35.3394L11.0501 34.8433L11.0458 34.851L11.9184 35.3394ZM10.8522 37.954L9.89702 37.6579L9.80016 37.9703L9.90665 38.2796L10.8522 37.954ZM14.1231 47.4535L14.4487 48.399L15.3942 48.0735L15.0686 47.128L14.1231 47.4535ZM10.5183 48.6947L9.5728 49.0203L9.89837 49.9658L10.8439 49.6403L10.5183 48.6947ZM3.33039 27.8195L3.00482 26.874L2.0593 27.1995L2.38487 28.145L3.33039 27.8195ZM6.93518 26.5782L7.88069 26.2527L7.55513 25.3072L6.60961 25.6327L6.93518 26.5782ZM8.70545 31.7195L9.67015 31.4562L9.66158 31.4247L9.65097 31.3939L8.70545 31.7195ZM9.46418 34.4989L8.49947 34.7623L9.30455 37.7115L10.398 34.8566L9.46418 34.4989ZM10.0592 33.2034L10.9354 33.6854L10.9394 33.678L10.9434 33.6705L10.0592 33.2034ZM10.8242 32.1137L11.5602 32.7906L10.8242 32.1137ZM11.8535 31.2635L12.3848 32.1107L12.3941 32.1049L12.4032 32.0988L11.8535 31.2635ZM15.3425 30.31L15.2529 31.306L15.26 31.3066L15.2673 31.3072L15.3425 30.31ZM17.1419 30.8803L16.6221 31.7347L16.6312 31.7401L17.1419 30.8803ZM18.5685 32.2399L17.7499 32.8143L17.7552 32.8218L17.7605 32.8291L18.5685 32.2399ZM23.076 44.3708L23.4016 45.3163L24.3471 44.9907L24.0215 44.0452L23.076 44.3708ZM20.4167 45.2865L17.0491 35.5062L15.1581 36.1574L18.5257 45.9376L20.4167 45.2865ZM17.0491 35.5062C16.7351 34.5944 16.2761 33.7952 15.5735 33.314C14.8136 32.7936 13.9415 32.7589 13.0966 33.0499L13.7477 34.9409C14.1241 34.8113 14.3095 34.8724 14.4434 34.9642C14.6347 35.0951 14.9057 35.4244 15.1581 36.1574L17.0491 35.5062ZM13.0966 33.0499C12.2082 33.3558 11.5344 33.9959 11.0501 34.8433L12.7867 35.8355C13.0861 35.3115 13.4148 35.0556 13.7477 34.9409L13.0966 33.0499ZM11.0458 34.851C10.6187 35.6139 10.2387 36.5558 9.89702 37.6579L11.8073 38.2501C12.1233 37.2309 12.4541 36.4297 12.791 35.8279L11.0458 34.851ZM9.90665 38.2796L13.1776 47.7791L15.0686 47.128L11.7977 37.6284L9.90665 38.2796ZM13.7975 46.508L10.1928 47.7492L10.8439 49.6403L14.4487 48.399L13.7975 46.508ZM11.4638 48.3692L4.2759 27.4939L2.38487 28.145L9.5728 49.0203L11.4638 48.3692ZM3.65595 28.765L7.26074 27.5238L6.60961 25.6327L3.00482 26.874L3.65595 28.765ZM5.98966 26.9038L7.75993 32.0451L9.65097 31.3939L7.88069 26.2527L5.98966 26.9038ZM7.74075 31.9828L8.49947 34.7623L10.4289 34.2356L9.67015 31.4562L7.74075 31.9828ZM10.398 34.8566C10.5634 34.4248 10.743 34.0351 10.9354 33.6854L9.183 32.7214C8.94174 33.1599 8.72466 33.6339 8.53033 34.1412L10.398 34.8566ZM10.9434 33.6705C11.1184 33.3392 11.3243 33.0472 11.5602 32.7906L10.0882 31.4367C9.73095 31.8251 9.42686 32.2595 9.17499 32.7362L10.9434 33.6705ZM11.5602 32.7906C11.7935 32.537 12.067 32.31 12.3848 32.1107L11.3222 30.4163C10.8608 30.7056 10.4481 31.0454 10.0882 31.4367L11.5602 32.7906ZM12.4032 32.0988C12.7089 31.8977 13.0804 31.7169 13.5266 31.5632L12.8755 29.6722C12.2974 29.8712 11.7705 30.121 11.3038 30.4282L12.4032 32.0988ZM13.5266 31.5632C14.1911 31.3344 14.762 31.2618 15.2529 31.306L15.4322 29.314C14.6043 29.2395 13.7475 29.372 12.8755 29.6722L13.5266 31.5632ZM15.2673 31.3072C15.7715 31.3452 16.2181 31.4888 16.6221 31.7346L17.6616 30.026C16.9786 29.6104 16.2257 29.3738 15.4178 29.3128L15.2673 31.3072ZM16.6312 31.7401C17.0338 31.9792 17.409 32.3285 17.7499 32.8143L19.387 31.6655C18.906 30.9801 18.3301 30.4229 17.6525 30.0205L16.6312 31.7401ZM17.7605 32.8291C18.1092 33.3073 18.4129 33.8997 18.6611 34.6207L20.5522 33.9695C20.251 33.095 19.8626 32.3172 19.3764 31.6507L17.7605 32.8291ZM18.6611 34.6207L22.1305 44.6964L24.0215 44.0452L20.5522 33.9695L18.6611 34.6207ZM22.7504 43.4253L19.1456 44.6665L19.7968 46.5575L23.4016 45.3163L22.7504 43.4253ZM38.6634 34.1121L39.6634 34.1113L39.6634 34.1082L38.6634 34.1121ZM27.5053 41.0609L27.0391 41.9456L27.0459 41.9491L27.5053 41.0609ZM25.2676 39.1213L24.4735 39.7292L24.4754 39.7316L25.2676 39.1213ZM22.9932 32.468L21.9932 32.4598L21.9932 32.4688L22.9932 32.468ZM23.5961 29.4677L22.6817 29.0628L22.6786 29.0699L23.5961 29.4677ZM25.3809 27.0683L26.04 27.8205L26.0468 27.8144L25.3809 27.0683ZM31.4571 24.8935L31.4238 25.893L31.4336 25.8933L31.4571 24.8935ZM36.4145 27.5327L35.6167 28.1357L35.6242 28.1455L36.4145 27.5327ZM32.2326 28.8735L31.6648 29.6968L31.6765 29.7047L32.2326 28.8735ZM27.0148 30.9015L27.9808 31.1603L27.9834 31.15L27.0148 30.9015ZM26.8933 32.6124L25.8978 32.707L25.8986 32.7152L25.8995 32.7233L26.8933 32.6124ZM29.4984 37.7306L28.9584 38.5722L28.9635 38.5755L29.4984 37.7306ZM33.9347 37.1285L34.6669 37.8095L34.6728 37.8033L34.6785 37.7969L33.9347 37.1285ZM34.6673 35.7525L35.6373 35.9956L35.6398 35.9855L34.6673 35.7525ZM37.1011 31.0145C37.4772 32.1068 37.6597 33.139 37.6634 34.116L39.6634 34.1082C39.6587 32.8847 39.4299 31.6349 38.9921 30.3634L37.1011 31.0145ZM37.6634 34.1129C37.6642 35.0815 37.4921 35.9499 37.1601 36.7309L39.0007 37.5134C39.4478 36.4618 39.6644 35.3235 39.6634 34.1113L37.6634 34.1129ZM37.1601 36.7309C36.8313 37.5043 36.3346 38.193 35.6546 38.7999L36.9864 40.292C37.8738 39.4999 38.5503 38.5727 39.0007 37.5134L37.1601 36.7309ZM35.6546 38.7999C34.9861 39.3966 34.13 39.887 33.0613 40.255L33.7124 42.1461C34.9878 41.7069 36.0875 41.0943 36.9864 40.292L35.6546 38.7999ZM33.0613 40.255C32.0397 40.6068 31.1078 40.7608 30.2582 40.7409L30.2112 42.7403C31.3386 42.7668 32.5081 42.5608 33.7124 42.1461L33.0613 40.255ZM30.2582 40.7409C29.4128 40.721 28.6533 40.5289 27.9648 40.1727L27.0459 41.9491C28.0196 42.4528 29.0797 42.7138 30.2112 42.7403L30.2582 40.7409ZM27.9716 40.1763C27.2811 39.8123 26.6419 39.2666 26.0597 38.511L24.4754 39.7316C25.208 40.6826 26.0607 41.4299 27.0391 41.9456L27.9716 40.1763ZM26.0616 38.5134C25.4804 37.7542 24.9733 36.779 24.5555 35.5656L22.6645 36.2168C23.1352 37.5838 23.7332 38.7621 24.4735 39.7291L26.0616 38.5134ZM24.5555 35.5656C24.1757 34.4624 23.994 33.4313 23.9932 32.4672L21.9932 32.4688C21.9942 33.6854 22.2237 34.9365 22.6645 36.2168L24.5555 35.5656ZM23.9932 32.4762C24.0012 31.5021 24.1794 30.6363 24.5136 29.8654L22.6786 29.0699C22.2269 30.112 22.0032 31.2464 21.9932 32.4598L23.9932 32.4762ZM24.5105 29.8725C24.8514 29.1024 25.3564 28.4194 26.04 27.8205L24.7219 26.3162C23.8312 27.0966 23.1464 28.0131 22.6817 29.0628L24.5105 29.8725ZM26.0468 27.8144C26.7169 27.2163 27.5639 26.7298 28.6106 26.3694L27.9595 24.4784C26.7014 24.9115 25.6124 25.5213 24.715 26.3223L26.0468 27.8144ZM28.6106 26.3694C29.6402 26.0149 30.5752 25.8647 31.4238 25.893L31.4903 23.8941C30.3552 23.8563 29.1755 24.0597 27.9595 24.4784L28.6106 26.3694ZM31.4336 25.8933C32.2752 25.913 33.0341 26.1084 33.7253 26.4727L34.6577 24.7033C33.6799 24.188 32.6158 23.9205 31.4805 23.8938L31.4336 25.8933ZM33.7253 26.4727C34.413 26.8351 35.0454 27.3799 35.6167 28.1357L37.2123 26.9297C36.4885 25.9722 35.6389 25.2204 34.6577 24.7033L33.7253 26.4727ZM35.6242 28.1455C36.1967 28.8838 36.6941 29.8327 37.1011 31.0145L38.9921 30.3634C38.5309 29.0238 37.9402 27.8685 37.2048 26.92L35.6242 28.1455ZM35.2701 31.7441C34.7023 30.0951 33.9085 28.7916 32.7886 28.0424L31.6765 29.7047C32.2743 30.1046 32.8752 30.9319 33.3791 32.3952L35.2701 31.7441ZM32.8003 28.0503C31.6404 27.2504 30.3004 27.1592 28.9146 27.6363L29.5658 29.5274C30.465 29.2177 31.1199 29.3209 31.6648 29.6967L32.8003 28.0503ZM28.9146 27.6363C28.1622 27.8954 27.5097 28.2848 27.0133 28.8373L28.5008 30.1741C28.7212 29.9289 29.0575 29.7024 29.5658 29.5274L28.9146 27.6363ZM27.0133 28.8373C26.5445 29.3588 26.2216 29.9691 26.0461 30.653L27.9834 31.15C28.0808 30.7705 28.2527 30.4502 28.5008 30.1741L27.0133 28.8373ZM26.0488 30.6427C25.8739 31.2956 25.8294 31.9873 25.8978 32.707L27.8888 32.5178C27.8396 32.0001 27.876 31.5511 27.9807 31.1603L26.0488 30.6427ZM25.8995 32.7233C25.9771 33.4193 26.1413 34.124 26.3865 34.836L28.2775 34.1849C28.0751 33.5969 27.9468 33.0362 27.8871 32.5015L25.8995 32.7233ZM26.3865 34.836C26.9615 36.506 27.7857 37.8198 28.9584 38.5722L30.0385 36.889C29.401 36.4799 28.781 35.6469 28.2775 34.1849L26.3865 34.836ZM28.9635 38.5755C30.1454 39.3238 31.4633 39.4337 32.8164 38.9678L32.1652 37.0767C31.3317 37.3637 30.6548 37.2792 30.0334 36.8857L28.9635 38.5755ZM32.8164 38.9678C33.5421 38.7179 34.1734 38.3402 34.6669 37.8095L33.2025 36.4474C32.9724 36.6947 32.6411 36.9129 32.1652 37.0767L32.8164 38.9678ZM34.6785 37.7969C35.1455 37.2772 35.4676 36.6727 35.6373 35.9956L33.6973 35.5094C33.6071 35.8692 33.4408 36.182 33.1909 36.46L34.6785 37.7969ZM35.6398 35.9855C35.7961 35.3327 35.8304 34.6405 35.759 33.9187L33.7687 34.1156C33.8216 34.6509 33.7915 35.1157 33.6948 35.5195L35.6398 35.9855ZM35.759 33.9187C35.6882 33.204 35.523 32.4786 35.2701 31.7441L33.3791 32.3952C33.5874 33.0002 33.715 33.5731 33.7687 34.1156L35.759 33.9187ZM54.3815 33.5914L53.436 33.917L53.7616 34.8625L54.7071 34.537L54.3815 33.5914ZM50.496 22.4031L49.5751 22.793L49.5761 22.7952L50.496 22.4031ZM49.7253 21.4126L49.3302 22.3312L49.3735 22.3499L49.4184 22.3643L49.7253 21.4126ZM48.2517 24.8119L47.2521 24.7837L47.247 24.9655L47.3062 25.1375L48.2517 24.8119ZM51.6041 34.5478L51.9296 35.4933L52.8751 35.1677L52.5496 34.2222L51.6041 34.5478ZM48.5163 35.611L47.5708 35.9365L47.8964 36.8821L48.8419 36.5565L48.5163 35.611ZM44.6309 24.4227L43.71 24.8125L43.7109 24.8148L44.6309 24.4227ZM43.8601 23.4321L43.5049 24.3669L43.5289 24.376L43.5533 24.3839L43.8601 23.4321ZM42.3718 26.8365L41.3725 26.7997L41.3656 26.9859L41.4263 27.1621L42.3718 26.8365ZM45.7241 36.5724L46.0497 37.5179L46.9952 37.1924L46.6696 36.2469L45.7241 36.5724ZM42.6069 37.6458L41.6613 37.9713L41.9869 38.9169L42.9324 38.5913L42.6069 37.6458ZM37.4385 22.6357L37.1129 21.6902L36.1674 22.0157L36.4929 22.9612L37.4385 22.6357ZM40.1125 21.7149L41.0489 21.3639L40.7072 20.4525L39.7869 20.7694L40.1125 21.7149ZM40.9245 23.8811L39.9881 24.2321L41.9169 24.0039L40.9245 23.8811ZM41.6127 21.5124L42.4575 22.0473L42.4639 22.0372L42.4701 22.0269L41.6127 21.5124ZM42.2431 20.7995L41.6518 19.993L41.6438 19.999L42.2431 20.7995ZM45.2923 20.3445L44.8439 21.2383L44.8539 21.2434L44.8641 21.2482L45.2923 20.3445ZM46.6715 21.9022L45.7533 22.2985L47.1165 25.4572L47.6589 22.0599L46.6715 21.9022ZM46.9741 20.5256L46.0224 20.2187L46.0193 20.2284L46.0163 20.2381L46.9741 20.5256ZM47.4335 19.5081L48.2784 20.043L48.2809 20.0391L47.4335 19.5081ZM48.0935 18.7851L47.5099 17.973L47.5023 17.9786L48.0935 18.7851ZM51.8424 18.6345L51.2433 19.4352L51.2482 19.4387L51.8424 18.6345ZM57.4988 32.5181L57.8243 33.4636L58.7699 33.138L58.4443 32.1925L57.4988 32.5181ZM55.327 33.2659L51.8068 23.0425L49.9158 23.6936L53.436 33.917L55.327 33.2659ZM51.8068 23.0425C51.6727 22.653 51.5425 22.308 51.4159 22.011L49.5761 22.7952C49.6788 23.0363 49.7922 23.3345 49.9158 23.6936L51.8068 23.0425ZM51.4169 22.0133C51.2807 21.6916 51.124 21.3916 50.9372 21.1395L49.3301 22.3299C49.3904 22.4114 49.4752 22.5569 49.5751 22.793L51.4169 22.0133ZM50.9372 21.1395C50.7298 20.8594 50.4356 20.5909 50.0321 20.4608L49.4184 22.3643C49.3678 22.348 49.3348 22.3262 49.3196 22.3142C49.306 22.3035 49.311 22.3042 49.3301 22.3299L50.9372 21.1395ZM50.1204 20.494C49.6805 20.3047 49.2406 20.3566 48.8909 20.477L49.542 22.3681C49.5635 22.3606 49.551 22.3682 49.511 22.369C49.4671 22.3699 49.402 22.3621 49.3302 22.3312L50.1204 20.494ZM48.8909 20.477C48.122 20.7418 47.7541 21.4495 47.5703 22.0687L49.4875 22.638C49.543 22.4511 49.5956 22.3611 49.6199 22.3282C49.638 22.3037 49.6156 22.3427 49.542 22.3681L48.8909 20.477ZM47.5703 22.0687C47.3779 22.7164 47.2843 23.6461 47.2521 24.7837L49.2513 24.8401C49.2827 23.7304 49.3738 23.0211 49.4875 22.638L47.5703 22.0687ZM47.3062 25.1375L50.6585 34.8734L52.5496 34.2222L49.1972 24.4863L47.3062 25.1375ZM51.2785 33.6023L48.1908 34.6655L48.8419 36.5565L51.9296 35.4933L51.2785 33.6023ZM49.4619 35.2854L45.9417 25.062L44.0506 25.7131L47.5708 35.9365L49.4619 35.2854ZM45.9417 25.062C45.8076 24.6725 45.6773 24.3275 45.5508 24.0306L43.7109 24.8148C43.8137 25.0558 43.927 25.3541 44.0506 25.7131L45.9417 25.062ZM45.5517 24.0328C45.4156 23.7112 45.2588 23.4111 45.0721 23.159L43.4649 24.3494C43.5252 24.4309 43.61 24.5765 43.71 24.8125L45.5517 24.0328ZM45.0721 23.159C44.8646 22.8789 44.5705 22.6105 44.167 22.4804L43.5533 24.3839C43.5027 24.3676 43.4696 24.3457 43.4545 24.3338C43.4408 24.323 43.4458 24.3237 43.4649 24.3494L45.0721 23.159ZM44.2153 22.4973C43.7892 22.3354 43.3658 22.3795 43.0109 22.5017L43.6621 24.3927C43.6828 24.3856 43.675 24.3912 43.6439 24.3921C43.6098 24.3931 43.5601 24.3879 43.5049 24.3669L44.2153 22.4973ZM43.0109 22.5017C42.6211 22.6359 42.349 22.9059 42.1654 23.1673C41.9821 23.4282 41.8478 23.7344 41.7439 24.0487L43.6427 24.6768C43.7114 24.4689 43.7707 24.3614 43.8019 24.3171C43.8326 24.2733 43.7958 24.3466 43.6621 24.3927L43.0109 22.5017ZM41.7439 24.0487C41.5244 24.7122 41.4147 25.6555 41.3725 26.7997L43.3711 26.8734C43.4121 25.7635 43.5167 25.0576 43.6427 24.6768L41.7439 24.0487ZM41.4263 27.1621L44.7786 36.898L46.6696 36.2469L43.3173 26.511L41.4263 27.1621ZM45.3985 35.6269L42.2813 36.7003L42.9324 38.5913L46.0497 37.5179L45.3985 35.6269ZM43.5524 37.3202L38.384 22.3101L36.4929 22.9612L41.6613 37.9713L43.5524 37.3202ZM37.764 23.5812L40.4381 22.6604L39.7869 20.7694L37.1129 21.6902L37.764 23.5812ZM39.1761 22.0659L39.9881 24.2321L41.8609 23.5301L41.0489 21.3639L39.1761 22.0659ZM41.9169 24.0039C41.9766 23.5217 42.0545 23.1181 42.1464 22.7871L40.2192 22.2523C40.0948 22.7008 40.0005 23.2048 39.932 23.7583L41.9169 24.0039ZM42.1464 22.7871C42.2337 22.4724 42.3414 22.2308 42.4575 22.0473L40.7678 20.9774C40.5271 21.3575 40.3482 21.7874 40.2192 22.2523L42.1464 22.7871ZM42.4701 22.0269C42.5858 21.8342 42.7117 21.6979 42.8423 21.6001L41.6438 19.999C41.2839 20.2684 40.9896 20.6073 40.7552 20.9978L42.4701 22.0269ZM42.8343 21.6061C42.9949 21.4883 43.2065 21.3767 43.4831 21.2814L42.832 19.3904C42.3995 19.5393 42.0014 19.7368 41.6519 19.993L42.8343 21.6061ZM43.4831 21.2814C44.1579 21.0491 44.5734 21.1026 44.8439 21.2383L45.7407 19.4507C44.8393 18.9984 43.8316 19.0462 42.832 19.3904L43.4831 21.2814ZM44.8641 21.2482C45.1846 21.4001 45.4968 21.7041 45.7533 22.2985L47.5896 21.506C47.1921 20.5849 46.5849 19.8505 45.7205 19.4409L44.8641 21.2482ZM47.6589 22.0599C47.7376 21.5672 47.8298 21.1534 47.9319 20.8131L46.0163 20.2381C45.8825 20.6841 45.7728 21.1881 45.684 21.7446L47.6589 22.0599ZM47.9259 20.8324C48.034 20.4971 48.1546 20.2385 48.2784 20.043L46.5886 18.9731C46.3556 19.3412 46.17 19.7609 46.0224 20.2187L47.9259 20.8324ZM48.2809 20.0391C48.4053 19.8405 48.5414 19.6966 48.6846 19.5916L47.5023 17.9786C47.1353 18.2475 46.8314 18.5857 46.5861 18.9771L48.2809 20.0391ZM48.677 19.5972C48.8521 19.4713 49.0723 19.3569 49.3483 19.2619L48.6972 17.3709C48.264 17.52 47.8647 17.7181 47.5099 17.973L48.677 19.5972ZM49.3483 19.2619C50.1923 18.9713 50.7719 19.0824 51.2433 19.4351L52.4415 17.8338C51.3399 17.0095 50.0397 16.9086 48.6972 17.3709L49.3483 19.2619ZM51.2482 19.4387C51.7953 19.843 52.3577 20.6588 52.8448 22.0736L54.7359 21.4225C54.1921 19.8431 53.4558 18.5832 52.4367 17.8302L51.2482 19.4387ZM52.8448 22.0736L56.5533 32.8436L58.4443 32.1925L54.7359 21.4225L52.8448 22.0736ZM57.1732 31.5726L54.0559 32.6459L54.7071 34.537L57.8243 33.4636L57.1732 31.5726ZM70.8188 19.3219L69.8582 19.5999L69.8617 19.6119L69.8655 19.6238L70.8188 19.3219ZM71.1413 20.4503L71.4668 21.3958L72.3348 21.097L72.1111 20.2067L71.1413 20.4503ZM61.2724 23.8484L60.9469 22.9029L60.0013 23.2285L60.3269 24.174L61.2724 23.8484ZM62.1682 25.49L61.4068 26.1383L61.4122 26.1447L61.4178 26.151L62.1682 25.49ZM63.4625 26.4655L63.0493 27.3761L63.0619 27.3818L63.0747 27.3872L63.4625 26.4655ZM65.0567 26.7759L65.0551 27.7759L65.0609 27.7759L65.0567 26.7759ZM69.1551 25.4804L69.6007 26.3756L69.6096 26.3711L69.1551 25.4804ZM71.5619 24.0236L72.5075 23.6981L72.0758 22.4446L70.9891 23.204L71.5619 24.0236ZM72.5488 26.8898L73.1188 27.7114L73.7408 27.2799L73.4943 26.5642L72.5488 26.8898ZM68.7053 28.9734L68.3225 28.0495L68.3131 28.0534L68.3039 28.0575L68.7053 28.9734ZM61.2832 29.4468L60.8378 30.3422L60.8448 30.3456L61.2832 29.4468ZM56.7577 21.0072L57.7577 21.0003L57.7577 20.9974L56.7577 21.0072ZM57.2908 17.9482L58.2198 18.3185L58.2223 18.3122L57.2908 17.9482ZM58.9372 15.5305L59.6179 16.2631L59.6217 16.2595L58.9372 15.5305ZM64.6536 13.463L64.5965 14.4615L64.6068 14.462L64.6536 13.463ZM66.6758 19.0959L67.0014 20.0415L67.9313 19.7213L67.6266 18.7862L66.6758 19.0959ZM65.9252 17.6358L65.1433 18.2593L65.1478 18.2649L65.9252 17.6358ZM64.8987 16.7664L64.4285 17.6489L64.4365 17.6532L64.4446 17.6573L64.8987 16.7664ZM63.7344 16.4567L63.6951 17.4559L63.7043 17.4562L63.7344 16.4567ZM60.5954 18.3307L61.5014 18.7541L61.5048 18.7467L60.5954 18.3307ZM60.4413 21.2427L59.4685 21.4743L59.7239 22.5473L60.7669 22.1882L60.4413 21.2427ZM69.5722 18.677C69.6494 18.9011 69.7445 19.2069 69.8582 19.5999L71.7794 19.044C71.6612 18.6355 71.5557 18.2943 71.4633 18.0259L69.5722 18.677ZM69.8655 19.6238C69.986 20.0045 70.0878 20.3611 70.1714 20.6939L72.1111 20.2067C72.0165 19.8297 71.9033 19.4341 71.7722 19.0201L69.8655 19.6238ZM70.8157 19.5048L60.9469 22.9029L61.598 24.7939L71.4668 21.3958L70.8157 19.5048ZM60.3269 24.174C60.586 24.9265 60.94 25.59 61.4068 26.1383L62.9296 24.8417C62.6565 24.5209 62.4133 24.0902 62.2179 23.5228L60.3269 24.174ZM61.4178 26.151C61.8832 26.6793 62.427 27.0937 63.0493 27.3761L63.8758 25.5548C63.5318 25.3987 63.2127 25.1628 62.9185 24.8289L61.4178 26.151ZM63.0747 27.3872C63.6959 27.6486 64.3598 27.7747 65.0551 27.7759L65.0583 25.7759C64.6072 25.7751 64.2083 25.6943 63.8504 25.5437L63.0747 27.3872ZM65.0609 27.7759C65.7678 27.7729 66.4832 27.6398 67.2023 27.3921L66.5512 25.5011C66.0097 25.6876 65.5117 25.7739 65.0525 25.7759L65.0609 27.7759ZM67.2023 27.3921C67.9776 27.1252 68.7772 26.7855 69.6006 26.3756L68.7095 24.5851C67.9529 24.9617 67.2336 25.2661 66.5512 25.5011L67.2023 27.3921ZM69.6096 26.3711C70.451 25.9417 71.2927 25.4318 72.1347 24.8433L70.9891 23.204C70.215 23.7449 69.4521 24.2061 68.7005 24.5896L69.6096 26.3711ZM70.6164 24.3492L71.6033 27.2153L73.4943 26.5642L72.5075 23.6981L70.6164 24.3492ZM71.9788 26.0681C71.6575 26.291 71.2963 26.5192 70.8937 26.7522L71.8958 28.483C72.3384 28.2268 72.7465 27.9697 73.1188 27.7114L71.9788 26.0681ZM70.8937 26.7522C70.4856 26.9885 70.064 27.219 69.6288 27.4435L70.5461 29.2208C71.0089 28.9819 71.4589 28.736 71.8958 28.483L70.8937 26.7522ZM69.6288 27.4435C69.2049 27.6623 68.7695 27.8643 68.3225 28.0495L69.088 29.8972C69.5859 29.6909 70.072 29.4655 70.5461 29.2208L69.6288 27.4435ZM68.3039 28.0575C67.858 28.2529 67.4223 28.4236 66.9965 28.5702L67.6477 30.4612C68.1281 30.2958 68.6145 30.105 69.1067 29.8893L68.3039 28.0575ZM66.9965 28.5702C65.943 28.933 64.9778 29.0977 64.0941 29.0864L64.0685 31.0862C65.2209 31.1009 66.4162 30.8853 67.6477 30.4612L66.9965 28.5702ZM64.0941 29.0864C63.2117 29.0751 62.4259 28.8915 61.7215 28.548L60.8448 30.3456C61.8352 30.8287 62.9149 31.0714 64.0685 31.0862L64.0941 29.0864ZM61.7285 28.5514C61.021 28.1995 60.3779 27.6755 59.8019 26.9564L58.2409 28.2067C58.979 29.1282 59.8438 29.8478 60.8378 30.3422L61.7285 28.5514ZM59.8019 26.9564C59.2315 26.2442 58.7406 25.3262 58.3455 24.1787L56.4545 24.8298C56.9072 26.1446 57.4972 27.2782 58.2409 28.2067L59.8019 26.9564ZM58.3455 24.1787C57.9546 23.0436 57.7645 21.9858 57.7577 21.0003L55.7577 21.0141C55.7662 22.2488 56.0043 23.5224 56.4545 24.8298L58.3455 24.1787ZM57.7577 20.9974C57.7477 19.9905 57.9074 19.1021 58.2198 18.3185L56.3619 17.578C55.9413 18.6331 55.7456 19.7841 55.7578 21.0171L57.7577 20.9974ZM58.2223 18.3122C58.5303 17.5238 58.9931 16.8437 59.6179 16.2631L58.2564 14.798C57.4123 15.5825 56.7775 16.5142 56.3594 17.5843L58.2223 18.3122ZM59.6217 16.2595C60.2482 15.6712 61.0288 15.2069 61.9844 14.8779L61.3333 12.9868C60.1418 13.3971 59.108 13.9983 58.2526 14.8016L59.6217 16.2595ZM61.9844 14.8779C62.9497 14.5455 63.8171 14.4168 64.5965 14.4614L64.7108 12.4647C63.6246 12.4025 62.4954 12.5867 61.3333 12.9868L61.9844 14.8779ZM64.6068 14.462C65.4018 14.4992 66.0978 14.6873 66.7112 15.0131L67.6493 13.2468C66.7526 12.7705 65.7642 12.514 64.7004 12.4641L64.6068 14.462ZM66.7112 15.0131C67.3351 15.3445 67.8909 15.8113 68.3782 16.4294L69.9487 15.1909C69.3019 14.3707 68.5355 13.7174 67.6493 13.2468L66.7112 15.0131ZM68.3782 16.4294C68.8676 17.05 69.2685 17.7949 69.5722 18.677L71.4633 18.0259C71.0955 16.9579 70.5935 16.0086 69.9487 15.1909L68.3782 16.4294ZM67.6266 18.7862C67.4053 18.1069 67.1044 17.5033 66.7025 17.0067L65.1478 18.2649C65.3595 18.5265 65.559 18.8963 65.725 19.4057L67.6266 18.7862ZM66.707 17.0123C66.3241 16.5322 65.8752 16.1417 65.3527 15.8754L64.4446 17.6573C64.6704 17.7724 64.9058 17.9615 65.1433 18.2593L66.707 17.0123ZM65.3688 15.8838C64.8691 15.6175 64.3304 15.4742 63.7645 15.4571L63.7043 17.4562C63.9622 17.464 64.1997 17.5271 64.4285 17.6489L65.3688 15.8838ZM63.7737 15.4574C63.2373 15.4364 62.7059 15.5218 62.1853 15.7011L62.8364 17.5921C63.1431 17.4865 63.4274 17.4454 63.6951 17.4559L63.7737 15.4574ZM62.1853 15.7011C61.0419 16.0948 60.1799 16.835 59.686 17.9148L61.5048 18.7467C61.7526 18.205 62.1676 17.8224 62.8364 17.5921L62.1853 15.7011ZM59.6894 17.9074C59.1925 18.9708 59.1618 20.186 59.4685 21.4743L61.4141 21.0111C61.1778 20.0185 61.2498 19.2924 61.5014 18.7541L59.6894 17.9074ZM60.7669 22.1882L67.0014 20.0415L66.3502 18.1504L60.1157 20.2971L60.7669 22.1882Z" fill="black" mask="url(#path-3-outside-1_109_41)"/>
</svg>
