<svg width="60" height="60" viewBox="0 0 60 60" fill="none" xmlns="http://www.w3.org/2000/svg">
<path d="M48.3173 37.1921C47.9901 37.9335 47.8925 38.756 48.0371 39.5535C48.1817 40.351 48.5618 41.0868 49.1286 41.6662L49.2761 41.8137C49.7332 42.2704 50.0958 42.8126 50.3433 43.4095C50.5907 44.0064 50.7181 44.6461 50.7181 45.2923C50.7181 45.9384 50.5907 46.5782 50.3433 47.1751C50.0958 47.7719 49.7332 48.3142 49.2761 48.7708C48.8194 49.2279 48.2772 49.5906 47.6803 49.838C47.0834 50.0854 46.4437 50.2128 45.7975 50.2128C45.1514 50.2128 44.5116 50.0854 43.9147 49.838C43.3179 49.5906 42.7756 49.2279 42.319 48.7708L42.1715 48.6233C41.5921 48.0566 40.8562 47.6764 40.0588 47.5318C39.2613 47.3872 38.4388 47.4848 37.6973 47.8121C36.9702 48.1237 36.3501 48.6411 35.9133 49.3007C35.4765 49.9602 35.2421 50.7331 35.239 51.5241V51.9421C35.239 53.246 34.721 54.4966 33.7989 55.4187C32.8769 56.3407 31.6263 56.8587 30.3223 56.8587C29.0183 56.8587 27.7678 56.3407 26.8457 55.4187C25.9237 54.4966 25.4057 53.246 25.4057 51.9421V51.7208C25.3866 50.9071 25.1232 50.118 24.6497 49.4559C24.1762 48.7939 23.5145 48.2897 22.7507 48.0087C22.0092 47.6815 21.1867 47.5839 20.3892 47.7285C19.5917 47.8731 18.8559 48.2532 18.2765 48.82L18.129 48.9675C17.6724 49.4246 17.1301 49.7873 16.5332 50.0347C15.9364 50.2821 15.2966 50.4095 14.6504 50.4095C14.0043 50.4095 13.3645 50.2821 12.7677 50.0347C12.1708 49.7873 11.6285 49.4246 11.1719 48.9675C10.7148 48.5109 10.3521 47.9686 10.1047 47.3717C9.85726 46.7749 9.72991 46.1351 9.72991 45.4889C9.72991 44.8428 9.85726 44.203 10.1047 43.6061C10.3521 43.0093 10.7148 42.467 11.1719 42.0104L11.3194 41.8629C11.8861 41.2835 12.2663 40.5476 12.4109 39.7502C12.5555 38.9527 12.4579 38.1302 12.1307 37.3887C11.819 36.6616 11.3016 36.0415 10.642 35.6047C9.9825 35.1679 9.20963 34.9335 8.41857 34.9304H8.00065C6.69667 34.9304 5.4461 34.4124 4.52404 33.4903C3.60199 32.5683 3.08398 31.3177 3.08398 30.0137C3.08398 28.7097 3.60199 27.4592 4.52404 26.5371C5.4461 25.6151 6.69667 25.0971 8.00065 25.0971H8.2219C9.0356 25.078 9.82475 24.8146 10.4868 24.3411C11.1488 23.8677 11.653 23.2059 11.934 22.4421C12.2612 21.7006 12.3588 20.8781 12.2142 20.0806C12.0696 19.2831 11.6895 18.5473 11.1227 17.9679L10.9752 17.8204C10.5181 17.3638 10.1555 16.8215 9.90802 16.2246C9.6606 15.6278 9.53324 14.988 9.53324 14.3418C9.53324 13.6957 9.6606 13.0559 9.90802 12.4591C10.1555 11.8622 10.5181 11.3199 10.9752 10.8633C11.4319 10.4062 11.9741 10.0435 12.571 9.7961C13.1679 9.54867 13.8076 9.42131 14.4538 9.42131C15.0999 9.42131 15.7397 9.54867 16.3366 9.7961C16.9334 10.0435 17.4757 10.4062 17.9323 10.8633L18.0798 11.0108C18.6592 11.5775 19.3951 11.9577 20.1925 12.1023C20.99 12.2469 21.8125 12.1493 22.554 11.8221H22.7507C23.4777 11.5104 24.0979 10.993 24.5346 10.3335C24.9714 9.6739 25.2058 8.90103 25.209 8.10997V7.69206C25.209 6.38808 25.727 5.1375 26.649 4.21545C27.5711 3.2934 28.8217 2.77539 30.1257 2.77539C31.4296 2.77539 32.6802 3.2934 33.6023 4.21545C34.5243 5.1375 35.0423 6.38808 35.0423 7.69206V7.91331C35.0455 8.70437 35.2799 9.47724 35.7167 10.1368C36.1534 10.7963 36.7736 11.3138 37.5006 11.6254C38.2421 11.9526 39.0646 12.0502 39.8621 11.9057C40.6596 11.7611 41.3954 11.3809 41.9748 10.8141L42.1223 10.6666C42.5789 10.2095 43.1212 9.84686 43.7181 9.59943C44.3149 9.352 44.9547 9.22465 45.6009 9.22465C46.247 9.22465 46.8868 9.352 47.4836 9.59943C48.0805 9.84686 48.6228 10.2095 49.0794 10.6666C49.5365 11.1233 49.8992 11.6655 50.1466 12.2624C50.394 12.8593 50.5214 13.4991 50.5214 14.1452C50.5214 14.7913 50.394 15.4311 50.1466 16.028C49.8992 16.6248 49.5365 17.1671 49.0794 17.6237L48.9319 17.7712C48.3652 18.3506 47.985 19.0865 47.8404 19.8839C47.6958 20.6814 47.7934 21.5039 48.1206 22.2454V22.4421C48.4323 23.1692 48.9497 23.7893 49.6093 24.2261C50.2688 24.6628 51.0417 24.8972 51.8327 24.9004H52.2506C53.5546 24.9004 54.8052 25.4184 55.7273 26.3405C56.6493 27.2625 57.1673 28.5131 57.1673 29.8171C57.1673 31.121 56.6493 32.3716 55.7273 33.2937C54.8052 34.2157 53.5546 34.7337 52.2506 34.7337H52.0294C51.2383 34.7369 50.4655 34.9713 49.8059 35.4081C49.1464 35.8449 48.6289 36.465 48.3173 37.1921Z" fill="#4A4891" stroke="#821751" stroke-width="2" stroke-linecap="round" stroke-linejoin="round"/>
<path d="M30.1257 37.1924C34.1988 37.1924 37.5007 33.8905 37.5007 29.8174C37.5007 25.7443 34.1988 22.4424 30.1257 22.4424C26.0526 22.4424 22.7507 25.7443 22.7507 29.8174C22.7507 33.8905 26.0526 37.1924 30.1257 37.1924Z" fill="white" stroke="#821751" stroke-width="2" stroke-linecap="round" stroke-linejoin="round"/>
<circle cx="30" cy="30" r="15" fill="#821751"/>
<g clip-path="url(#clip0_136_2)">
<path d="M30 42.5C36.9036 42.5 42.5 36.9036 42.5 30C42.5 23.0964 36.9036 17.5 30 17.5C23.0964 17.5 17.5 23.0964 17.5 30C17.5 36.9036 23.0964 42.5 30 42.5Z" stroke="#37AEE2" stroke-width="2" stroke-linecap="round" stroke-linejoin="round"/>
<path d="M17.5 30H42.5" stroke="#37AEE2" stroke-width="2" stroke-linecap="round" stroke-linejoin="round"/>
<path d="M30 17.5C33.1266 20.9229 34.9034 25.365 35 30C34.9034 34.635 33.1266 39.0771 30 42.5C26.8734 39.0771 25.0966 34.635 25 30C25.0966 25.365 26.8734 20.9229 30 17.5Z" stroke="#37AEE2" stroke-width="2" stroke-linecap="round" stroke-linejoin="round"/>
<path d="M45 30H39L34.5 43.5L25.5 16.5L21 30H15" stroke="#4A4891" stroke-width="2" stroke-linecap="round" stroke-linejoin="round"/>
</g>
<path d="M18.8889 5H10.5556C9.08213 5 7.66905 5.58532 6.62718 6.62718C5.58532 7.66905 5 9.08213 5 10.5556V18.8889M55 18.8889V10.5556C55 9.08213 54.4147 7.66905 53.3728 6.62718C52.3309 5.58532 50.9179 5 49.4444 5H41.1111M41.1111 55H49.4444C50.9179 55 52.3309 54.4147 53.3728 53.3728C54.4147 52.3309 55 50.9179 55 49.4444V41.1111M5 41.1111V49.4444C5 50.9179 5.58532 52.3309 6.62718 53.3728C7.66905 54.4147 9.08213 55 10.5556 55H18.8889" stroke="#37AEE2" stroke-width="2" stroke-linecap="round" stroke-linejoin="round"/>
<defs>
<clipPath id="clip0_136_2">
<rect width="30" height="30" fill="white" transform="translate(15 15)"/>
</clipPath>
</defs>
</svg>
